<svg width="379" height="469" viewBox="0 0 379 469" fill="none" xmlns="http://www.w3.org/2000/svg">
<path d="M122.215 17.2475C128.899 18.217 134.208 21.1846 140.01 24.559C134.862 29.5561 130.629 35.5981 129.129 42.746C128.05 47.883 129.194 53.0397 133.567 56.2682C137.887 59.4576 143.942 59.1307 148.931 58.1831C156.572 56.7318 164.054 53.4727 170.912 49.8792C186.416 41.754 199.123 29.2348 212.558 18.2426C218.024 13.7703 223.913 9.78299 230.001 6.20873C233.498 4.15562 235.5 2.49988 238.84 1.52589C241.919 1.27954 244.956 1.042 248.042 1.38976C251.442 1.77278 254.796 2.51256 258.098 3.39541C262.926 4.68639 267.711 6.46839 272.137 8.80429C276.458 11.0848 280.062 14.2816 284.734 15.9557C289.379 17.6203 294.465 18.1126 299.318 18.8416C311.238 20.6322 323.381 20.4912 335.338 21.9454C340.057 22.5193 344.776 23.3164 349.25 24.9674C353.087 26.3834 355.624 28.8027 358.416 31.7467C349.416 30.2467 350 30.9999 341.591 29.7501C333.223 26.7543 326.694 30.0629 320.481 35.885C304.72 50.6548 299.618 72.0872 301.5 92.9999C302.94 109.006 306.923 128.61 318.975 140.088C325.781 146.57 338.626 152.062 347.943 151.269C338.525 154.269 329.219 153.341 320.118 149.853C312.825 147.057 305.265 144.791 297.503 143.682C294.061 143.19 290.628 143.084 287.229 142.266C282.978 159.438 276.014 175.986 273.635 193.487C271.189 211.483 268.984 230.501 269.424 248.665C270.079 275.722 273.45 302.827 280.605 328.963C295.442 383.162 300.667 402.058 318 455.5C300.434 458.269 295.085 461.062 277.392 462.77C247.191 465.685 217.197 467.931 186.838 467.561C151.462 467.131 115.722 467.073 80.5846 462.37C68.9367 460.811 57.5923 458.273 46.0802 456.127C38.9604 454.799 31.8295 453.649 24.6807 452.388C24.6809 435.388 23.2203 432.5 24.8259 425.67C28.8931 408.368 33.9678 391.749 36.0792 374.013C38.2178 356.049 41.2413 338.224 43.5936 320.287C45.6875 304.321 46.2778 288.092 47.5504 272.043C48.8544 255.598 49.6511 239.07 52.1244 222.746C53.1488 215.985 54.5105 209.325 56 202.695C43.3132 199.83 26.1772 192.845 15.0881 186.048C7.25302 181.246 0.877461 173.402 1.5361 163.786C2.10858 155.428 6.2104 146.922 10.6311 139.985C16.5436 130.707 22.447 121.401 28.5496 112.247C35.1764 102.307 42.3801 92.7974 48.3459 82.4283C52.4771 75.2479 56.5861 68.069 60.5178 60.7768C64.8169 52.8033 68.9903 44.5795 74.7033 37.4963C82.5906 27.7175 92.4658 20.366 104.907 17.7C110.612 16.4774 116.457 16.4124 122.215 17.2475Z" fill="#323232"/>
<path d="M237 466C135 403.6 68.1667 312 47.5 274V276C47.5 277 47.2 282.1 46 294.5C44.8 310.9 42.1667 330.333 41 338L35.5 379L32.5 396L24 430L25 452.5C28.5 453.167 39.3 455.1 54.5 457.5C81.3 463.5 102 465 109 465C106.167 466 127.8 467.6 237 466Z" fill="#A52F2F"/>
<path d="M273.5 299C123.9 150.2 91.8336 52.3333 94.5002 22C85.7004 24 73.8335 38.1667 69 45C66.5 49.6667 59.7 62.3 52.5 75.5C58.1 99.9 70.1667 119 75.5 125.5C75.3333 126.333 74.2 131.2 71 144C110.2 224 238 340.5 296.5 388C294.667 383.333 287.5 359 273.5 299Z" fill="#A52F2F"/>
<path fill-rule="evenodd" clip-rule="evenodd" d="M238.8 1.02766C241.873 0.781861 244.957 0.539087 248.098 0.893088C251.531 1.27991 254.912 2.02618 258.227 2.91256C263.085 4.21167 267.907 6.00632 272.371 8.36228C274.052 9.24991 275.632 10.2781 277.185 11.2885C277.65 11.5908 278.112 11.8914 278.573 12.1862C280.591 13.475 282.621 14.6677 284.902 15.4852C288.663 16.8326 292.71 17.4008 296.742 17.9668C297.628 18.091 298.512 18.2151 299.392 18.3474C305.328 19.2391 311.324 19.6504 317.345 20.0208C317.919 20.0561 318.493 20.0911 319.068 20.126C324.512 20.4572 329.974 20.7895 335.398 21.4492C340.129 22.0246 344.894 22.8272 349.423 24.4986C353.376 25.9573 355.98 28.452 358.779 31.4028C358.927 31.5587 358.959 31.7918 358.858 31.9815C358.757 32.1713 358.546 32.2754 358.334 32.2401C353.85 31.4928 351.761 31.3077 349.744 31.1533C349.598 31.1421 349.452 31.1311 349.306 31.12C347.415 30.977 345.436 30.8273 341.517 30.2449C341.485 30.2401 341.453 30.2321 341.422 30.221C337.343 28.7605 333.735 28.8411 330.39 29.9842C327.03 31.1322 323.905 33.3621 320.823 36.2501C305.311 50.7867 300.192 71.8635 301.962 92.5438L336.537 96.0013L377.025 98.0007C377.262 98.0124 377.458 98.1888 377.494 98.4231C377.731 99.945 378.085 102.656 378.203 105.586C378.32 108.504 378.206 111.692 377.48 114.142C377.208 115.057 376.942 116.149 376.656 117.321C376.469 118.086 376.274 118.886 376.064 119.693C375.541 121.701 374.928 123.733 374.139 125.189C370.337 132.201 366.269 139.01 359.869 144.039C359.73 144.148 359.552 144.172 359.396 144.118C359.147 144.349 358.901 144.58 358.655 144.809C357.934 145.484 357.224 146.148 356.488 146.795C354.194 148.812 351.724 150.589 348.095 151.745C338.547 154.787 329.122 153.84 319.94 150.32C312.668 147.532 305.146 145.279 297.432 144.177C296.239 144.006 295.052 143.883 293.856 143.759C293.337 143.705 292.818 143.651 292.295 143.593C290.735 143.42 289.165 143.212 287.596 142.864C286.027 149.125 284.105 155.31 282.189 161.474C281.523 163.617 280.858 165.758 280.209 167.898C277.64 176.364 275.314 184.845 274.13 193.554C271.685 211.549 269.485 230.532 269.924 248.653C270.578 275.677 273.945 302.741 281.087 328.831C295.923 383.026 301.147 401.914 318.476 455.346C318.521 455.485 318.503 455.637 318.426 455.762C318.35 455.886 318.222 455.971 318.078 455.994C310.765 457.147 305.579 458.303 300.72 459.386C299.755 459.601 298.804 459.813 297.851 460.021C292.094 461.282 286.312 462.411 277.44 463.267C247.233 466.183 217.218 468.431 186.832 468.061C184.178 468.029 181.522 467.999 178.863 467.969C146.1 467.596 113.052 467.22 80.5184 462.866C72.2363 461.758 64.0994 460.153 55.9646 458.549C52.6422 457.894 49.3202 457.239 45.9887 456.618C41.5554 455.792 37.1229 455.035 32.6801 454.276C29.9893 453.817 27.2947 453.357 24.5939 452.88C24.355 452.838 24.1808 452.63 24.1808 452.388C24.1809 445.583 23.9467 441.049 23.769 437.607C23.725 436.756 23.6845 435.972 23.6519 435.237C23.4866 431.516 23.5214 429.035 24.3392 425.555C25.4282 420.923 26.5873 416.346 27.7415 411.789C30.9085 399.285 34.0387 386.925 35.5829 373.954C36.7982 363.745 38.3023 353.56 39.8054 343.382C40.9457 335.661 42.0854 327.943 43.098 320.222C44.5335 309.276 45.2606 298.217 45.9875 287.158C46.3199 282.102 46.6522 277.047 47.0521 272.003C47.3551 268.183 47.6308 264.354 47.9068 260.523C48.817 247.885 49.7295 235.215 51.6302 222.671C52.632 216.059 53.9551 209.547 55.4033 203.071C42.7145 200.128 25.8212 193.213 14.8269 186.474C6.91147 181.623 0.36078 173.63 1.03738 163.752C1.61841 155.269 5.77331 146.678 10.2096 139.716C10.6972 138.951 11.1848 138.186 11.6725 137.42C17.0968 128.905 22.5313 120.374 28.1337 111.97C30.2868 108.74 32.4947 105.564 34.6984 102.394C39.301 95.7736 43.8852 89.1793 47.9127 82.1792C52.0439 74.9987 56.1497 67.8252 60.0778 60.5397C60.5407 59.6812 61.0026 58.8189 61.4654 57.9548C65.2911 50.8123 69.1855 43.5413 74.3142 37.1826C82.2529 27.3402 92.2206 19.9074 104.802 17.2113C110.573 15.9748 116.478 15.9104 122.286 16.7529C129.078 17.7379 134.464 20.7549 140.262 24.127C140.397 24.2057 140.487 24.3432 140.507 24.4985C140.526 24.6538 140.471 24.809 140.358 24.918C135.252 29.8743 131.091 35.8322 129.618 42.8489C128.567 47.8548 129.692 52.7864 133.864 55.8661C137.999 58.9194 143.86 58.6375 148.838 57.6921C156.408 56.2542 163.84 53.0209 170.68 49.4365C182.4 43.2943 192.502 34.6405 202.585 26.0029C205.789 23.2586 208.991 20.5159 212.242 17.8558C217.731 13.3645 223.642 9.36274 229.748 5.77774C230.633 5.25785 231.431 4.75734 232.185 4.28369C234.351 2.92393 236.164 1.78563 238.7 1.04607C238.733 1.03654 238.766 1.03038 238.8 1.02766ZM55.6225 202.096C56.4433 198.458 57.3008 194.83 58.1601 191.2L58.2624 190.768C59.1264 187.118 59.9908 183.467 60.8211 179.8C63.2565 169.044 66.113 158.397 68.9687 147.762L69.0117 147.602C71.8539 137.018 74.6933 126.443 77.1204 115.764C77.1816 115.495 77.4495 115.326 77.7188 115.387C77.9881 115.449 78.1568 115.716 78.0956 115.986C75.6641 126.684 72.8205 137.274 69.9798 147.853L69.9345 148.022C67.0779 158.66 64.2267 169.287 61.7964 180.021C60.9652 183.692 60.1 187.346 59.2365 190.994L59.1332 191.43C58.2352 195.223 57.3406 199.01 56.488 202.805C54.9997 209.429 53.6408 216.076 52.6189 222.821C50.7247 235.322 49.8159 247.939 48.9062 260.569C48.6298 264.406 48.3533 268.245 48.049 272.082C47.6513 277.097 47.32 282.136 46.9882 287.184C46.26 298.259 45.5293 309.374 44.0895 320.352C43.0714 328.115 41.9304 335.84 40.7901 343.56C39.2901 353.715 37.7915 363.861 36.5759 374.072C35.0234 387.113 31.8696 399.565 28.6975 412.09C27.5464 416.635 26.393 421.189 25.3127 425.784C24.525 429.135 24.4874 431.512 24.6509 435.193C24.6833 435.922 24.7236 436.702 24.7674 437.549C24.9415 440.921 25.1712 445.367 25.1805 451.968C27.7321 452.417 30.2846 452.853 32.8366 453.288C37.286 454.048 41.7337 454.808 46.172 455.635C49.5257 456.26 52.8605 456.918 56.1897 457.574C64.312 459.176 72.4013 460.771 80.651 461.875C113.122 466.221 146.111 466.596 178.886 466.969C181.54 466.999 184.193 467.029 186.845 467.062C217.175 467.431 247.148 465.186 277.344 462.272C286.165 461.421 291.905 460.3 297.637 459.044C298.586 458.837 299.535 458.625 300.498 458.41C305.23 457.356 310.301 456.226 317.344 455.098C300.152 402.07 294.909 383.109 280.123 329.095C272.955 302.913 269.58 275.767 268.924 248.677C268.484 230.47 270.693 211.418 273.14 193.42C274.335 184.628 276.68 176.085 279.252 167.608C279.905 165.453 280.573 163.303 281.241 161.155C283.153 155.002 285.062 148.859 286.623 142.631C281.591 141.352 276.882 139.126 272.254 136.939C271.771 136.711 271.29 136.483 270.808 136.257C270.559 136.139 270.451 135.842 270.569 135.592C270.686 135.342 270.984 135.234 271.234 135.352C271.714 135.577 272.193 135.804 272.672 136.03C277.465 138.295 282.235 140.549 287.347 141.78C289.015 142.181 290.698 142.41 292.405 142.599C292.912 142.656 293.424 142.709 293.937 142.762C295.142 142.887 296.36 143.013 297.574 143.187C305.384 144.302 312.982 146.582 320.298 149.386C328.119 152.384 336.069 153.465 344.102 151.769C340.312 151.484 336.226 150.423 332.333 148.871C327.06 146.769 322.089 143.744 318.63 140.45C306.433 128.833 302.443 109.055 301.002 93.0449C299.111 72.0313 304.233 50.4268 320.14 35.5204C323.271 32.5862 326.517 30.2508 330.066 29.0379C333.618 27.8245 337.443 27.7449 341.713 29.2629C345.564 29.8342 347.508 29.9812 349.381 30.1229C349.527 30.134 349.674 30.145 349.82 30.1562C351.626 30.2945 353.49 30.4576 357.016 31.013C354.627 28.5803 352.331 26.6374 349.077 25.4367C344.659 23.8061 339.985 23.0145 335.277 22.4419C329.885 21.7861 324.454 21.4556 319.005 21.124C318.431 21.0891 317.857 21.0542 317.283 21.0189C311.263 20.6486 305.228 20.2352 299.244 19.3363C298.385 19.2073 297.516 19.0855 296.64 18.9627C292.604 18.3969 288.432 17.8121 284.565 16.4266C282.175 15.5699 280.067 14.3272 278.035 13.029C277.557 12.724 277.085 12.4167 276.614 12.1104C275.069 11.105 273.541 10.1109 271.904 9.24667C267.516 6.93081 262.766 5.16148 257.969 3.87862C254.68 2.9993 251.352 2.26601 247.986 1.8868C244.972 1.54717 241.999 1.77503 238.931 2.02037C236.565 2.71789 234.914 3.75417 232.806 5.07728C232.035 5.56076 231.204 6.08254 230.254 6.64009C224.185 10.2036 218.318 14.1765 212.875 18.6298C209.664 21.2572 206.487 23.9785 203.299 26.7101C193.196 35.3648 182.974 44.1223 171.144 50.3222C164.269 53.9249 156.736 57.2098 149.025 58.6745C144.024 59.6243 137.774 59.9963 133.27 56.6706C128.695 53.2933 127.534 47.9117 128.64 42.6434C130.121 35.5854 134.213 29.6113 139.192 24.6622C133.61 21.4262 128.505 18.6653 122.143 17.7425C116.436 16.9149 110.652 16.9805 105.012 18.1891C92.7111 20.825 82.9286 28.0952 75.0926 37.8104C70.0268 44.0912 66.1781 51.2756 62.3461 58.4288C61.8839 59.2916 61.4219 60.154 60.9581 61.0143C57.0227 68.3132 52.9106 75.4975 48.7794 82.6779C44.7309 89.7146 40.1046 96.3698 35.4883 103.011C33.2907 106.172 31.0954 109.33 28.9657 112.525C23.3694 120.919 17.9404 129.442 12.515 137.959C12.0276 138.724 11.5403 139.489 11.0529 140.254C6.64773 147.166 2.59898 155.586 2.03505 163.82C1.39438 173.174 7.59481 180.869 15.3495 185.622C26.2508 192.303 43.0405 199.176 55.6225 202.096ZM347.845 150.775C351.267 149.676 353.605 147.999 355.828 146.044C356.521 145.434 357.209 144.791 357.919 144.127C359.485 142.664 361.155 141.103 363.204 139.597C363.227 139.58 363.251 139.566 363.275 139.553C367.328 135.237 370.349 130.081 373.26 124.712C373.985 123.374 374.573 121.45 375.096 119.441C375.297 118.672 375.488 117.887 375.674 117.125C375.966 115.929 376.245 114.79 376.521 113.858C377.199 111.57 377.32 108.518 377.204 105.626C377.098 102.988 376.797 100.526 376.567 98.9793L336.475 96.9995C336.467 96.9991 336.459 96.9985 336.45 96.9976L302.053 93.5579C303.539 109.441 307.563 128.529 319.32 139.726C322.667 142.914 327.522 145.876 332.703 147.942C337.866 150.001 343.302 151.149 347.845 150.775ZM106.893 48.4136C107.161 48.3479 107.432 48.512 107.498 48.7802C107.598 49.1889 107.698 49.598 107.798 50.0074C109.323 56.2702 110.857 62.5677 114.485 67.856C117.877 72.8006 123.596 77.3049 129.221 79.3955C138.951 83.0118 150.434 81.6937 160.23 78.7143C169.115 76.0118 176.458 70.9058 183.463 64.8564C183.672 64.6759 183.987 64.699 184.168 64.908C184.348 65.117 184.325 65.4327 184.116 65.6132C177.065 71.7025 169.598 76.9101 160.521 79.671C150.631 82.6788 138.898 84.059 128.873 80.3329C123.052 78.1692 117.168 73.5335 113.661 68.4218C109.925 62.976 108.35 56.5077 106.836 50.285C106.733 49.8615 106.63 49.4391 106.527 49.0183C106.461 48.7501 106.625 48.4794 106.893 48.4136Z" fill="black"/>
</svg>
