<svg width="379" height="469" viewBox="0 0 379 469" fill="none" xmlns="http://www.w3.org/2000/svg">
<path d="M122.215 17.2475C128.899 18.217 134.208 21.1846 140.01 24.559C134.862 29.5561 130.629 35.5981 129.129 42.746C128.05 47.883 129.194 53.0397 133.567 56.2682C137.887 59.4576 143.942 59.1307 148.931 58.1831C156.572 56.7318 164.054 53.4727 170.912 49.8792C186.416 41.754 199.123 29.2348 212.558 18.2426C218.024 13.7703 223.913 9.78299 230.001 6.20873C233.498 4.15562 235.5 2.49988 238.84 1.52589C241.919 1.27954 244.956 1.042 248.042 1.38976C251.442 1.77278 254.796 2.51256 258.098 3.39541C262.926 4.68639 267.711 6.46839 272.137 8.80429C276.458 11.0848 280.062 14.2816 284.734 15.9557C289.379 17.6203 294.465 18.1126 299.318 18.8416C311.238 20.6322 323.381 20.4912 335.338 21.9454C340.057 22.5193 344.776 23.3164 349.25 24.9674C353.087 26.3834 355.624 28.8027 358.416 31.7467C349.416 30.2467 350 30.9999 341.591 29.7501C333.223 26.7543 326.694 30.0629 320.481 35.885C304.72 50.6548 299.618 72.0872 301.5 92.9999C302.94 109.006 306.923 128.61 318.975 140.088C325.781 146.57 338.626 152.062 347.943 151.269C338.525 154.269 329.219 153.341 320.118 149.853C312.825 147.057 305.265 144.791 297.503 143.682C294.061 143.19 290.628 143.084 287.229 142.266C282.978 159.438 276.014 175.986 273.635 193.487C271.189 211.483 268.984 230.501 269.424 248.665C270.079 275.722 273.45 302.827 280.605 328.963C295.442 383.162 300.667 402.058 318 455.5C300.434 458.269 295.085 461.062 277.392 462.77C247.191 465.685 217.197 467.931 186.838 467.561C151.462 467.131 115.722 467.073 80.5846 462.37C68.9367 460.811 57.5923 458.273 46.0802 456.127C38.9604 454.799 31.8295 453.649 24.6807 452.388C24.6809 435.388 23.2203 432.5 24.8259 425.67C28.8931 408.368 33.9678 391.749 36.0792 374.013C38.2178 356.049 41.2413 338.224 43.5936 320.287C45.6875 304.321 46.2778 288.092 47.5504 272.043C48.8544 255.598 49.6511 239.07 52.1244 222.746C53.1488 215.985 54.5105 209.325 56 202.695C43.3132 199.83 26.1772 192.845 15.0881 186.048C7.25302 181.246 0.877461 173.402 1.5361 163.786C2.10858 155.428 6.2104 146.922 10.6311 139.985C16.5436 130.707 22.447 121.401 28.5496 112.247C35.1764 102.307 42.3801 92.7974 48.3459 82.4283C52.4771 75.2479 56.5861 68.069 60.5178 60.7768C64.8169 52.8033 68.9903 44.5795 74.7033 37.4963C82.5906 27.7175 92.4658 20.366 104.907 17.7C110.612 16.4774 116.457 16.4124 122.215 17.2475Z" fill="white"/>
<path fill-rule="evenodd" clip-rule="evenodd" d="M275.798 182.038C277.442 175.066 279.577 168.193 281.715 161.315C283.678 154.998 285.643 148.675 287.229 142.266C289.439 142.798 291.664 143.029 293.896 143.26C295.097 143.385 296.299 143.51 297.503 143.682C305.265 144.791 312.825 147.057 320.118 149.853C329.219 153.341 338.525 154.269 347.943 151.269C338.626 152.062 325.781 146.57 318.975 140.088C306.923 128.61 302.94 109.006 301.5 93C299.618 72.0873 304.72 50.6549 320.481 35.8851C326.694 30.063 333.223 26.7544 341.591 29.7502C345.492 30.3301 347.458 30.4788 349.343 30.6214C351.521 30.7861 353.592 30.9427 358.416 31.7468C355.624 28.8028 353.087 26.3835 349.25 24.9676C344.776 23.3165 340.057 22.5194 335.338 21.9455C329.929 21.2877 324.483 20.9563 319.036 20.6249C313.793 20.3059 308.55 19.9869 303.34 19.3767C300.824 19.7052 298.51 20.4636 296.014 22.0362C290.59 25.4552 285.955 30.4204 282.837 36.0122C275.794 48.6422 270.733 63.3434 269.061 77.7223C268.914 78.9874 268.773 80.1258 268.644 81.1706C267.8 87.9926 267.449 90.8267 269.061 98.886C249.892 112.827 226.135 120.939 202.993 124.86C182.116 128.396 161.178 129.887 140.01 129.887C128.337 129.887 116.688 129.252 105.124 127.618C94.3729 126.1 86.7656 124.422 76.5 121L74.6678 125.023C74.4973 125.364 73.3699 125.467 72.4819 125.548C72.0999 125.583 71.7622 125.614 71.5641 125.658C70.1682 125.968 68.6297 125.59 67.1245 125.219C66.1219 124.973 65.1341 124.73 64.2131 124.696C59.5072 124.525 54.1479 122.413 50.1463 120.104C43.5834 116.318 37.7131 112.197 31.8687 107.38C31.8637 107.38 31.8587 107.379 31.8538 107.378C30.7422 108.993 29.6381 110.615 28.5496 112.247C22.9502 120.646 17.5185 129.173 12.0935 137.689C11.606 138.455 11.1186 139.22 10.6311 139.985C6.2104 146.922 2.10858 155.428 1.5361 163.786C0.877461 173.402 7.25302 181.246 15.0881 186.048C26.1772 192.845 43.3132 199.83 56 202.695C55.9233 203.036 55.847 203.378 55.771 203.719C67.0312 208.778 79.0556 210.062 91.3472 210.385C110.242 210.882 129.735 210.112 148.577 208.588C191.767 205.097 234.981 196.694 275.798 182.038ZM44.2604 314.763C45.2757 305.607 45.8822 296.382 46.4878 287.171C46.8198 282.119 47.1516 277.072 47.5504 272.043C47.8541 268.214 48.1302 264.38 48.4064 260.546C48.5786 258.155 48.7509 255.763 48.9298 253.372C49.0613 253.331 49.1938 253.291 49.3271 253.25C59.0594 256.449 68.6389 257.044 78.8786 257.323C97.735 257.837 116.571 258.07 135.436 257.976C161.71 257.845 187.896 257.029 213.992 253.747C232.591 251.408 251.037 248.101 269.368 244.231C269.37 245.714 269.388 247.192 269.424 248.665C269.989 272.019 272.578 295.408 277.877 318.179C266.633 319.673 255.326 320.69 244.013 321.485C208.46 323.984 172.765 324.032 137.142 323.99C116.301 323.966 95.5357 322.961 74.7582 321.376C73.2735 321.263 71.761 321.165 70.2317 321.066H70.231C61.6668 320.513 52.5712 319.924 44.832 316.399C44.5674 316.145 44.3908 315.477 44.2604 314.763ZM25.7991 421.612C26.59 418.373 27.4056 415.153 28.2193 411.94C31.3889 399.425 34.5309 387.019 36.0792 374.013C36.4869 370.589 36.9267 367.17 37.3879 363.754C37.5058 363.784 37.6261 363.816 37.749 363.849C39.1921 364.375 40.6165 364.941 42.0401 365.508C44.1024 366.328 46.163 367.148 48.2764 367.842C52.1217 369.105 56.0388 369.884 59.9811 370.668C61.1237 370.896 62.2684 371.123 63.414 371.363C70.7793 372.906 78.1093 374.003 85.5941 374.775C90.3522 375.267 95.0997 375.834 99.8471 376.401C106.136 377.152 112.424 377.903 118.737 378.478C147.724 381.119 176.713 382.131 205.788 380.511C233.997 378.939 261.475 373.93 288.99 367.769C289.73 367.628 290.464 367.499 291.192 367.392C297.462 389.827 302.603 407.247 310.448 431.983C310.178 432.08 309.932 432.273 309.573 433.112C279.663 440.305 249.377 445.98 218.53 446.688C188.646 447.374 158.506 444.918 128.793 441.897C116.182 440.614 103.621 438.984 91.0759 437.177C88.0294 436.739 84.9794 436.341 81.9303 435.944L81.9266 435.943H81.9258C75.9408 435.164 69.9589 434.384 64.0133 433.293L63.5448 433.207L62.8079 433.072H62.8072C56.6734 431.95 50.527 430.825 44.574 428.937C38.3668 426.968 32.3247 424.496 26.3145 422.003C26.1054 421.864 25.9374 421.736 25.7991 421.612Z" fill="#4E6CB2"/>
<path d="M281.715 161.315L281.237 161.166L281.715 161.315ZM275.798 182.038L275.967 182.509C276.126 182.452 276.245 182.318 276.284 182.153L275.798 182.038ZM287.229 142.266L287.347 141.78C287.079 141.716 286.81 141.879 286.744 142.146L287.229 142.266ZM293.896 143.26L293.845 143.758L293.896 143.26ZM320.118 149.853L320.297 149.386L320.118 149.853ZM347.943 151.269L348.095 151.745C348.338 151.668 348.483 151.421 348.434 151.171C348.384 150.921 348.155 150.749 347.901 150.77L347.943 151.269ZM318.975 140.088L319.32 139.726L318.975 140.088ZM301.5 93L301.998 92.9552L301.5 93ZM320.481 35.8851L320.823 36.25L320.481 35.8851ZM341.591 29.7502L341.422 30.221C341.453 30.232 341.485 30.24 341.517 30.2448L341.591 29.7502ZM349.343 30.6214L349.305 31.1199L349.343 30.6214ZM358.416 31.7468L358.334 32.24C358.546 32.2753 358.757 32.1712 358.858 31.9815C358.959 31.7917 358.927 31.5587 358.779 31.4027L358.416 31.7468ZM349.25 24.9676L349.423 24.4985L349.25 24.9676ZM335.338 21.9455L335.398 21.4491L335.338 21.9455ZM319.036 20.6249L319.066 20.1258L319.036 20.6249ZM303.34 19.3767L303.398 18.8801C303.357 18.8753 303.316 18.8756 303.275 18.8809L303.34 19.3767ZM296.014 22.0362L296.281 22.4592L296.014 22.0362ZM282.837 36.0122L282.4 35.7687L282.837 36.0122ZM269.061 77.7223L268.564 77.6646L269.061 77.7223ZM268.644 81.1706L268.147 81.1092L268.644 81.1706ZM269.061 98.886L269.355 99.2904C269.513 99.1755 269.589 98.9794 269.551 98.7879L269.061 98.886ZM202.993 124.86L202.909 124.367L202.993 124.86ZM105.124 127.618L105.054 128.114L105.124 127.618ZM76.5001 121L76.6582 120.526C76.4156 120.445 76.1511 120.56 76.0451 120.793L76.5001 121ZM74.6679 125.023L75.1151 125.246C75.1178 125.241 75.1205 125.236 75.123 125.23L74.6679 125.023ZM72.482 125.548L72.5275 126.046L72.482 125.548ZM71.5642 125.658L71.4557 125.17L71.5642 125.658ZM67.1246 125.219L67.0051 125.705L67.1246 125.219ZM64.2132 124.696L64.2313 124.196L64.2132 124.696ZM50.1464 120.104L49.8966 120.537L50.1464 120.104ZM31.8688 107.38L32.1868 106.995C32.1171 106.937 32.0333 106.9 31.9441 106.886L31.8688 107.38ZM31.8539 107.378L31.9278 106.884C31.7388 106.855 31.5503 106.937 31.442 107.095L31.8539 107.378ZM28.5497 112.247L28.1337 111.97L28.5497 112.247ZM12.0936 137.689L11.6719 137.421L12.0936 137.689ZM10.6312 139.985L10.2095 139.716L10.6312 139.985ZM1.53621 163.786L1.03738 163.752L1.53621 163.786ZM15.0882 186.048L15.3495 185.622L15.0882 186.048ZM56.0001 202.695L56.4879 202.805C56.5484 202.535 56.3794 202.268 56.1102 202.207L56.0001 202.695ZM55.7711 203.719L55.283 203.611C55.2315 203.842 55.3498 204.078 55.5662 204.176L55.7711 203.719ZM91.3473 210.385L91.3342 210.885L91.3473 210.385ZM148.577 208.588L148.617 209.087L148.577 208.588ZM44.2605 314.763L43.7635 314.708C43.7582 314.756 43.7599 314.805 43.7686 314.853L44.2605 314.763ZM46.4879 287.171L45.9889 287.138L46.4879 287.171ZM47.5505 272.043L48.049 272.082L47.5505 272.043ZM48.4065 260.546L47.9078 260.51L48.4065 260.546ZM48.9299 253.372L48.7815 252.894C48.5855 252.955 48.4466 253.13 48.4313 253.335L48.9299 253.372ZM49.3272 253.25L49.4833 252.775C49.3855 252.743 49.2802 252.742 49.1817 252.772L49.3272 253.25ZM78.8787 257.323L78.865 257.823L78.8787 257.323ZM135.436 257.976L135.438 258.476L135.436 257.976ZM213.992 253.747L214.054 254.243L213.992 253.747ZM269.368 244.231H269.868C269.868 244.08 269.8 243.938 269.683 243.843C269.565 243.748 269.412 243.711 269.265 243.742L269.368 244.231ZM269.424 248.665L268.924 248.677L269.424 248.665ZM277.877 318.179L277.942 318.675C278.082 318.656 278.208 318.579 278.288 318.463C278.368 318.347 278.395 318.203 278.364 318.066L277.877 318.179ZM244.013 321.485L244.048 321.984L244.013 321.485ZM137.142 323.99L137.141 324.49L137.142 323.99ZM74.7583 321.376L74.7963 320.878L74.7583 321.376ZM70.2318 321.066L70.264 320.567C70.2533 320.567 70.2425 320.566 70.2318 320.566V321.066ZM70.2311 321.066L70.1988 321.565C70.2096 321.566 70.2203 321.566 70.2311 321.566V321.066ZM44.8321 316.399L44.4854 316.76C44.5262 316.799 44.5734 316.831 44.6249 316.855L44.8321 316.399ZM25.7992 421.612L25.3134 421.494C25.2696 421.673 25.3283 421.862 25.4661 421.985L25.7992 421.612ZM28.2194 411.94L28.7041 412.062L28.2194 411.94ZM36.0793 374.013L36.5758 374.072L36.0793 374.013ZM37.388 363.754L37.5119 363.269C37.3736 363.234 37.2268 363.259 37.1085 363.339C36.9902 363.419 36.9116 363.545 36.8925 363.687L37.388 363.754ZM37.7491 363.849L37.9203 363.379C37.907 363.374 37.8935 363.37 37.8798 363.366L37.7491 363.849ZM42.0402 365.508L42.225 365.043L42.0402 365.508ZM48.2765 367.842L48.4325 367.367L48.2765 367.842ZM59.9812 370.668L60.0788 370.178H60.0787L59.9812 370.668ZM63.4141 371.363L63.5166 370.874L63.4141 371.363ZM85.5942 374.775L85.6455 374.278L85.5942 374.775ZM99.8472 376.401L99.7879 376.897L99.8472 376.401ZM118.737 378.478L118.782 377.98L118.737 378.478ZM205.788 380.511L205.76 380.012L205.788 380.511ZM288.99 367.769L288.896 367.278C288.891 367.279 288.886 367.28 288.881 367.281L288.99 367.769ZM291.192 367.392L291.674 367.257C291.606 367.015 291.368 366.86 291.119 366.897L291.192 367.392ZM310.448 431.983L310.617 432.454C310.87 432.363 311.006 432.088 310.924 431.832L310.448 431.983ZM309.573 433.112L309.69 433.598C309.843 433.561 309.971 433.454 310.033 433.309L309.573 433.112ZM218.53 446.688L218.541 447.188L218.53 446.688ZM128.793 441.897L128.742 442.394L128.793 441.897ZM91.076 437.177L91.1473 436.682L91.076 437.177ZM81.9304 435.944L81.995 435.448H81.9924L81.9304 435.944ZM81.9267 435.943L81.9887 435.447H81.9851L81.9267 435.943ZM81.9259 435.943L81.8613 436.439L81.8675 436.44L81.9259 435.943ZM64.0134 433.293L64.1037 432.801H64.1036L64.0134 433.293ZM63.5449 433.207L63.6351 432.715H63.6349L63.5449 433.207ZM62.808 433.072L62.898 432.581C62.8905 432.579 62.8828 432.578 62.8752 432.577L62.808 433.072ZM62.8073 433.072L62.7173 433.564C62.7249 433.565 62.7325 433.567 62.7402 433.568L62.8073 433.072ZM44.5741 428.937L44.7252 428.46L44.5741 428.937ZM26.3146 422.003L26.0372 422.419C26.0643 422.437 26.093 422.453 26.123 422.465L26.3146 422.003ZM76.799 121.528C76.8635 121.259 76.6981 120.989 76.4296 120.925C76.1611 120.86 75.8912 121.026 75.8267 121.294L76.799 121.528ZM69.4958 147.727L69.0129 147.598L69.4958 147.727ZM61.3087 179.91L60.8211 179.8L61.3087 179.91ZM271.234 135.352C270.984 135.234 270.686 135.342 270.568 135.592C270.451 135.842 270.558 136.139 270.808 136.257L271.234 135.352ZM272.463 136.485L272.676 136.032L272.463 136.485ZM287.112 142.752C287.381 142.817 287.651 142.651 287.716 142.383C287.78 142.115 287.615 141.844 287.347 141.78L287.112 142.752ZM347.792 150.792C347.528 150.876 347.383 151.157 347.467 151.42C347.551 151.684 347.832 151.829 348.095 151.745L347.792 150.792ZM358.287 144.468L357.946 144.103L358.287 144.468ZM363.796 140.403C364.019 140.239 364.066 139.926 363.903 139.704C363.739 139.481 363.426 139.434 363.204 139.597L363.796 140.403ZM377 98.5L377.494 98.423C377.458 98.1887 377.261 98.0123 377.025 98.0006L377 98.5ZM377 114L376.521 113.858L377 114ZM376.165 117.223L376.651 117.341L376.165 117.223ZM373.699 124.95L374.139 125.189L373.699 124.95ZM359.251 143.252C359.034 143.423 358.996 143.737 359.167 143.954C359.338 144.171 359.652 144.209 359.869 144.039L359.251 143.252ZM301.55 92.5025C301.275 92.475 301.03 92.6755 301.002 92.9503C300.975 93.225 301.175 93.47 301.45 93.4975L301.55 92.5025ZM336.5 96.5L336.45 96.9975C336.459 96.9984 336.467 96.999 336.475 96.9994L336.5 96.5ZM58.7495 190.88L58.2629 190.765L58.7495 190.88ZM55.5123 202.586C55.4517 202.855 55.6211 203.122 55.8905 203.183C56.1599 203.243 56.4274 203.074 56.4879 202.805L55.5123 202.586ZM49.1075 252.65C48.8457 252.562 48.5623 252.703 48.4745 252.965C48.3866 253.227 48.5276 253.51 48.7895 253.598L49.1075 252.65ZM49.1234 253.183L48.9657 253.657L49.1234 253.183ZM49.2601 253.228L49.1034 253.703H49.1039L49.2601 253.228ZM49.3272 253.25L49.1709 253.725C49.2688 253.757 49.3742 253.758 49.4727 253.728L49.3272 253.25ZM44.3317 315.612C44.0833 315.491 43.7842 315.595 43.6637 315.844C43.5432 316.092 43.647 316.391 43.8955 316.512L44.3317 315.612ZM44.8321 316.399L45.1789 316.039C45.1381 316 45.0909 315.968 45.0394 315.944L44.8321 316.399ZM49.9864 253.571C50.2501 253.489 50.3973 253.209 50.3153 252.945C50.2333 252.681 49.953 252.534 49.6893 252.616L49.9864 253.571ZM49.3793 253.234L49.2338 252.756L49.3793 253.234ZM44.7135 316.923C44.9605 317.046 45.2609 316.946 45.3844 316.699C45.5079 316.452 45.4078 316.152 45.1608 316.028L44.7135 316.923ZM281.237 161.166C279.101 168.042 276.96 174.931 275.311 181.924L276.284 182.153C277.924 175.2 280.054 168.344 282.192 161.463L281.237 161.166ZM286.744 142.146C285.161 148.539 283.201 154.847 281.237 161.166L282.192 161.463C284.155 155.148 286.124 148.812 287.715 142.386L286.744 142.146ZM293.948 142.763C291.711 142.531 289.519 142.303 287.347 141.78L287.112 142.752C289.36 143.293 291.618 143.527 293.845 143.758L293.948 142.763ZM297.573 143.187C296.359 143.013 295.147 142.888 293.948 142.763L293.845 143.758C295.047 143.882 296.24 144.006 297.432 144.177L297.573 143.187ZM320.297 149.386C312.982 146.582 305.384 144.303 297.573 143.187L297.432 144.177C305.146 145.279 312.668 147.532 319.939 150.32L320.297 149.386ZM347.792 150.792C338.503 153.751 329.315 152.843 320.297 149.386L319.939 150.32C329.122 153.84 338.547 154.787 348.095 151.745L347.792 150.792ZM318.63 140.45C322.089 143.744 327.06 146.769 332.332 148.871C337.602 150.972 343.223 152.172 347.986 151.767L347.901 150.77C343.347 151.158 337.887 150.009 332.703 147.942C327.522 145.876 322.667 142.914 319.32 139.726L318.63 140.45ZM301.002 93.0448C302.443 109.055 306.433 128.833 318.63 140.45L319.32 139.726C307.414 128.387 303.438 108.956 301.998 92.9552L301.002 93.0448ZM320.14 35.5203C304.233 50.4267 299.111 72.0312 301.002 93.0448L301.998 92.9552C300.125 72.1433 305.208 50.8831 320.823 36.25L320.14 35.5203ZM341.759 29.2795C337.471 27.7442 333.63 27.82 330.066 29.0378C326.517 30.2507 323.271 32.5861 320.14 35.5203L320.823 36.25C323.905 33.3621 327.03 31.1321 330.39 29.9841C333.735 28.841 337.343 28.7604 341.422 30.221L341.759 29.2795ZM349.381 30.1228C347.503 29.9807 345.55 29.8331 341.664 29.2556L341.517 30.2448C345.435 30.827 347.413 30.9768 349.305 31.1199L349.381 30.1228ZM358.498 31.2536C353.656 30.4465 351.57 30.2884 349.381 30.1228L349.305 31.1199C351.473 31.2839 353.528 31.439 358.334 32.24L358.498 31.2536ZM349.077 25.4366C352.798 26.8098 355.267 29.1538 358.053 32.0909L358.779 31.4027C355.98 28.4519 353.376 25.9572 349.423 24.4985L349.077 25.4366ZM335.277 22.4418C339.985 23.0144 344.658 23.806 349.077 25.4366L349.423 24.4985C344.894 22.8271 340.129 22.0245 335.398 21.4491L335.277 22.4418ZM319.006 21.124C324.455 21.4555 329.886 21.7862 335.277 22.4418L335.398 21.4491C329.972 20.7892 324.511 20.4571 319.066 20.1258L319.006 21.124ZM303.282 19.8733C308.508 20.4854 313.765 20.8051 319.006 21.124L319.066 20.1258C313.821 19.8067 308.592 19.4884 303.398 18.8801L303.282 19.8733ZM303.275 18.8809C300.691 19.2183 298.307 20.0001 295.748 21.6132L296.281 22.4592C298.712 20.9271 300.957 20.1921 303.405 19.8725L303.275 18.8809ZM295.748 21.6132C290.25 25.0783 285.558 30.1061 282.4 35.7687L283.274 36.2557C286.352 30.7347 290.929 25.8322 296.281 22.4592L295.748 21.6132ZM282.4 35.7687C275.329 48.4499 270.245 63.2137 268.564 77.6646L269.557 77.7801C271.221 63.473 276.26 48.8344 283.274 36.2557L282.4 35.7687ZM268.564 77.6646C268.417 78.9276 268.277 80.0643 268.147 81.1092L269.14 81.232C269.269 80.1873 269.41 79.0472 269.557 77.7801L268.564 77.6646ZM268.147 81.1092C267.726 84.5132 267.423 86.9598 267.431 89.5659C267.44 92.1785 267.761 94.9364 268.57 98.9841L269.551 98.7879C268.749 94.7763 268.439 92.0875 268.431 89.5627C268.423 87.0315 268.717 84.65 269.14 81.232L268.147 81.1092ZM268.767 98.4816C249.679 112.364 226.001 120.454 202.909 124.367L203.076 125.353C226.268 121.423 250.106 113.29 269.355 99.2904L268.767 98.4816ZM202.909 124.367C182.064 127.898 161.155 129.387 140.01 129.387V130.387C161.202 130.387 182.168 128.895 203.076 125.353L202.909 124.367ZM140.01 129.387C128.355 129.387 116.73 128.753 105.194 127.123L105.054 128.114C116.646 129.751 128.319 130.387 140.01 130.387V129.387ZM105.194 127.123C94.4688 125.608 86.8914 123.937 76.6582 120.526L76.342 121.474C86.6399 124.907 94.2772 126.591 105.054 128.114L105.194 127.123ZM76.0451 120.793L74.2129 124.816L75.123 125.23L76.9551 121.207L76.0451 120.793ZM74.2207 124.799C74.2639 124.713 74.3114 124.725 74.1895 124.775C74.0914 124.815 73.9446 124.855 73.7508 124.892C73.365 124.965 72.887 125.009 72.4365 125.05L72.5275 126.046C72.965 126.006 73.4947 125.958 73.9372 125.874C74.1576 125.832 74.3801 125.778 74.5691 125.7C74.7343 125.632 74.9867 125.503 75.1151 125.246L74.2207 124.799ZM72.4365 125.05C72.0719 125.084 71.6933 125.117 71.4557 125.17L71.6726 126.146C71.8314 126.111 72.1282 126.083 72.5275 126.046L72.4365 125.05ZM71.4557 125.17C70.196 125.45 68.7791 125.112 67.244 124.734L67.0051 125.705C68.4805 126.068 70.1407 126.487 71.6726 126.146L71.4557 125.17ZM67.244 124.734C66.2539 124.49 65.2136 124.232 64.2313 124.196L64.195 125.196C65.0548 125.227 65.9901 125.455 67.0051 125.705L67.244 124.734ZM64.2313 124.196C59.6392 124.029 54.3618 121.959 50.3963 119.671L49.8966 120.537C53.9342 122.867 59.3754 125.021 64.195 125.196L64.2313 124.196ZM50.3963 119.671C43.8589 115.899 38.0113 111.795 32.1868 106.995L31.5507 107.766C37.4151 112.6 43.3081 116.736 49.8966 120.537L50.3963 119.671ZM31.9441 106.886C31.9387 106.885 31.9332 106.885 31.9278 106.884L31.78 107.873C31.7845 107.873 31.7889 107.874 31.7934 107.875L31.9441 106.886ZM28.9657 112.525C30.0524 110.895 31.1551 109.276 32.2658 107.662L31.442 107.095C30.3295 108.711 29.224 110.335 28.1337 111.97L28.9657 112.525ZM12.5153 137.958C17.9407 129.441 23.3697 120.919 28.9657 112.525L28.1337 111.97C22.5309 120.374 17.0964 128.905 11.6719 137.421L12.5153 137.958ZM11.0529 140.254C11.5404 139.488 12.0279 138.723 12.5153 137.958L11.6719 137.421C11.1844 138.186 10.697 138.951 10.2095 139.716L11.0529 140.254ZM2.03504 163.82C2.59897 155.586 6.64772 147.166 11.0529 140.254L10.2095 139.716C5.77331 146.678 1.6184 155.269 1.03738 163.752L2.03504 163.82ZM15.3495 185.622C7.5948 180.869 1.39437 173.174 2.03504 163.82L1.03738 163.752C0.360774 173.63 6.91146 181.623 14.8269 186.474L15.3495 185.622ZM56.1102 202.207C43.4772 199.355 26.3923 192.39 15.3495 185.622L14.8269 186.474C25.9623 193.299 43.1493 200.306 55.89 203.183L56.1102 202.207ZM56.2591 203.828C56.335 203.487 56.4113 203.146 56.4879 202.805L55.5123 202.586C55.4355 202.927 55.3591 203.269 55.283 203.611L56.2591 203.828ZM55.5662 204.176C66.9179 209.275 79.0221 210.561 91.3342 210.885L91.3605 209.885C79.0893 209.562 67.1447 208.28 55.9759 203.263L55.5662 204.176ZM91.3342 210.885C110.25 211.383 129.762 210.611 148.617 209.087L148.536 208.09C129.708 209.612 110.233 210.382 91.3605 209.885L91.3342 210.885ZM148.617 209.087C191.843 205.592 235.102 197.182 275.967 182.509L275.629 181.568C234.86 196.207 191.69 204.601 148.536 208.09L148.617 209.087ZM44.7574 314.818C45.7742 305.649 46.3813 296.413 46.9868 287.203L45.9889 287.138C45.3832 296.351 44.7774 305.565 43.7635 314.708L44.7574 314.818ZM46.9868 287.203C47.3189 282.152 47.6505 277.108 48.049 272.082L47.0521 272.003C46.653 277.037 46.321 282.087 45.9889 287.138L46.9868 287.203ZM48.049 272.082C48.3528 268.251 48.629 264.416 48.9052 260.582L47.9078 260.51C47.6316 264.345 47.3556 268.176 47.0521 272.003L48.049 272.082ZM48.9052 260.582C49.0774 258.19 49.2496 255.799 49.4285 253.409L48.4313 253.335C48.2523 255.726 48.08 258.119 47.9078 260.51L48.9052 260.582ZM49.0784 253.849C49.2082 253.809 49.3395 253.769 49.4727 253.728L49.1817 252.772C49.0484 252.812 48.9145 252.853 48.7815 252.894L49.0784 253.849ZM49.1711 253.725C58.9774 256.948 68.6197 257.543 78.865 257.823L78.8923 256.823C68.6584 256.544 59.1415 255.949 49.4833 252.775L49.1711 253.725ZM78.865 257.823C97.7265 258.337 116.568 258.57 135.438 258.476L135.433 257.476C116.574 257.57 97.7438 257.337 78.8923 256.823L78.865 257.823ZM135.438 258.476C161.719 258.345 187.929 257.528 214.054 254.243L213.929 253.251C187.863 256.529 161.7 257.345 135.433 257.476L135.438 258.476ZM214.054 254.243C232.671 251.902 251.131 248.592 269.471 244.721L269.265 243.742C250.943 247.61 232.512 250.914 213.929 253.251L214.054 254.243ZM268.868 244.232C268.87 245.719 268.888 247.201 268.924 248.677L269.924 248.653C269.888 247.184 269.87 245.71 269.868 244.231L268.868 244.232ZM268.924 248.677C269.49 272.059 272.082 295.483 277.39 318.292L278.364 318.066C273.074 295.333 270.488 271.978 269.924 248.653L268.924 248.677ZM277.811 317.683C266.581 319.175 255.284 320.192 243.978 320.986L244.048 321.984C255.367 321.189 266.685 320.17 277.942 318.675L277.811 317.683ZM243.978 320.986C208.445 323.483 172.767 323.532 137.142 323.49L137.141 324.49C172.762 324.532 208.474 324.484 244.048 321.984L243.978 320.986ZM137.142 323.49C116.317 323.466 95.5648 322.462 74.7963 320.878L74.7203 321.875C95.5068 323.46 116.285 324.466 137.141 324.49L137.142 323.49ZM74.7963 320.878C73.3082 320.764 71.7929 320.666 70.264 320.567L70.1995 321.565C71.7294 321.664 73.2389 321.762 74.7203 321.875L74.7963 320.878ZM70.2318 320.566H70.2311V321.566H70.2318V320.566ZM70.2634 320.567C61.6791 320.012 52.6801 319.424 45.0394 315.944L44.6249 316.855C52.4626 320.424 61.6547 321.013 70.1988 321.565L70.2634 320.567ZM45.1789 316.039C45.1417 316.003 45.0617 315.877 44.9715 315.599C44.888 315.342 44.8159 315.021 44.7523 314.673L43.7686 314.853C43.8354 315.218 43.9168 315.589 44.0204 315.908C44.1173 316.206 44.2579 316.541 44.4854 316.76L45.1789 316.039ZM26.2849 421.731C27.0752 418.494 27.8903 415.276 28.7041 412.062L27.7347 411.817C26.9211 415.03 26.1049 418.252 25.3134 421.494L26.2849 421.731ZM28.7041 412.062C31.8725 399.552 35.023 387.116 36.5758 374.072L35.5828 373.954C34.039 386.923 30.9056 399.297 27.7347 411.817L28.7041 412.062ZM36.5758 374.072C36.9831 370.651 37.4226 367.234 37.8835 363.821L36.8925 363.687C36.431 367.105 35.9909 370.527 35.5828 373.954L36.5758 374.072ZM37.8798 363.366C37.7548 363.332 37.6322 363.3 37.5119 363.269L37.2641 364.238C37.3795 364.268 37.4976 364.299 37.6185 364.331L37.8798 363.366ZM42.225 365.043C40.8025 364.477 39.3714 363.908 37.9203 363.379L37.5779 364.319C39.013 364.842 40.4307 365.405 41.8554 365.972L42.225 365.043ZM48.4325 367.367C46.3361 366.678 44.2896 365.864 42.225 365.043L41.8554 365.972C43.9153 366.792 45.9901 367.617 48.1205 368.317L48.4325 367.367ZM60.0787 370.178C56.1317 369.393 52.2443 368.619 48.4325 367.367L48.1205 368.317C51.9993 369.591 55.9462 370.376 59.8837 371.159L60.0787 370.178ZM63.5166 370.874C62.3681 370.633 61.2209 370.405 60.0788 370.178L59.8837 371.159C61.0266 371.386 62.1688 371.613 63.3116 371.853L63.5166 370.874ZM85.6455 374.278C78.1758 373.507 70.863 372.413 63.5166 370.874L63.3116 371.853C70.6957 373.399 78.043 374.498 85.5428 375.273L85.6455 374.278ZM99.9065 375.904C95.1597 375.337 90.4083 374.77 85.6455 374.278L85.5428 375.273C90.2963 375.764 95.0398 376.33 99.7879 376.897L99.9065 375.904ZM118.782 377.98C112.478 377.406 106.196 376.656 99.9065 375.904L99.7879 376.897C106.075 377.648 112.371 378.4 118.692 378.976L118.782 377.98ZM205.76 380.012C176.715 381.63 147.751 380.619 118.782 377.98L118.692 378.976C147.697 381.618 176.711 382.632 205.815 381.01L205.76 380.012ZM288.881 367.281C261.377 373.439 233.93 378.442 205.76 380.012L205.815 381.01C234.065 379.436 261.572 374.42 289.099 368.257L288.881 367.281ZM291.119 366.897C290.382 367.006 289.641 367.136 288.896 367.278L289.084 368.261C289.82 368.12 290.546 367.992 291.265 367.886L291.119 366.897ZM290.711 367.526C296.982 389.967 302.124 407.392 309.971 432.134L310.924 431.832C303.081 407.102 297.942 389.687 291.674 367.257L290.711 367.526ZM310.033 433.309C310.205 432.907 310.332 432.702 310.425 432.593C310.503 432.501 310.555 432.476 310.617 432.454L310.279 431.512C310.07 431.587 309.865 431.707 309.662 431.946C309.475 432.167 309.301 432.477 309.114 432.915L310.033 433.309ZM218.541 447.188C249.44 446.479 279.766 440.795 309.69 433.598L309.456 432.625C279.56 439.816 249.314 445.482 218.518 446.188L218.541 447.188ZM128.742 442.394C158.459 445.416 188.625 447.875 218.541 447.188L218.518 446.188C188.667 446.873 158.552 444.42 128.843 441.399L128.742 442.394ZM91.0047 437.672C103.554 439.48 116.122 441.111 128.742 442.394L128.843 441.399C116.241 440.118 103.688 438.489 91.1473 436.682L91.0047 437.672ZM81.8658 436.44C84.9155 436.837 87.9622 437.234 91.0047 437.672L91.1473 436.682C88.0969 436.243 85.0436 435.845 81.995 435.448L81.8658 436.44ZM81.8647 436.44H81.8684L81.9924 435.448L81.9887 435.447L81.8647 436.44ZM81.8675 436.44H81.8683L81.9851 435.447H81.9844L81.8675 436.44ZM63.9231 433.785C69.8837 434.879 75.8784 435.66 81.8613 436.439L81.9905 435.448C76.0033 434.668 70.0344 433.89 64.1037 432.801L63.9231 433.785ZM63.4547 433.699L63.9232 433.785L64.1036 432.801L63.6351 432.715L63.4547 433.699ZM62.718 433.564L63.4549 433.699L63.6349 432.715L62.898 432.581L62.718 433.564ZM62.7402 433.568H62.7408L62.8752 432.577H62.8745L62.7402 433.568ZM44.4229 429.414C50.4111 431.313 56.5887 432.443 62.7173 433.564L62.8973 432.58C56.7582 431.457 50.6432 430.337 44.7252 428.46L44.4229 429.414ZM26.123 422.465C32.132 424.958 38.1926 427.438 44.4229 429.414L44.7252 428.46C38.5412 426.499 32.5175 424.035 26.5061 421.542L26.123 422.465ZM25.4661 421.985C25.6261 422.128 25.8139 422.271 26.0372 422.419L26.5919 421.587C26.3971 421.458 26.2488 421.344 26.1322 421.24L25.4661 421.985ZM75.8267 121.294C73.7116 130.099 71.3632 138.845 69.0129 147.598L69.9787 147.857C72.3284 139.106 74.6803 130.348 76.799 121.528L75.8267 121.294ZM69.0129 147.598C66.1424 158.288 63.269 168.988 60.8211 179.8L61.7964 180.021C64.2392 169.232 67.1074 158.55 69.9787 147.857L69.0129 147.598ZM270.808 136.257C271.288 136.482 271.768 136.709 272.249 136.937L272.676 136.032C272.196 135.805 271.715 135.578 271.234 135.352L270.808 136.257ZM272.249 136.937C277.026 139.194 281.89 141.495 287.112 142.752L287.347 141.78C282.24 140.551 277.469 138.298 272.676 136.032L272.249 136.937ZM348.095 151.745C352.869 150.224 355.642 147.625 358.629 144.833L357.946 144.103C354.959 146.895 352.33 149.347 347.792 150.792L348.095 151.745ZM358.629 144.833C360.185 143.379 361.797 141.872 363.796 140.403L363.204 139.597C361.151 141.106 359.499 142.651 357.946 144.103L358.629 144.833ZM376.506 98.577C376.74 100.075 377.088 102.746 377.203 105.626C377.319 108.518 377.198 111.57 376.521 113.858L377.479 114.142C378.205 111.692 378.32 108.504 378.203 105.586C378.085 102.656 377.731 99.9449 377.494 98.423L376.506 98.577ZM376.521 113.858C376.243 114.795 375.968 115.924 375.68 117.104L376.651 117.341C376.941 116.154 377.21 115.051 377.479 114.142L376.521 113.858ZM375.68 117.104C375.011 119.841 374.276 122.837 373.26 124.712L374.139 125.189C375.231 123.174 375.995 120.028 376.651 117.341L375.68 117.104ZM373.26 124.712C369.461 131.719 365.475 138.362 359.251 143.252L359.869 144.039C366.269 139.01 370.337 132.201 374.139 125.189L373.26 124.712ZM301.45 93.4975L336.45 96.9975L336.55 96.0025L301.55 92.5025L301.45 93.4975ZM336.475 96.9994L376.975 98.9994L377.025 98.0006L336.525 96.0006L336.475 96.9994ZM60.8211 179.8C59.991 183.466 59.1268 187.117 58.2629 190.765L59.236 190.996C60.0997 187.348 60.965 183.693 61.7964 180.021L60.8211 179.8ZM58.2629 190.765C57.3307 194.703 56.3989 198.639 55.5123 202.586L56.4879 202.805C57.3731 198.865 58.3036 194.934 59.236 190.996L58.2629 190.765ZM48.7895 253.598C48.8483 253.618 48.907 253.638 48.9657 253.657L49.2811 252.708C49.2232 252.689 49.1653 252.67 49.1075 252.65L48.7895 253.598ZM48.9657 253.657C49.0116 253.672 49.0575 253.688 49.1034 253.703L49.4169 252.753C49.3717 252.738 49.3264 252.723 49.2811 252.708L48.9657 253.657ZM49.1039 253.703L49.1709 253.725L49.4835 252.775L49.4164 252.753L49.1039 253.703ZM43.8955 316.512C44.1373 316.629 44.3805 316.743 44.6249 316.855L45.0394 315.944C44.8021 315.836 44.5662 315.726 44.3317 315.612L43.8955 316.512ZM49.6893 252.616C49.5377 252.663 49.3862 252.71 49.2338 252.756L49.5247 253.713C49.6766 253.666 49.8312 253.619 49.9864 253.571L49.6893 252.616ZM49.2338 252.756L49.1817 252.772L49.4727 253.728L49.5248 253.713L49.2338 252.756ZM44.4854 316.76C44.5483 316.82 44.6239 316.878 44.7135 316.923L45.1608 316.028C45.1775 316.037 45.1831 316.043 45.1789 316.039L44.4854 316.76Z" fill="#4E6CB2"/>
<path d="M306.633 94.3028C304.767 94.0955 302.796 93.3147 300.984 92.8589C300.918 92.5741 300.384 91.5972 300.271 92.1066C300.15 92.6481 300.395 93.1401 300.425 93.6585C300.505 95.0565 301.079 96.3168 301.079 97.7424C301.079 99.0423 301.242 100.341 301.242 101.654C301.242 104.006 301.089 106.407 301.405 108.742C301.985 113.016 302.653 117.182 303.865 121.347C304.492 123.503 305.579 125.629 306.796 127.509C307.932 129.265 308.896 131.151 310.226 132.773C312.548 135.603 315.436 137.792 318.303 140.051C319.525 141.014 320.479 142.275 321.661 143.282C322.727 144.19 323.807 144.804 325.092 145.361C327.002 146.188 329.113 146.688 330.973 147.566C331.656 147.888 332.47 148.089 333.196 148.31C334.297 148.645 335.291 149.204 336.4 149.526C338.752 150.209 341.061 150.898 343.478 151.287C345.32 151.56 347.719 151.584 349.5 150.5C351.325 149.389 353.257 148.29 354.95 146.985C356.177 146.039 357.299 145.001 358.5 144C360.257 141.692 362.253 140.747 364 139C366.312 135.729 368.5 133.5 371 130C372.678 126.68 373.691 123.99 375 120.5C375.888 118.132 376.618 115.984 377 113.5C377.399 110.905 377.5 108.5 377.5 105C377.019 103.275 376.927 100.709 376.54 98.9676C376.401 98.3417 374.702 98.4663 374.18 98.4049C372.315 98.1854 370.296 98.1099 368.417 98.0691C366.676 98.0312 364.94 97.579 363.19 97.579C360.522 97.579 357.86 97.2858 355.186 97.2523C353.616 97.2327 352.053 96.9256 350.485 96.9256C348.698 96.9256 346.93 96.9247 345.148 96.7986C341.395 96.5328 337.644 96.3743 333.895 96.0272C326.976 95.3865 319.951 94.802 313.003 94.802C311.756 94.802 310.41 94.9488 309.174 94.7657C308.319 94.6391 307.486 94.3977 306.633 94.3028Z" fill="#4E6CB2"/>
<path d="M300.915 92.8417C302.746 93.2948 304.743 94.0929 306.633 94.3028C307.486 94.3977 308.319 94.6391 309.174 94.7657C310.41 94.9488 311.756 94.802 313.003 94.802C319.951 94.802 326.976 95.3865 333.895 96.0272C337.644 96.3743 341.395 96.5328 345.148 96.7986C346.93 96.9247 348.698 96.9256 350.485 96.9256C352.053 96.9256 353.616 97.2327 355.186 97.2523C357.86 97.2858 360.522 97.579 363.19 97.579C364.94 97.579 366.676 98.0312 368.417 98.0691C370.296 98.1099 372.315 98.1854 374.18 98.4049C374.702 98.4663 376.401 98.3417 376.54 98.9676C376.927 100.709 377.019 103.275 377.5 105C377.5 108.5 377.399 110.905 377 113.5C376.618 115.984 375.888 118.132 375 120.5C373.691 123.99 372.678 126.68 371 130C368.5 133.5 366.312 135.729 364 139C362.253 140.747 360.257 141.692 358.5 144C357.299 145.001 356.177 146.039 354.95 146.985C353.257 148.29 351.325 149.389 349.5 150.5C347.719 151.584 345.32 151.56 343.478 151.287C341.061 150.898 338.752 150.209 336.4 149.526C335.291 149.204 334.297 148.645 333.196 148.31C332.47 148.089 331.656 147.888 330.973 147.566C329.113 146.688 327.002 146.188 325.092 145.361C323.807 144.804 322.727 144.19 321.661 143.282C320.479 142.275 319.525 141.014 318.303 140.051C315.436 137.792 312.548 135.603 310.226 132.773C308.896 131.151 307.932 129.265 306.796 127.509C305.579 125.629 304.492 123.503 303.865 121.347C302.653 117.182 301.985 113.016 301.405 108.742C301.089 106.407 301.242 104.006 301.242 101.654C301.242 100.341 301.079 99.0423 301.079 97.7424C301.079 96.3168 300.505 95.0565 300.425 93.6585C300.395 93.1401 300.15 92.6481 300.271 92.1066C300.415 91.4579 301.242 93.2196 300.915 92.8928" stroke="#4E6CB2" stroke-linecap="round" stroke-linejoin="round"/>
<path fill-rule="evenodd" clip-rule="evenodd" d="M238.8 1.02766C241.873 0.781861 244.957 0.539087 248.098 0.893088C251.531 1.27991 254.912 2.02618 258.227 2.91256C263.085 4.21167 267.907 6.00632 272.371 8.36228C274.052 9.24991 275.632 10.2781 277.185 11.2885C277.65 11.5908 278.112 11.8914 278.573 12.1862C280.591 13.475 282.621 14.6677 284.902 15.4852C288.663 16.8326 292.71 17.4008 296.742 17.9668C297.628 18.091 298.512 18.2151 299.392 18.3474C305.328 19.2391 311.324 19.6504 317.345 20.0208C317.919 20.0561 318.493 20.0911 319.068 20.126C324.512 20.4572 329.974 20.7895 335.398 21.4492C340.129 22.0246 344.894 22.8272 349.423 24.4986C353.376 25.9573 355.98 28.452 358.779 31.4028C358.927 31.5587 358.959 31.7918 358.858 31.9815C358.757 32.1713 358.546 32.2754 358.334 32.2401C353.85 31.4928 351.761 31.3077 349.744 31.1533C349.598 31.1421 349.452 31.1311 349.306 31.12C347.415 30.977 345.436 30.8273 341.517 30.2449C341.485 30.2401 341.453 30.2321 341.422 30.221C337.343 28.7605 333.735 28.8411 330.39 29.9842C327.03 31.1322 323.905 33.3621 320.823 36.2501C305.311 50.7867 300.192 71.8635 301.962 92.5438L336.537 96.0013L377.025 98.0007C377.262 98.0124 377.458 98.1888 377.494 98.4231C377.731 99.945 378.085 102.656 378.203 105.586C378.32 108.504 378.206 111.692 377.48 114.142C377.208 115.057 376.942 116.149 376.656 117.321C376.469 118.086 376.274 118.886 376.064 119.693C375.541 121.701 374.928 123.733 374.139 125.189C370.337 132.201 366.269 139.01 359.869 144.039C359.73 144.148 359.552 144.172 359.396 144.118C359.147 144.349 358.901 144.58 358.655 144.809C357.934 145.484 357.224 146.148 356.488 146.795C354.194 148.812 351.724 150.589 348.095 151.745C338.547 154.787 329.122 153.84 319.94 150.32C312.668 147.532 305.146 145.279 297.432 144.177C296.239 144.006 295.052 143.883 293.856 143.759C293.337 143.705 292.818 143.651 292.295 143.593C290.735 143.42 289.165 143.212 287.596 142.864C286.027 149.125 284.105 155.31 282.189 161.474C281.523 163.617 280.858 165.758 280.209 167.898C277.64 176.364 275.314 184.845 274.13 193.554C271.685 211.549 269.485 230.532 269.924 248.653C270.578 275.677 273.945 302.741 281.087 328.831C295.923 383.026 301.147 401.914 318.476 455.346C318.521 455.485 318.503 455.637 318.426 455.762C318.35 455.886 318.222 455.971 318.078 455.994C310.765 457.147 305.579 458.303 300.72 459.386C299.755 459.601 298.804 459.813 297.851 460.021C292.094 461.282 286.312 462.411 277.44 463.267C247.233 466.183 217.218 468.431 186.832 468.061C184.178 468.029 181.522 467.999 178.863 467.969C146.1 467.596 113.052 467.22 80.5184 462.866C72.2363 461.758 64.0994 460.153 55.9646 458.549C52.6422 457.894 49.3202 457.239 45.9887 456.618C41.5554 455.792 37.1229 455.035 32.6801 454.276C29.9893 453.817 27.2947 453.357 24.5939 452.88C24.355 452.838 24.1808 452.63 24.1808 452.388C24.1809 445.583 23.9467 441.049 23.769 437.607C23.725 436.756 23.6845 435.972 23.6519 435.237C23.4866 431.516 23.5214 429.035 24.3392 425.555C25.4282 420.923 26.5873 416.346 27.7415 411.789C30.9085 399.285 34.0387 386.925 35.5829 373.954C36.7982 363.745 38.3023 353.56 39.8054 343.382C40.9457 335.661 42.0854 327.943 43.098 320.222C44.5335 309.276 45.2606 298.217 45.9875 287.158C46.3199 282.102 46.6522 277.047 47.0521 272.003C47.3551 268.183 47.6308 264.354 47.9068 260.523C48.817 247.885 49.7295 235.215 51.6302 222.671C52.632 216.059 53.9551 209.547 55.4033 203.071C42.7145 200.128 25.8212 193.213 14.8269 186.474C6.91147 181.623 0.36078 173.63 1.03738 163.752C1.61841 155.269 5.77331 146.678 10.2096 139.716C10.6972 138.951 11.1848 138.186 11.6725 137.42C17.0968 128.905 22.5313 120.374 28.1337 111.97C30.2868 108.74 32.4947 105.564 34.6984 102.394C39.301 95.7736 43.8852 89.1793 47.9127 82.1792C52.0439 74.9987 56.1497 67.8252 60.0778 60.5397C60.5407 59.6812 61.0026 58.8189 61.4654 57.9548C65.2911 50.8123 69.1855 43.5413 74.3142 37.1826C82.2529 27.3402 92.2206 19.9074 104.802 17.2113C110.573 15.9748 116.478 15.9104 122.286 16.7529C129.078 17.7379 134.464 20.7549 140.262 24.127C140.397 24.2057 140.487 24.3432 140.507 24.4985C140.526 24.6538 140.471 24.809 140.358 24.918C135.252 29.8743 131.091 35.8322 129.618 42.8489C128.567 47.8548 129.692 52.7864 133.864 55.8661C137.999 58.9194 143.86 58.6375 148.838 57.6921C156.408 56.2542 163.84 53.0209 170.68 49.4365C182.4 43.2943 192.502 34.6405 202.585 26.0029C205.789 23.2586 208.991 20.5159 212.242 17.8558C217.731 13.3645 223.642 9.36274 229.748 5.77774C230.633 5.25785 231.431 4.75734 232.185 4.28369C234.351 2.92393 236.164 1.78563 238.7 1.04607C238.733 1.03654 238.766 1.03038 238.8 1.02766ZM55.6225 202.096C56.4433 198.458 57.3008 194.83 58.1601 191.2L58.2624 190.768C59.1264 187.118 59.9908 183.467 60.8211 179.8C63.2565 169.044 66.113 158.397 68.9687 147.762L69.0117 147.602C71.8539 137.018 74.6933 126.443 77.1204 115.764C77.1816 115.495 77.4495 115.326 77.7188 115.387C77.9881 115.449 78.1568 115.716 78.0956 115.986C75.6641 126.684 72.8205 137.274 69.9798 147.853L69.9345 148.022C67.0779 158.66 64.2267 169.287 61.7964 180.021C60.9652 183.692 60.1 187.346 59.2365 190.994L59.1332 191.43C58.2352 195.223 57.3406 199.01 56.488 202.805C54.9997 209.429 53.6408 216.076 52.6189 222.821C50.7247 235.322 49.8159 247.939 48.9062 260.569C48.6298 264.406 48.3533 268.245 48.049 272.082C47.6513 277.097 47.32 282.136 46.9882 287.184C46.26 298.259 45.5293 309.374 44.0895 320.352C43.0714 328.115 41.9304 335.84 40.7901 343.56C39.2901 353.715 37.7915 363.861 36.5759 374.072C35.0234 387.113 31.8696 399.565 28.6975 412.09C27.5464 416.635 26.393 421.189 25.3127 425.784C24.525 429.135 24.4874 431.512 24.6509 435.193C24.6833 435.922 24.7236 436.702 24.7674 437.549C24.9415 440.921 25.1712 445.367 25.1805 451.968C27.7321 452.417 30.2846 452.853 32.8366 453.288C37.286 454.048 41.7337 454.808 46.172 455.635C49.5257 456.26 52.8605 456.918 56.1897 457.574C64.312 459.176 72.4013 460.771 80.651 461.875C113.122 466.221 146.111 466.596 178.886 466.969C181.54 466.999 184.193 467.029 186.845 467.062C217.175 467.431 247.148 465.186 277.344 462.272C286.165 461.421 291.905 460.3 297.637 459.044C298.586 458.837 299.535 458.625 300.498 458.41C305.23 457.356 310.301 456.226 317.344 455.098C300.152 402.07 294.909 383.109 280.123 329.095C272.955 302.913 269.58 275.767 268.924 248.677C268.484 230.47 270.693 211.418 273.14 193.42C274.335 184.628 276.68 176.085 279.252 167.608C279.905 165.453 280.573 163.303 281.241 161.155C283.153 155.002 285.062 148.859 286.623 142.631C281.591 141.352 276.882 139.126 272.254 136.939C271.771 136.711 271.29 136.483 270.808 136.257C270.559 136.139 270.451 135.842 270.569 135.592C270.686 135.342 270.984 135.234 271.234 135.352C271.714 135.577 272.193 135.804 272.672 136.03C277.465 138.295 282.235 140.549 287.347 141.78C289.015 142.181 290.698 142.41 292.405 142.599C292.912 142.656 293.424 142.709 293.937 142.762C295.142 142.887 296.36 143.013 297.574 143.187C305.384 144.302 312.982 146.582 320.298 149.386C328.119 152.384 336.069 153.465 344.102 151.769C340.312 151.484 336.226 150.423 332.333 148.871C327.06 146.769 322.089 143.744 318.63 140.45C306.433 128.833 302.443 109.055 301.002 93.0449C299.111 72.0313 304.233 50.4268 320.14 35.5204C323.271 32.5862 326.517 30.2508 330.066 29.0379C333.618 27.8245 337.443 27.7449 341.713 29.2629C345.564 29.8342 347.508 29.9812 349.381 30.1229C349.527 30.134 349.674 30.145 349.82 30.1562C351.626 30.2945 353.49 30.4576 357.016 31.013C354.627 28.5803 352.331 26.6374 349.077 25.4367C344.659 23.8061 339.985 23.0145 335.277 22.4419C329.885 21.7861 324.454 21.4556 319.005 21.124C318.431 21.0891 317.857 21.0542 317.283 21.0189C311.263 20.6486 305.228 20.2352 299.244 19.3363C298.385 19.2073 297.516 19.0855 296.64 18.9627C292.604 18.3969 288.432 17.8121 284.565 16.4266C282.175 15.5699 280.067 14.3272 278.035 13.029C277.557 12.724 277.085 12.4167 276.614 12.1104C275.069 11.105 273.541 10.1109 271.904 9.24667C267.516 6.93081 262.766 5.16148 257.969 3.87862C254.68 2.9993 251.352 2.26601 247.986 1.8868C244.972 1.54717 241.999 1.77503 238.931 2.02037C236.565 2.71789 234.914 3.75417 232.806 5.07728C232.035 5.56076 231.204 6.08254 230.254 6.64009C224.185 10.2036 218.318 14.1765 212.875 18.6298C209.664 21.2572 206.487 23.9785 203.299 26.7101C193.196 35.3648 182.974 44.1223 171.144 50.3222C164.269 53.9249 156.736 57.2098 149.025 58.6745C144.024 59.6243 137.774 59.9963 133.27 56.6706C128.695 53.2933 127.534 47.9117 128.64 42.6434C130.121 35.5854 134.213 29.6113 139.192 24.6622C133.61 21.4262 128.505 18.6653 122.143 17.7425C116.436 16.9149 110.652 16.9805 105.012 18.1891C92.7111 20.825 82.9286 28.0952 75.0926 37.8104C70.0268 44.0912 66.1781 51.2756 62.3461 58.4288C61.8839 59.2916 61.4219 60.154 60.9581 61.0143C57.0227 68.3132 52.9106 75.4975 48.7794 82.6779C44.7309 89.7146 40.1046 96.3698 35.4883 103.011C33.2907 106.172 31.0954 109.33 28.9657 112.525C23.3694 120.919 17.9404 129.442 12.515 137.959C12.0276 138.724 11.5403 139.489 11.0529 140.254C6.64773 147.166 2.59898 155.586 2.03505 163.82C1.39438 173.174 7.59481 180.869 15.3495 185.622C26.2508 192.303 43.0405 199.176 55.6225 202.096ZM347.845 150.775C351.267 149.676 353.605 147.999 355.828 146.044C356.521 145.434 357.209 144.791 357.919 144.127C359.485 142.664 361.155 141.103 363.204 139.597C363.227 139.58 363.251 139.566 363.275 139.553C367.328 135.237 370.349 130.081 373.26 124.712C373.985 123.374 374.573 121.45 375.096 119.441C375.297 118.672 375.488 117.887 375.674 117.125C375.966 115.929 376.245 114.79 376.521 113.858C377.199 111.57 377.32 108.518 377.204 105.626C377.098 102.988 376.797 100.526 376.567 98.9793L336.475 96.9995C336.467 96.9991 336.459 96.9985 336.45 96.9976L302.053 93.5579C303.539 109.441 307.563 128.529 319.32 139.726C322.667 142.914 327.522 145.876 332.703 147.942C337.866 150.001 343.302 151.149 347.845 150.775ZM106.893 48.4136C107.161 48.3479 107.432 48.512 107.498 48.7802C107.598 49.1889 107.698 49.598 107.798 50.0074C109.323 56.2702 110.857 62.5677 114.485 67.856C117.877 72.8006 123.596 77.3049 129.221 79.3955C138.951 83.0118 150.434 81.6937 160.23 78.7143C169.115 76.0118 176.458 70.9058 183.463 64.8564C183.672 64.6759 183.987 64.699 184.168 64.908C184.348 65.117 184.325 65.4327 184.116 65.6132C177.065 71.7025 169.598 76.9101 160.521 79.671C150.631 82.6788 138.898 84.059 128.873 80.3329C123.052 78.1692 117.168 73.5335 113.661 68.4218C109.925 62.976 108.35 56.5077 106.836 50.285C106.733 49.8615 106.63 49.4391 106.527 49.0183C106.461 48.7501 106.625 48.4794 106.893 48.4136Z" fill="black"/>
</svg>
