<svg width="410" height="1219" viewBox="0 0 410 1219" fill="none" xmlns="http://www.w3.org/2000/svg">
<path d="M236.791 4.44223C253.27 14.1615 269.301 25.1464 283.475 38.0991C296.587 50.0798 300.582 55.8794 310.355 70.5867C316.182 80.4894 316.37 91.8144 315.634 103.115C314.959 113.456 313.874 123.608 311.37 133.688C308.849 143.835 306.734 149.096 302.975 158.796C256.023 121.619 226.941 105.148 165.947 98.9188C147.138 97.8318 128.185 98.8087 110.076 104.358C103.761 106.292 97.1543 108.562 91.3776 111.812C85.5075 115.116 80.5956 119.495 75.745 124.115C65.9878 123.66 56.9427 122.589 48.2968 117.556C38.9233 112.099 30.5312 104.339 30.2281 92.7067C29.804 76.4327 43.2086 61.3016 57.3922 55.1067C66.1233 51.2932 75.7731 49.2015 85.2466 48.4666C89.977 48.0996 94.2171 47.6594 97.0128 47.7363C99.4195 41.7979 105.086 23.0071 110.583 19.1769C125.466 8.80824 144.877 5.09716 162.515 3.41177C191.628 0.630155 213.808 -0.734249 236.791 4.44223Z" fill="#4B484B"/>
<path fill-rule="evenodd" clip-rule="evenodd" d="M236.443 5.32814C213.673 0.225822 191.66 1.57242 162.606 4.34846C145 6.03072 125.794 9.72592 111.12 19.9497C109.932 20.7771 108.633 22.5052 107.301 24.8813C105.987 27.2247 104.705 30.0771 103.509 33.0211C102.314 35.9617 101.214 38.9718 100.259 41.6265C100.092 42.0896 99.93 42.5428 99.772 42.9832C99.2523 44.4332 98.7813 45.7467 98.3729 46.8307C99.7416 46.8656 100.762 46.8871 101.666 46.9062C104.915 46.9747 106.667 47.0116 117.696 47.5262C162.43 49.6134 245.955 61.0282 302.801 156.65C306.13 148.069 308.116 142.9 310.461 133.46C312.945 123.459 314.025 113.372 314.699 103.053C315.433 91.7815 315.22 80.7198 309.562 71.087C299.818 56.4242 295.869 50.6956 282.845 38.7947C268.77 25.933 252.844 15.0086 236.443 5.32814ZM299.56 154.907C243.234 62.5758 161.66 51.4618 117.609 49.4065C106.602 48.893 104.865 48.8564 101.623 48.788C100.448 48.7633 99.0739 48.7343 96.9882 48.6769C94.8722 48.6187 91.9022 48.8648 88.4457 49.1513C87.4418 49.2346 86.3969 49.3212 85.3199 49.4047C75.9297 50.1332 66.3855 52.2054 57.7677 55.9694C50.8225 59.0029 44.0515 64.2347 39.0759 70.7019C34.1003 77.1693 30.9619 84.8145 31.167 92.6819C31.4568 103.804 39.4704 111.329 48.7688 116.742C57.094 121.589 65.8202 122.692 75.391 123.156C80.1576 118.627 85.0604 114.288 90.9198 110.991C96.7896 107.688 103.477 105.395 109.803 103.457C128.056 97.8635 147.13 96.8875 166.002 97.9793C166.016 97.9802 166.03 97.9812 166.043 97.9821C196.613 101.104 219.238 106.799 240.118 116.396C259.791 125.438 277.873 137.925 299.56 154.907ZM96.3806 46.7862C96.8288 45.6312 97.3731 44.1129 98.001 42.3613C98.1601 41.9176 98.3246 41.459 98.4942 40.9876C99.4504 38.3291 100.562 35.2887 101.771 32.3106C102.98 29.3358 104.296 26.401 105.666 23.9584C107.017 21.5484 108.488 19.4913 110.049 18.4036C125.139 7.89005 144.756 4.16311 162.428 2.47458C191.537 -0.306781 213.853 -1.68917 236.998 3.52366C237.093 3.54505 237.184 3.58113 237.268 3.63062C253.782 13.3704 269.87 24.3926 284.108 37.403C297.301 49.4576 301.345 55.3284 311.137 70.0644C311.146 70.0786 311.156 70.0932 311.164 70.1079C317.147 80.2753 317.309 91.8556 316.57 103.176C315.895 113.539 314.806 123.755 312.281 133.915C309.871 143.618 307.823 148.896 304.399 157.72C304.22 158.182 304.037 158.653 303.85 159.136C303.743 159.415 303.509 159.624 303.222 159.703C302.935 159.782 302.628 159.719 302.395 159.534C278.932 140.957 259.996 127.602 239.337 118.107C218.695 108.62 196.288 102.965 165.873 99.8569C147.134 98.7755 128.31 99.7543 110.351 105.257C104.046 107.189 97.5214 109.434 91.8375 112.632C86.0759 115.875 81.2349 120.184 76.392 124.797C76.2068 124.973 75.9579 125.066 75.7027 125.055C65.9157 124.6 56.6781 123.523 47.8271 118.37C38.3784 112.87 29.6078 104.873 29.2914 92.7311C29.0723 84.3245 32.4242 76.2672 37.5907 69.5517C42.7574 62.8362 49.7805 57.405 57.0188 54.2435C65.8633 50.3805 75.6187 48.2694 85.1754 47.528C86.2074 47.4479 87.2224 47.3637 88.2085 47.2819C91.3593 47.0203 94.2141 46.7834 96.3806 46.7862Z" fill="black"/>
<path d="M141.104 12.442C138.102 12.8185 130.785 23.2655 127.502 28.442C126.131 30.5341 135.872 30.6476 142.217 30.4025C143.299 30.3606 144.302 29.833 144.97 28.9766L151.282 20.8847C151.966 20.0076 152.999 19.479 154.109 19.4446C163.972 19.1398 181.431 18.792 184.257 19.5008C186.15 19.9757 187.148 22.3471 187.627 24.703C188.041 26.7403 189.69 28.442 191.762 28.442H200.495C203.094 28.442 204.88 25.8638 203.784 23.499C202.004 19.6561 199.497 15.1783 196.844 12.7795C196.59 12.5495 196.316 12.3751 195.992 12.2629C187.306 9.2531 144.786 11.9803 141.104 12.442Z" fill="#F4F4F4"/>
<path d="M190.692 59.501H183.48C183.063 59.501 182.658 59.4335 182.263 59.2998C173.569 56.3576 152.278 50.5974 130.066 48.8597C128.521 48.7389 127.194 47.7002 126.728 46.2175L126.229 44.6347C125.465 42.2082 127.271 39.7363 129.807 39.7363H139.843C141.441 39.7363 142.863 40.7507 143.387 42.2642L145.388 48.032C145.912 49.5455 147.334 50.5599 148.932 50.5599H178.23C179.629 50.5599 180.91 49.7801 181.557 48.5366L185.081 41.7597C185.728 40.5161 187.011 39.7363 188.408 39.7363H198.822C201.82 39.7363 203.607 43.0875 201.944 45.5893L193.815 57.8246C193.119 58.872 191.947 59.501 190.692 59.501Z" fill="#F4F4F4"/>
<path fill-rule="evenodd" clip-rule="evenodd" d="M166.7 11.9912C154.526 12.3544 143.013 13.1509 141.22 13.3757C141.06 13.3958 140.764 13.5053 140.314 13.8071C139.882 14.0976 139.38 14.5169 138.823 15.0526C137.707 16.1231 136.439 17.5883 135.143 19.2269C132.636 22.3959 130.09 26.1317 128.451 28.6988C128.505 28.7238 128.572 28.7516 128.653 28.7814C129.346 29.0359 130.525 29.2317 132.045 29.3606C135.044 29.615 139.021 29.5838 142.18 29.4617C142.979 29.4309 143.728 29.0409 144.231 28.3963L150.543 20.3045C151.397 19.2089 152.69 18.5467 154.08 18.5037C159.016 18.3512 165.855 18.1878 171.816 18.1513C174.796 18.133 177.564 18.1464 179.767 18.2091C181.924 18.2705 183.659 18.3803 184.484 18.5876C185.771 18.9103 186.669 19.8589 187.284 20.925C187.901 21.9937 188.296 23.2848 188.546 24.5147C188.893 26.2267 190.241 27.5006 191.762 27.5006H200.494C202.472 27.5006 203.713 25.5791 202.933 23.8955C201.156 20.0587 198.715 15.7382 196.215 13.4784C196.039 13.3188 195.872 13.2169 195.685 13.1523C194.704 12.8123 193.177 12.5341 191.192 12.3232C189.223 12.1141 186.86 11.9765 184.24 11.8968C179.002 11.7371 172.778 11.8098 166.7 11.9912ZM191.39 10.4514C193.406 10.6656 195.107 10.9606 196.298 11.3731C196.758 11.5328 197.139 11.7799 197.471 12.0801C200.278 14.6181 202.851 19.2531 204.635 23.1022C206.046 26.1479 203.715 29.383 200.494 29.383H191.762C189.138 29.383 187.188 27.2534 186.708 24.8908C186.479 23.7649 186.136 22.6923 185.661 21.8677C185.183 21.0403 184.636 20.5658 184.029 20.4137C183.443 20.2665 181.934 20.154 179.715 20.0907C177.542 20.0289 174.798 20.0153 171.827 20.0335C165.887 20.0699 159.065 20.2329 154.138 20.3852C153.309 20.4108 152.534 20.8057 152.021 21.4646L145.708 29.5564C144.875 30.6245 143.619 31.2899 142.252 31.3427C139.067 31.4658 135.001 31.5004 131.886 31.2362C130.35 31.1059 128.954 30.8965 128.007 30.549C127.559 30.3841 127.041 30.1299 126.722 29.6916C126.545 29.4473 126.425 29.1409 126.433 28.7916C126.44 28.4569 126.561 28.1661 126.713 27.9315C128.366 25.3252 131.033 21.3936 133.673 18.0568C134.992 16.3895 136.321 14.8488 137.525 13.6927C138.127 13.1152 138.715 12.6162 139.27 12.2431C139.809 11.8813 140.397 11.5819 140.988 11.5079C142.876 11.2711 154.466 10.473 166.643 10.1097C172.74 9.92772 179.006 9.85403 184.298 10.0153C186.943 10.0958 189.356 10.2354 191.39 10.4514ZM125.334 44.9177C124.379 41.8846 126.637 38.7947 129.807 38.7947H139.843C141.84 38.7947 143.617 40.0628 144.274 41.9546L146.273 47.7224C146.667 48.8575 147.734 49.6183 148.932 49.6183H178.23C179.279 49.6183 180.24 49.0335 180.725 48.1008L184.25 41.3239C185.057 39.7694 186.661 38.7947 188.408 38.7947H198.822C202.568 38.7947 204.803 42.9836 202.725 46.111L194.594 58.3463C193.725 59.6554 192.26 60.4418 190.692 60.4418H183.48C182.96 60.4418 182.453 60.3573 181.963 60.1912C173.324 57.2676 152.11 51.5279 129.993 49.7977C128.075 49.6475 126.417 48.3565 125.833 46.5005L125.334 44.9177ZM129.807 40.6771C127.905 40.6771 126.55 42.531 127.123 44.3509L127.622 45.9337C127.971 47.0429 128.968 47.8293 130.139 47.9209C135.265 48.322 140.34 48.936 145.225 49.68C144.918 49.2834 144.672 48.8332 144.501 48.3407L142.502 42.5731C142.108 41.4379 141.041 40.6771 139.843 40.6771H129.807ZM155.644 51.5006C167.485 53.8292 177.304 56.6279 182.562 58.4076C182.861 58.509 183.166 58.5594 183.48 58.5594H190.692C191.633 58.5594 192.512 58.0876 193.033 57.3021L201.164 45.0668C202.411 43.1904 201.07 40.6771 198.822 40.6771H188.408C187.36 40.6771 186.398 41.2619 185.913 42.1945L182.388 48.9716C181.58 50.5259 179.978 51.5006 178.23 51.5006H155.644Z" fill="black"/>
<path d="M91.0973 111.821C85.2271 115.123 80.3153 119.503 75.4648 124.123C65.7076 123.669 56.6623 122.597 48.0166 117.565C38.6431 112.108 30.2509 104.348 29.9478 92.715C29.5237 76.441 42.9283 61.3099 57.1119 55.115C65.843 51.3016 75.4928 49.2098 84.9662 48.4749C89.6968 48.108 93.9368 47.6678 96.7326 47.7447C104.562 47.9601 116.244 47.0443 131.254 47.7447C176.118 49.8379 246.069 62.0505 302.695 158.803C255.742 121.627 226.661 105.156 165.667 98.9277C146.858 97.8397 127.905 98.8167 109.796 104.366C103.481 106.301 96.8741 108.57 91.0973 111.821Z" fill="#315A69"/>
<path fill-rule="evenodd" clip-rule="evenodd" d="M107.369 48.591C103.291 48.6856 99.7154 48.7685 96.707 48.6857C94.591 48.6275 91.621 48.8736 88.1645 49.1601C87.1606 49.2434 86.1157 49.33 85.0387 49.4135C75.6485 50.142 66.1043 52.2143 57.4865 55.9782C50.5412 59.0117 43.7703 64.2434 38.7947 70.7107C33.819 77.1781 30.6807 84.8233 30.8857 92.6907C31.1755 103.813 39.1892 111.337 48.4876 116.751C56.8127 121.597 65.5389 122.7 75.1096 123.164C79.8763 118.636 84.7791 114.296 90.6386 110.999C96.5082 107.697 103.196 105.404 109.522 103.466C127.775 97.8729 146.848 96.8969 165.721 97.9877C165.734 97.9887 165.748 97.9896 165.762 97.9915C196.332 101.113 218.956 106.807 239.838 116.405C259.515 125.449 277.602 137.941 299.297 154.932C271.736 109.402 241.224 83.4686 212.139 68.6157C182.133 53.2922 153.578 49.7287 131.211 48.685C123.736 48.3363 117.086 48.3898 111.319 48.504C109.955 48.5311 108.638 48.5616 107.369 48.591ZM111.282 46.6221C117.066 46.5074 123.762 46.4532 131.297 46.8048C153.795 47.8544 182.648 51.4438 212.99 66.9382C243.339 82.4367 275.11 109.812 303.503 158.327C303.732 158.717 303.651 159.216 303.311 159.513C302.971 159.811 302.468 159.823 302.113 159.543C278.652 140.966 259.714 127.611 239.056 118.116C218.414 108.629 196.006 102.973 165.593 99.8663C146.853 98.784 128.029 99.7628 110.07 105.266C103.765 107.198 97.2401 109.444 91.5563 112.642C85.7946 115.883 80.9536 120.193 76.1108 124.806C75.9255 124.983 75.6766 125.076 75.4214 125.063C65.6344 124.608 56.3969 123.531 47.5459 118.378C38.0972 112.878 29.3265 104.883 29.0101 92.7399C28.7911 84.3333 32.143 76.2759 37.3095 69.5605C42.4761 62.845 49.4992 57.4138 56.7376 54.2523C65.5821 50.3893 75.3374 48.2782 84.894 47.5368C85.9262 47.4567 86.9412 47.3725 87.9272 47.2907C91.4089 47.0016 94.5289 46.7427 96.7584 46.8041C99.715 46.8854 103.223 46.8042 107.287 46.71C108.564 46.6804 109.896 46.6496 111.282 46.6221Z" fill="black"/>
<path d="M60.8959 70.7948C30.8763 92.2537 58.3942 115.187 75.9056 123.972C68.088 115.501 59.9576 95.8305 89.9771 84.9125C160.335 61.3831 256.492 117.854 301.052 157.854C226.941 62.7949 98.4203 43.9713 60.8959 70.7948Z" fill="#2B2A33"/>
<path fill-rule="evenodd" clip-rule="evenodd" d="M103.855 60.655C85.452 61.1748 70.6018 65.0126 61.4401 71.5616C54.0479 76.8458 50.3174 82.135 49.0222 87.1573C47.7301 92.1679 48.8214 97.0703 51.3949 101.676C55.8116 109.58 64.5023 116.433 72.3571 120.985C69.4857 116.725 67.2269 111.117 67.8191 105.265C68.6117 97.4289 74.4576 89.5558 89.6573 84.0279L89.6688 84.0237L89.6804 84.0198C125.18 72.1482 167.068 80.482 205.552 96.6919C239.688 111.07 271.276 131.701 293.578 150.176C257.405 107.762 210.19 81.9285 166.996 69.5235C144.032 62.9285 122.23 60.1361 103.855 60.655ZM167.512 67.7138C213.752 80.9938 264.592 109.562 301.79 157.275L300.426 158.555C278.217 138.619 243.126 114.56 204.825 98.4275C166.505 82.2864 125.142 74.1497 90.2853 85.8018C75.4743 91.1911 70.3781 98.61 69.6856 105.455C68.9812 112.419 72.778 119.197 76.5939 123.332L75.486 124.813C66.6686 120.391 55.2108 112.355 49.7583 102.597C47.0157 97.6886 45.7618 92.2851 47.2058 86.6858C48.6468 81.0982 52.7339 75.4739 60.3514 70.0286C69.9519 63.1658 85.2385 59.2978 103.803 58.7734C122.395 58.2483 144.39 61.0735 167.512 67.7138Z" fill="black"/>
<path d="M331.214 755.258C337.823 787.698 342.018 820.432 345.952 853.265C348.297 867.352 351.761 880.95 354.809 895.018C358.255 910.921 360.961 926.844 363.667 942.899C368.87 973.771 375.303 1004.42 380.986 1035.21C381.514 1039.94 382.283 1046.16 385.883 1048.86C387.945 1050.41 390.427 1050.43 392.526 1051.8C394.067 1052.81 395.153 1054.51 395.865 1056.39C396.484 1058.03 396.818 1059.79 396.919 1061.35C397.507 1070.47 395.648 1079.88 395.648 1089.05C395.498 1090.57 395.575 1091.3 394.71 1092.01C398.168 1093.98 399.9 1095.87 401.13 1099.68C402.372 1103.54 403.113 1107.48 403.671 1111.48C405.652 1125.71 406.85 1139.99 407.882 1154.32C408.744 1166.29 409.727 1178.61 409.352 1190.62C409.187 1195.89 406.466 1199.56 402.182 1202.42C395.53 1206.2 387.517 1209.55 379.5 1212.01C374.644 1213.5 369.786 1214.66 365.228 1215.41C354.892 1217.11 343.821 1218.49 333.355 1217.45C326.632 1216.77 320.07 1214.37 316.584 1208.3C313.167 1202.34 311.786 1195.32 309.215 1188.98C305.599 1180.09 302.461 1171 299.123 1161.99C296.129 1153.92 291.799 1146.39 288.487 1138.44C286.258 1133.09 283.852 1127.88 281.953 1122.39C281.349 1120.65 280.499 1118.99 279.992 1117.22C279.479 1115.42 278.745 1113.3 279.092 1111.5C274.465 1107.83 271.376 1103.05 268.884 1096.38C265.276 1086.73 261.794 1077.61 255.816 1069.15C246.541 1056.04 239.737 1041.31 230.55 1028.14C222.596 1016.73 213.36 1006.29 205.139 995.1C195.92 985.882 201.404 989.355 188.84 986.098C187.961 985.87 187.077 985.686 186.189 985.534C184.549 987.878 183.13 989.801 182.451 992.577C181.409 996.841 180.56 1001.17 179.22 1005.36C175.82 1015.96 172.719 1026.64 170.689 1037.61C168.367 1050.16 166.812 1062.83 164.645 1075.4C162.875 1085.66 160.833 1096.14 156.215 1105.5C155.532 1106.88 154.794 1108.24 153.991 1109.57C152.788 1112.95 152.285 1115.52 151.849 1119.11C150.699 1128.56 148.607 1138 147.003 1147.38C144.598 1161.45 142.746 1175.73 138.672 1189.44C135.991 1198.45 133.859 1207.67 124.151 1210.26C117.656 1211.21 111.22 1212.14 104.753 1212.67C99.0771 1213.15 93.378 1213.32 87.5958 1212.94C76.8739 1212.25 66.5641 1210.2 56.6243 1206.8C51.4835 1205.05 46.4418 1202.93 41.4932 1200.46C32.7357 1195.12 34.0023 1187.26 33.4888 1177.71C32.929 1167.3 33.3933 1156.89 33.6521 1146.48C33.8175 1139.82 34.1646 1133.17 33.8336 1126.51C33.407 1117.93 32.4623 1109.39 32.0186 1100.81C31.9939 1096.18 31.995 1092.84 31.7547 1089.5C31.5231 1086.28 31.0675 1083.05 30.1491 1078.67C28.0075 1068.43 24.4506 1058.47 21.709 1048.39C12.4249 1014.26 12.8114 987.765 15.0308 952.809C15.4342 944.034 15.6831 932.189 15.6831 923.405C15.6831 912.426 14.2361 904.76 12.7683 893.899L12.7256 893.584C10.6187 877.992 6.48128 862.961 3.28731 847.59C1.17948 837.446 0.33563 827.109 0.546569 816.752C0.712479 808.606 2.97331 809.139 3.28634 801C21.6466 794.88 44.6177 781.651 58.337 768.036C58.4181 767.956 58.4988 767.875 58.5793 767.795C59.5545 765.183 60.5375 759.387 59.9341 756.801C58.9429 752.553 57.7504 748.452 57.5344 744.102C57.6588 740.947 58.109 737.834 58.2825 734.675C58.3856 732.8 58.3915 730.903 58.3366 729C58.241 725.688 57.9609 722.36 57.687 719.104L57.6654 718.848C57.3538 715.144 56.5716 711.462 56.5219 707.74C56.4869 705.114 57.4367 705.436 60.1157 705.162C73.004 706.051 80 706.76 93.4764 706.76C118.948 708.875 144.553 710.206 170.108 710.608C238.029 711.674 251.988 708.936 319 699C321.983 711.657 323.695 719.133 325.283 726.5C326.952 734.243 328.485 741.866 331.214 755.258Z" fill="#5F5B5B"/>
<path d="M220.341 772.971C214.429 768.048 209.8 762.019 204.95 756.09L201 750C201.592 746.778 201.769 745.156 202.5 742L249 738C276.05 733.915 284.995 733.624 304 730.5L305.25 732.241C315.026 757.125 318.852 784.235 322.239 810.651C295.704 808.529 270.141 802.293 246.569 789.687C237.459 784.816 228.305 779.601 220.341 772.971Z" fill="#DE655E"/>
<path d="M311.028 1115.14C320.407 1113.93 345.933 1107.52 355.156 1105.45C363.4 1103.14 371.541 1100.52 379.674 1097.64C381.625 1096.66 394.806 1093.46 395 1091.5L401 1097.64L403.669 1111.43C405.65 1125.66 406.848 1139.95 407.879 1154.27C408.742 1166.24 409.725 1178.56 409.35 1190.57C409.185 1195.84 406.463 1199.51 402.18 1202.37C395.528 1206.16 387.515 1209.5 379.498 1211.96C374.642 1213.45 369.784 1214.61 365.225 1215.36C354.889 1217.06 343.818 1218.44 333.353 1217.4C326.63 1216.72 320.068 1214.33 316.582 1208.25C313.165 1202.29 311.784 1195.27 309.213 1188.94C305.597 1180.04 302.459 1170.95 299.121 1161.95C296.126 1153.87 291.797 1146.34 288.485 1138.39C286.256 1133.04 283.85 1127.83 281.95 1122.34C281.347 1120.6 280.497 1118.94 279.99 1117.17C279.477 1115.37 278.743 1113.25 279.09 1111.45C281.53 1113.39 284.398 1115.01 287.831 1116.44C291.219 1117.06 294.48 1117.1 297.718 1116.86C302.112 1116.55 306.462 1115.73 311.028 1115.14Z" fill="#DE655E"/>
<path d="M154.391 1109.65C153.076 1113.23 152.549 1115.87 152.094 1119.61C150.945 1129.06 148.852 1138.5 147.248 1147.88C144.843 1161.95 142.991 1176.23 138.917 1189.94C136.237 1198.95 134.104 1208.17 124.396 1210.76C117.901 1211.71 111.465 1212.64 104.999 1213.17C99.3225 1213.65 93.6233 1213.82 87.8411 1213.44C77.1192 1212.75 66.8094 1210.7 56.8696 1207.3C51.7289 1205.55 46.6871 1203.43 41.7385 1200.96C32.9811 1195.62 34.2476 1187.76 33.7341 1178.21C33.1744 1167.8 33.6387 1157.39 33.8974 1146.98C34.0628 1140.32 34.4099 1133.67 34.079 1127.01C33.6524 1118.43 32.4437 1098.58 32 1090C37.5929 1095.08 42.6963 1099.15 49.7067 1102.09C51.1588 1102.7 52.6237 1103.27 54.0999 1103.8C64.6516 1107.58 75.7819 1109.37 86.9518 1110.29C98.4625 1111.25 110.018 1111.1 121.557 1110.29C123.287 1110.17 125.016 1110.04 126.745 1109.89C142.524 1108.53 140.475 1107.93 156 1105.5C155.379 1106.76 154.986 1108.3 154.391 1109.65Z" fill="#DE655E"/>
<path fill-rule="evenodd" clip-rule="evenodd" d="M318.927 698.505C319.184 698.467 319.427 698.632 319.487 698.885C322.47 711.543 324.183 719.023 325.772 726.395C327.167 732.868 328.468 739.259 330.45 748.999C330.839 750.914 331.255 752.958 331.703 755.158C338.317 787.616 342.514 820.364 346.447 853.194C348.089 863.059 350.28 872.675 352.494 882.399C353.438 886.541 354.386 890.703 355.298 894.912C358.746 910.828 361.454 926.763 364.16 942.816C367.388 961.972 371.089 981.035 374.791 1000.11C376.838 1010.65 378.885 1021.19 380.853 1031.76C380.989 1031.83 381.09 1031.96 381.114 1032.13C381.234 1032.93 381.336 1033.85 381.446 1034.83L381.48 1035.14C381.575 1035.66 381.67 1036.17 381.765 1036.68C381.787 1036.81 381.762 1036.93 381.702 1037.03C381.936 1038.89 382.246 1040.85 382.763 1042.66C383.461 1045.11 384.513 1047.21 386.183 1048.46C387.141 1049.18 388.203 1049.55 389.345 1049.92C389.416 1049.95 389.488 1049.97 389.56 1049.99C390.622 1050.34 391.754 1050.7 392.8 1051.38C394.463 1052.47 395.601 1054.28 396.332 1056.21C396.972 1057.9 397.315 1059.72 397.418 1061.32C397.715 1065.92 397.394 1070.58 397.003 1075.22C396.949 1075.86 396.894 1076.5 396.839 1077.14C396.492 1081.14 396.148 1085.12 396.148 1089.05C396.148 1089.07 396.148 1089.08 396.146 1089.1C396.127 1089.29 396.111 1089.49 396.095 1089.67C396.055 1090.15 396.019 1090.58 395.934 1090.95C395.853 1091.3 395.723 1091.61 395.51 1091.9C397.001 1092.79 398.18 1093.71 399.136 1094.83C400.209 1096.09 400.977 1097.58 401.605 1099.53C402.86 1103.42 403.606 1107.39 404.166 1111.41C406.149 1125.66 407.348 1139.96 408.38 1154.28C408.438 1155.08 408.496 1155.89 408.555 1156.69C409.368 1167.9 410.203 1179.4 409.852 1190.64C409.681 1196.11 406.837 1199.92 402.46 1202.83C402.45 1202.84 402.44 1202.85 402.43 1202.85C395.74 1206.66 387.693 1210.01 379.647 1212.48C374.772 1213.98 369.892 1215.15 365.309 1215.91C354.967 1217.61 343.841 1219 333.305 1217.94C326.517 1217.26 319.755 1214.83 316.15 1208.55C314.416 1205.52 313.204 1202.24 312.108 1198.94C311.827 1198.09 311.553 1197.25 311.281 1196.4C310.488 1193.95 309.703 1191.52 308.752 1189.17C306.203 1182.9 303.889 1176.53 301.579 1170.17C300.609 1167.5 299.64 1164.83 298.654 1162.17C297.166 1158.15 295.344 1154.27 293.474 1150.38C293.222 1149.86 292.969 1149.34 292.717 1148.82C291.094 1145.46 289.464 1142.08 288.025 1138.63C287.417 1137.17 286.793 1135.71 286.169 1134.26C284.518 1130.41 282.864 1126.55 281.48 1122.55C281.233 1121.84 280.943 1121.14 280.647 1120.43C280.59 1120.29 280.532 1120.15 280.474 1120.01C280.122 1119.15 279.773 1118.27 279.511 1117.36C279.456 1117.16 279.396 1116.96 279.335 1116.75C279.123 1116.03 278.893 1115.24 278.73 1114.46C278.541 1113.56 278.433 1112.61 278.552 1111.71C273.961 1107.99 270.888 1103.17 268.416 1096.56C264.805 1086.9 261.343 1077.84 255.407 1069.44C250.755 1062.87 246.724 1055.88 242.717 1048.92L242.503 1048.55C238.564 1041.7 234.637 1034.87 230.14 1028.42C226.173 1022.73 221.885 1017.28 217.554 1011.85C217.036 1011.2 216.518 1010.55 216 1009.9C212.192 1005.13 208.377 1000.35 204.758 995.427C203.03 993.697 201.815 992.412 200.907 991.45C200.611 991.137 200.347 990.857 200.109 990.609C199.126 989.582 198.607 989.111 198.017 988.809C197.416 988.502 196.714 988.354 195.294 988.073L195.194 988.053C193.798 987.777 191.795 987.38 188.715 986.582C187.954 986.384 187.187 986.22 186.416 986.081C186.394 986.113 186.372 986.145 186.35 986.176C184.811 988.372 183.556 990.163 182.937 992.696C182.643 993.896 182.364 995.108 182.084 996.324C181.376 999.397 180.661 1002.5 179.696 1005.51C176.298 1016.11 173.205 1026.76 171.181 1037.7C170.022 1043.97 169.053 1050.27 168.104 1056.57C167.997 1057.28 167.892 1057.98 167.786 1058.69C166.944 1064.29 166.101 1069.9 165.138 1075.48C163.368 1085.75 161.317 1096.29 156.663 1105.72C155.982 1107.1 155.246 1108.46 154.446 1109.79C153.271 1113.09 152.776 1115.62 152.345 1119.17C151.58 1125.46 150.395 1131.76 149.217 1138.03C148.623 1141.19 148.031 1144.34 147.495 1147.47C147.01 1150.31 146.547 1153.16 146.084 1156.01C144.253 1167.28 142.411 1178.62 139.151 1189.58C138.991 1190.12 138.833 1190.66 138.675 1191.2C137.514 1195.16 136.345 1199.14 134.484 1202.5C132.352 1206.35 129.294 1209.4 124.28 1210.74C124.262 1210.75 124.243 1210.75 124.224 1210.75C117.73 1211.71 111.279 1212.64 104.795 1213.17C99.1012 1213.65 93.3765 1213.82 87.5636 1213.44C76.7983 1212.75 66.4448 1210.69 56.4626 1207.28C51.3001 1205.51 46.2377 1203.39 41.2696 1200.9C41.257 1200.9 41.2448 1200.89 41.2329 1200.88C36.7261 1198.14 34.7796 1194.72 33.9112 1190.77C33.4805 1188.82 33.3157 1186.74 33.225 1184.57C33.1869 1183.66 33.162 1182.74 33.1368 1181.8C33.1012 1180.49 33.0647 1179.14 32.9895 1177.74C32.5222 1169.05 32.7669 1160.36 33.0111 1151.68C33.0601 1149.94 33.1091 1148.2 33.1523 1146.46C33.1874 1145.05 33.2306 1143.64 33.2738 1142.23C33.4343 1136.98 33.5941 1131.76 33.3342 1126.54C33.1214 1122.25 32.7792 1117.98 32.4341 1113.7L32.4163 1113.48C32.0773 1109.27 31.7377 1105.06 31.5192 1100.84C31.5188 1100.83 31.5186 1100.82 31.5186 1100.81C31.5168 1100.47 31.5151 1100.14 31.5134 1099.81C31.4928 1095.69 31.4773 1092.62 31.256 1089.54C31.0263 1086.34 30.5745 1083.14 29.6597 1078.77C28.2976 1072.26 26.3683 1065.89 24.4346 1059.5C23.3319 1055.85 22.2278 1052.2 21.2265 1048.52C11.9209 1014.31 12.3113 987.752 14.5315 952.782C14.9345 944.016 15.1831 932.181 15.1831 923.405C15.1831 914.491 14.2268 907.781 13.0766 899.71C12.8156 897.879 12.5447 895.979 12.2728 893.966L12.2301 893.651C10.8029 883.089 8.44545 872.801 6.0768 862.464C4.95366 857.562 3.828 852.65 2.79777 847.692C0.681569 837.508 -0.164956 827.133 0.0466722 816.742C0.130953 812.604 0.751417 810.649 1.38627 808.717L1.41746 808.622C2.02496 806.774 2.63528 804.918 2.78671 800.981C2.79471 800.773 2.93074 800.591 3.12822 800.526C21.427 794.426 44.3281 781.234 57.9848 767.681C58.0393 767.627 58.0937 767.573 58.148 767.519C58.6066 766.252 59.0718 764.242 59.3535 762.219C59.6449 760.126 59.7263 758.111 59.4472 756.915C59.2652 756.134 59.0754 755.356 58.8855 754.577C58.2017 751.773 57.517 748.965 57.1932 746.068C57.0768 745.976 57.0021 745.834 57.0021 745.675C57.0021 745.149 57.0136 744.626 57.0339 744.105C57.0171 743.761 57.0062 743.415 57.002 743.067C57.0006 742.951 57.039 742.843 57.1045 742.757C57.1785 741.612 57.2842 740.474 57.3923 739.343C57.4042 739.218 57.4162 739.093 57.4281 738.969C57.5666 737.524 57.704 736.091 57.7833 734.648C57.8854 732.79 57.8914 730.907 57.8368 729.014C57.7417 725.719 57.4629 722.404 57.1887 719.146L57.1672 718.89C57.0465 717.455 56.8549 716.027 56.6614 714.584C56.6071 714.179 56.5527 713.773 56.4996 713.365C56.2585 711.513 56.0472 709.638 56.022 707.746C56.013 707.072 56.0646 706.526 56.2226 706.096C56.391 705.637 56.6762 705.321 57.0788 705.122C57.4492 704.938 57.8964 704.864 58.3663 704.814C58.5937 704.79 58.8422 704.77 59.1051 704.749L59.1509 704.746C59.4331 704.723 59.7361 704.699 60.0649 704.665C60.0932 704.662 60.1217 704.662 60.1502 704.664C62.3758 704.817 64.425 704.965 66.3616 705.105C75.6472 705.776 82.3435 706.26 93.4764 706.26C93.4902 706.26 93.504 706.26 93.5178 706.261C118.979 708.376 144.573 709.707 170.116 710.108C234.205 711.114 250.2 708.733 308.177 700.103C311.607 699.593 315.184 699.06 318.927 698.505ZM58.0349 744.1C58.2104 747.58 59.0173 750.892 59.8489 754.305C60.0408 755.093 60.234 755.886 60.4211 756.687C60.7454 758.077 60.637 760.253 60.3439 762.357C60.169 763.613 59.9235 764.877 59.6474 765.979C64.3561 761.007 68.16 755.662 71.7773 749.734C74.0085 746.077 76.0992 740.57 77.7739 736.158C77.9339 735.737 78.0901 735.325 78.2422 734.927C71.8039 733.627 65.4627 732.017 58.8544 729.712C58.8886 731.383 58.8726 733.05 58.7818 734.703C58.7013 736.167 58.562 737.621 58.4238 739.061C58.4118 739.187 58.3997 739.312 58.3878 739.438C58.2387 740.998 58.097 742.545 58.0349 744.1ZM58.8259 728.643C65.708 731.065 72.297 732.726 79.0181 734.062C84.6434 735.181 90.3587 736.072 96.4197 736.994C104.096 738.162 111.809 739.061 119.544 739.748C131.133 740.778 142.769 741.334 154.403 741.614C154.39 741.457 154.377 741.299 154.364 741.142C154.341 740.867 154.545 740.625 154.82 740.602C155.096 740.579 155.337 740.784 155.36 741.059C155.376 741.252 155.392 741.445 155.408 741.637C156.234 741.656 157.059 741.674 157.885 741.69C172.722 741.98 187.597 741.843 202.446 741.193C202.55 740.998 202.775 740.888 203.001 740.94C203.132 740.971 203.24 741.05 203.308 741.155C217.847 740.5 232.36 739.351 246.79 737.627C271.396 734.689 284.921 732.668 303.919 729.545C308.726 728.755 313.883 727.895 319.658 726.931C321.282 726.66 322.956 726.381 324.684 726.093C323.146 718.981 321.468 711.657 318.619 699.562C315.046 700.092 311.623 700.601 308.336 701.091C250.322 709.726 234.271 712.115 170.101 711.107C144.54 710.706 118.931 709.375 93.4557 707.26C82.297 707.259 75.5674 706.773 66.283 706.102C64.3602 705.963 62.3278 705.816 60.1238 705.664C59.7995 705.697 59.5011 705.721 59.2305 705.743L59.1899 705.746C58.9221 705.767 58.6858 705.786 58.4719 705.809C58.0113 705.858 57.7209 705.919 57.5234 706.017C57.358 706.099 57.2448 706.213 57.1613 706.44C57.0673 706.697 57.0134 707.095 57.0219 707.733C57.0463 709.564 57.251 711.391 57.4912 713.236C57.5432 713.635 57.5969 714.035 57.6507 714.436C57.8448 715.883 58.0407 717.344 58.1637 718.806L58.1852 719.062L58.1857 719.068C58.4499 722.208 58.7211 725.43 58.8259 728.643ZM324.895 727.072C323.148 727.363 321.457 727.645 319.816 727.919C314.313 728.837 309.371 729.662 304.758 730.421L305.594 732.051C305.601 732.066 305.608 732.081 305.614 732.097C315.322 756.808 319.174 783.696 322.537 809.868C322.613 809.879 322.688 809.908 322.755 809.956C322.992 810.125 323.234 810.294 323.48 810.465C323.699 810.483 323.919 810.501 324.138 810.518C324.413 810.54 324.619 810.781 324.597 811.057C324.592 811.114 324.578 811.168 324.556 811.218C325.79 812.1 327.034 813.095 327.922 814.381C329.344 816.44 330.162 819.024 330.904 821.365C331.028 821.756 331.149 822.14 331.271 822.514C334.055 831.046 336.358 840.002 337.77 848.873C340.087 863.435 339.362 878.678 338.663 893.37C338.596 894.786 338.529 896.196 338.465 897.6C338.138 904.774 336.683 917.138 335.493 924.214C335.49 924.235 335.485 924.255 335.479 924.275C335.472 924.299 335.463 924.322 335.452 924.345L335.189 924.903C336.454 925.372 337.654 925.988 338.629 926.796C342.3 929.838 344.654 932.398 346.696 936.846C349.608 943.186 351.381 950.454 352.704 957.233C353.523 961.43 354.444 965.61 355.374 969.794C355.45 970.139 355.527 970.485 355.604 970.831C356.457 974.668 357.312 978.511 358.094 982.368C358.679 985.254 359.243 988.143 359.806 991.031C361.359 998.996 362.91 1006.95 364.913 1014.8L365.107 1015.56C367.215 1023.82 369.798 1033.92 374.436 1041.97C378.948 1049.8 385.356 1055.6 395.115 1055.88C394.435 1054.35 393.489 1053.03 392.253 1052.22C391.323 1051.61 390.311 1051.29 389.223 1050.93L389.036 1050.87C387.897 1050.5 386.688 1050.09 385.583 1049.26C383.653 1047.82 382.521 1045.46 381.802 1042.94C381.082 1040.41 380.754 1037.64 380.491 1035.29C378.338 1023.62 376.076 1011.97 373.814 1000.32C370.109 981.237 366.404 962.147 363.174 942.982C360.468 926.926 357.763 911.014 354.321 895.124C353.414 890.938 352.469 886.789 351.527 882.653C349.773 874.952 348.029 867.297 346.561 859.537C346.347 859.502 346.172 859.329 346.145 859.102C345.916 857.18 345.687 855.258 345.457 853.336C344.983 850.491 344.555 847.625 344.185 844.731C344.163 844.555 344.235 844.388 344.363 844.282C340.731 814.486 336.722 784.798 330.724 755.358C330.275 753.154 329.858 751.106 329.468 749.189C327.534 739.687 326.251 733.38 324.895 727.072ZM395.514 1056.89C385.044 1056.75 378.247 1050.58 373.569 1042.47C368.857 1034.29 366.246 1024.06 364.146 1015.83L363.944 1015.05C361.934 1007.17 360.374 999.171 358.819 991.196C358.257 988.314 357.696 985.435 357.114 982.567C356.334 978.721 355.482 974.89 354.629 971.053L354.397 970.011C353.468 965.827 352.544 961.636 351.723 957.425C350.404 950.666 348.649 943.493 345.788 937.263C343.826 932.993 341.587 930.546 337.991 927.566C337.008 926.751 335.731 926.13 334.341 925.665C332.713 925.12 330.961 924.8 329.416 924.628C325.621 924.207 322.281 923.144 318.766 922.024C318.324 921.883 317.879 921.742 317.43 921.601C315.816 921.211 314.288 920.851 312.813 920.504C306.731 919.074 301.56 917.857 295.021 915.601C287.833 913.122 282.916 910.991 276.081 907.516C262.921 900.824 251.287 892.322 240.851 881.886C222.328 863.363 209.048 839.819 201.809 814.695C195.893 794.161 196.547 771.935 200.407 750.91C200.945 747.983 201.544 745.079 202.197 742.205C187.422 742.845 172.624 742.978 157.865 742.69C157.073 742.674 156.281 742.657 155.489 742.64C156.524 755.65 156.967 768.752 156.996 781.793C157.001 784.113 157.025 786.453 157.049 788.806C157.167 800.089 157.287 811.667 155.3 822.74C151.916 841.592 133.877 858.224 114.184 856.406C115.765 880.591 120.501 905.456 127.566 928.15C127.642 928.368 127.717 928.586 127.793 928.804C130.166 935.666 132.459 942.294 138.143 946.716C142.399 950.025 147.169 952.5 151.991 955.001C152.019 955.016 152.048 955.03 152.076 955.045C152.076 954.192 152.075 953.334 152.075 952.483C152.075 952.207 152.299 951.983 152.575 951.983C152.851 951.983 153.075 952.207 153.075 952.483C153.075 953.514 153.076 954.535 153.076 955.564C154.47 956.289 155.865 957.021 157.244 957.78C161.207 959.96 165.2 962.077 169.196 964.197L170.134 964.694C174.442 966.979 178.752 969.272 183.021 971.649C192.409 976.875 198.326 984.954 204.462 993.332C204.821 993.822 205.181 994.313 205.542 994.804C209.155 999.722 212.964 1004.5 216.781 1009.28C217.3 1009.93 217.818 1010.58 218.336 1011.23C222.667 1016.66 226.973 1022.13 230.96 1027.85C235.483 1034.33 239.428 1041.19 243.36 1048.03L243.584 1048.42C247.594 1055.39 251.602 1062.33 256.224 1068.87C262.245 1077.38 265.746 1086.56 269.352 1096.21C271.823 1102.82 274.867 1107.51 279.403 1111.11C281.788 1113 284.598 1114.6 287.976 1116.01C291.292 1116.6 294.492 1116.64 297.684 1116.41C300.562 1116.21 303.404 1115.78 306.323 1115.35C307.845 1115.12 309.387 1114.89 310.966 1114.69C318.762 1113.68 326.409 1111.94 334.092 1110.19C335.623 1109.84 337.156 1109.49 338.691 1109.14C344.196 1107.91 349.631 1106.53 355.023 1105.02C363.255 1102.71 371.386 1100.1 379.509 1097.22C380.925 1096.72 382.396 1096.23 383.877 1095.75C387.266 1094.64 390.712 1093.51 393.692 1092.08C393.907 1091.96 394.083 1091.85 394.228 1091.75C394.229 1091.75 394.231 1091.75 394.233 1091.74C394.299 1091.63 394.406 1091.55 394.525 1091.51C394.773 1091.27 394.888 1091.03 394.96 1090.72C395.028 1090.43 395.055 1090.11 395.091 1089.67C395.107 1089.48 395.125 1089.27 395.148 1089.02C395.15 1085.05 395.497 1081.04 395.843 1077.04C395.898 1076.41 395.953 1075.77 396.006 1075.14C396.397 1070.5 396.712 1065.9 396.42 1061.38C396.329 1059.97 396.039 1058.38 395.514 1056.89ZM393.816 1093.13C393.849 1093.12 393.88 1093.11 393.912 1093.09C393.992 1093.05 394.07 1093.01 394.145 1092.97C394.206 1092.94 394.267 1092.91 394.328 1092.88C394.407 1092.84 394.486 1092.8 394.565 1092.76C394.639 1092.73 394.7 1092.67 394.745 1092.61C396.303 1093.52 397.462 1094.41 398.375 1095.48C399.34 1096.61 400.053 1097.97 400.654 1099.84C401.883 1103.65 402.619 1107.56 403.175 1111.55C405.154 1125.76 406.351 1140.03 407.383 1154.35C407.44 1155.15 407.498 1155.95 407.557 1156.75C408.37 1167.97 409.202 1179.42 408.852 1190.6C408.694 1195.66 406.101 1199.2 401.919 1201.99C395.475 1205.66 387.74 1208.91 379.962 1211.34C379.153 1197.57 377.295 1182.52 374.618 1169.02C372.296 1157.32 370.024 1149.59 367.255 1140.17C366.231 1136.69 365.138 1132.97 363.949 1128.74C362.14 1122.29 359.929 1116.55 357.62 1110.55C357.024 1109 356.421 1107.43 355.818 1105.83C363.895 1103.56 371.874 1100.98 379.843 1098.16C381.207 1097.68 382.647 1097.2 384.111 1096.73C387.415 1095.64 390.844 1094.52 393.816 1093.13ZM354.851 1106.11C349.588 1107.57 344.283 1108.92 338.91 1110.12C337.383 1110.46 335.856 1110.81 334.328 1111.16C326.645 1112.91 318.942 1114.67 311.094 1115.68C309.558 1115.88 308.036 1116.11 306.523 1116.33C303.768 1116.74 301.042 1117.15 298.317 1117.37C304.385 1148.88 317.985 1190.36 333.657 1216.97C343.978 1217.97 354.9 1216.6 365.146 1214.92C369.563 1214.19 374.266 1213.07 378.978 1211.64C378.179 1197.85 376.321 1182.74 373.637 1169.21C371.325 1157.56 369.069 1149.89 366.304 1140.49C365.278 1137 364.181 1133.27 362.986 1129.01C361.192 1122.61 359.002 1116.92 356.696 1110.93C356.087 1109.35 355.471 1107.75 354.851 1106.11ZM332.418 1216.84C316.812 1190.04 303.335 1148.79 297.312 1117.44C294.19 1117.64 291.029 1117.58 287.745 1116.98C287.709 1116.98 287.674 1116.97 287.641 1116.95C284.505 1115.65 281.824 1114.17 279.502 1112.45C279.497 1113.02 279.578 1113.63 279.709 1114.26C279.863 1115 280.077 1115.73 280.288 1116.45C280.351 1116.66 280.413 1116.87 280.473 1117.08C280.718 1117.94 281.048 1118.77 281.399 1119.63C281.455 1119.76 281.511 1119.9 281.568 1120.04C281.864 1120.75 282.167 1121.48 282.425 1122.23C283.796 1126.19 285.429 1130 287.076 1133.84C287.702 1135.3 288.331 1136.76 288.948 1138.24C290.375 1141.67 291.992 1145.02 293.615 1148.38C293.868 1148.9 294.122 1149.43 294.375 1149.95C296.246 1153.84 298.086 1157.76 299.592 1161.82C300.583 1164.5 301.555 1167.17 302.526 1169.85C304.833 1176.2 307.137 1182.54 309.678 1188.8C310.644 1191.18 311.446 1193.66 312.242 1196.13C312.512 1196.96 312.782 1197.8 313.057 1198.63C314.149 1201.91 315.335 1205.12 317.018 1208.05C320.219 1213.63 326.124 1216.04 332.418 1216.84ZM152.076 956.172C151.887 956.073 151.698 955.975 151.509 955.877C146.706 953.386 141.86 950.873 137.529 947.505C131.606 942.898 129.225 936.01 126.881 929.228C126.794 928.975 126.706 928.722 126.619 928.47L126.614 928.455C119.508 905.632 114.75 880.621 113.175 856.297C113.109 856.289 113.044 856.281 112.978 856.272C112.704 856.236 112.511 855.985 112.547 855.712C112.583 855.438 112.834 855.245 113.108 855.28L113.111 855.281C112.829 850.672 112.662 846.089 112.615 841.551C112.24 804.773 114.276 777.029 118.938 740.698C111.358 740.015 103.797 739.128 96.2692 737.983C90.4062 737.091 84.847 736.225 79.3752 735.152C79.2559 736.682 79.1387 738.241 79.0199 739.821C78.2141 750.542 77.3347 762.241 75.2349 772.421C74.4574 776.19 73.7037 779.968 72.9496 783.747C71.4841 791.091 70.0173 798.442 68.3721 805.754C66.4908 814.115 64.1356 822.37 61.7856 830.607C60.7205 834.341 59.6564 838.071 58.638 841.805C55.2052 854.391 51.6014 867.052 47.6326 879.488C44.847 888.216 41.3888 896.635 37.2939 904.825C34.4323 910.548 31.3718 916.546 27.1737 921.531C26.4811 922.354 25.4234 923.566 24.2271 924.574C23.053 925.564 21.6446 926.447 20.2571 926.447C19.218 926.447 18.3064 925.964 17.5267 925.423C17.1481 925.161 16.7842 924.872 16.4442 924.603L16.4063 924.573C16.3303 924.513 16.2556 924.454 16.1821 924.396C16.1644 933.071 15.9191 944.375 15.5302 952.832L15.5298 952.841C13.3114 987.78 12.9292 1014.21 22.1915 1048.26C23.1765 1051.88 24.2725 1055.5 25.3718 1059.14C27.3152 1065.56 29.2689 1072.02 30.6384 1078.56C31.5417 1082.88 32.0009 1086.08 32.2387 1089.26C37.759 1094.27 42.7842 1098.25 49.6549 1101.13C50.8931 1101.65 52.1409 1102.14 53.3972 1102.6L53.4089 1102.41C53.4263 1102.14 53.1216 1102.58 53.3972 1102.6C53.6728 1102.62 53.593 1103.48 54 1102.95H54.3771C64.7675 1106.63 75.7266 1108.38 86.7477 1109.3C98.2271 1110.25 109.756 1110.1 121.277 1109.3C122.92 1109.18 124.562 1109.05 126.205 1108.91L127.292 1107.13C130.86 1097.3 132.642 1086.46 134.371 1075.94C134.718 1073.82 135.063 1071.73 135.42 1069.65C137.35 1058.43 139.064 1047.31 140.171 1036C141.208 1025.39 143.045 1015.43 145.225 1005.02C145.859 1001.99 146.821 999.037 147.772 996.119C147.911 995.691 148.051 995.263 148.189 994.836C149.272 991.487 150.278 988.163 150.736 984.725C151.997 975.27 152.075 965.768 152.076 956.172ZM127.44 1108.81C138.716 1107.83 140.636 1107.52 147.758 1106.35C149.877 1106.01 152.457 1105.58 155.881 1105.05C160.383 1095.82 162.397 1085.5 164.152 1075.31C165.114 1069.74 165.955 1064.14 166.797 1058.54C166.903 1057.83 167.008 1057.13 167.115 1056.42C168.065 1050.12 169.035 1043.8 170.198 1037.52C172.233 1026.52 175.341 1015.82 178.744 1005.2C179.695 1002.23 180.395 999.198 181.099 996.141C181.382 994.916 181.665 993.688 181.965 992.459C182.604 989.848 183.878 987.961 185.322 985.9C183.432 985.614 181.53 985.453 179.602 985.291C178.655 985.211 177.701 985.13 176.738 985.034C168.872 984.248 161.872 986.971 154.653 989.78C153.208 990.342 151.753 990.908 150.282 991.45C149.925 992.69 149.536 993.92 149.14 995.144C149.001 995.574 148.861 996.004 148.721 996.433C147.769 999.356 146.826 1002.25 146.204 1005.22C144.027 1015.62 142.198 1025.54 141.166 1036.1C140.056 1047.44 138.337 1058.59 136.406 1069.82C136.052 1071.88 135.709 1073.97 135.363 1076.07C133.632 1086.61 131.83 1097.58 128.215 1107.52C128.209 1107.53 128.203 1107.55 128.196 1107.56C128.189 1107.58 128.181 1107.59 128.172 1107.6L127.44 1108.81ZM150.613 990.26C151.088 988.487 151.483 986.691 151.728 984.857C152.975 975.501 153.072 966.111 153.076 956.692C154.313 957.337 155.544 957.986 156.763 958.656C160.732 960.839 164.731 962.96 168.726 965.079L169.665 965.577C173.974 967.863 178.275 970.151 182.534 972.522C190.007 976.683 195.236 982.691 200.244 989.315C199.581 988.654 199.068 988.223 198.472 987.918C197.72 987.534 196.862 987.364 195.488 987.092L195.387 987.072C193.998 986.797 192.018 986.405 188.966 985.614C188.157 985.404 187.346 985.232 186.534 985.087C186.527 985.081 186.52 985.076 186.513 985.071C186.378 984.977 186.213 984.958 186.068 985.006C183.942 984.653 181.784 984.471 179.639 984.29C178.701 984.211 177.766 984.132 176.838 984.039C168.71 983.226 161.446 986.057 154.223 988.872C153.02 989.34 151.818 989.809 150.613 990.26ZM155.33 1106.15C152.261 1106.63 149.894 1107.02 147.923 1107.34C140.584 1108.54 138.734 1108.84 126.543 1109.89C124.965 1110.02 123.387 1110.15 121.808 1110.26C121.628 1133.02 119.139 1154.54 114.95 1176.92C112.403 1190.52 111.057 1194.69 107.896 1204.49C107.185 1206.69 106.383 1209.17 105.455 1212.11C111.644 1211.57 117.813 1210.69 124.05 1209.77C128.728 1208.51 131.582 1205.67 133.609 1202.02C135.413 1198.76 136.548 1194.9 137.714 1190.92C137.872 1190.38 138.031 1189.84 138.192 1189.3C141.432 1178.4 143.261 1167.14 145.091 1155.88C145.556 1153.02 146.021 1150.16 146.51 1147.3C147.051 1144.13 147.647 1140.97 148.242 1137.8C149.416 1131.55 150.591 1125.31 151.353 1119.05C151.742 1115.85 152.186 1113.43 153.13 1110.55C153.033 1110.39 153.027 1110.19 153.131 1110.02C153.268 1109.8 153.404 1109.58 153.538 1109.36C153.603 1109.18 153.67 1108.99 153.74 1108.8C153.793 1108.66 153.907 1108.55 154.041 1108.51C154.491 1107.73 154.92 1106.94 155.33 1106.15ZM104.377 1212.21C105.361 1209.08 106.204 1206.47 106.947 1204.17C110.102 1194.39 111.432 1190.27 113.967 1176.73C118.143 1154.43 120.623 1132.99 120.808 1110.33C109.429 1111.1 98.0279 1111.23 86.6652 1110.29C75.6919 1109.38 64.7336 1107.64 54.3124 1103.99C52.8825 1127.01 51.8542 1150.02 52.9191 1173.06C53.4999 1185.63 54.8859 1194.06 57.0653 1206.43C66.8765 1209.75 77.05 1211.76 87.6279 1212.45C93.266 1212.81 98.8295 1212.65 104.377 1212.21ZM55.9844 1206.05C53.8584 1193.97 52.4954 1185.56 51.9201 1173.11C50.8483 1149.91 51.8926 1126.77 53.3322 1103.64C51.9675 1103.14 50.6123 1102.62 49.2679 1102.05C42.5654 1099.24 37.593 1095.41 32.3314 1090.69C32.4814 1093.41 32.4955 1096.23 32.5134 1099.8C32.515 1100.12 32.5167 1100.46 32.5185 1100.8C32.7362 1105 33.0745 1109.2 33.4135 1113.4L33.4309 1113.62C33.7758 1117.9 34.1193 1122.19 34.333 1126.49C34.5951 1131.76 34.4336 1137.03 34.2727 1142.28C34.2297 1143.69 34.1868 1145.09 34.152 1146.49C34.1086 1148.24 34.0595 1149.98 34.0104 1151.72C33.7664 1160.4 33.5231 1169.04 33.988 1177.69C34.0633 1179.09 34.101 1180.47 34.1373 1181.81C34.1627 1182.74 34.1875 1183.65 34.2241 1184.53C34.3141 1186.68 34.4762 1188.69 34.8878 1190.56C35.7027 1194.26 37.4979 1197.43 41.7358 1200.02C46.4012 1202.35 51.1491 1204.36 55.9844 1206.05ZM16.1828 923.143C16.4658 923.345 16.7493 923.569 17.0273 923.789L17.0562 923.812C17.403 924.087 17.7448 924.358 18.0966 924.602C18.8255 925.107 19.5282 925.447 20.2571 925.447C21.2636 925.447 22.4328 924.779 23.5825 923.81C24.71 922.859 25.7224 921.702 26.4088 920.887C30.5193 916.006 33.5318 910.113 36.3995 904.378C40.4723 896.232 43.9107 887.861 46.68 879.184C50.6426 866.768 54.2422 854.122 57.6732 841.542C58.6983 837.783 59.7662 834.04 60.8333 830.3C63.1794 822.077 65.5216 813.868 67.3965 805.534C69.0392 798.234 70.5017 790.904 71.9656 783.567C72.7202 779.786 73.4752 776.002 74.2555 772.219C76.3411 762.108 77.2153 750.483 78.0218 739.757C78.0669 739.157 78.1118 738.56 78.1567 737.966C76.5828 742.09 74.6689 746.915 72.6309 750.255C68.6489 756.781 64.4231 762.636 59.0089 768.072C59.0052 768.082 59.0015 768.091 58.9978 768.101C58.9866 768.129 58.9754 768.158 58.9642 768.186C58.8976 768.352 58.7514 768.463 58.5868 768.493C44.875 782.053 22.0924 795.192 3.77129 801.365C3.59235 805.208 2.9691 807.104 2.36271 808.949L2.3363 809.029C1.721 810.902 1.1281 812.754 1.04646 816.763C0.836215 827.086 1.67739 837.385 3.77686 847.489C4.79811 852.403 5.91851 857.293 7.03904 862.184C9.41313 872.546 11.7878 882.91 13.2211 893.517L13.2638 893.832C13.5338 895.831 13.8035 897.722 14.0638 899.549C15.2042 907.548 16.1642 914.282 16.1828 923.143ZM119.935 740.786C115.274 777.099 113.24 804.804 113.615 841.541C113.662 846.119 113.832 850.744 114.12 855.396C133.261 857.258 150.996 841.056 154.315 822.563C156.285 811.592 156.166 800.128 156.049 788.847C156.025 786.487 156.001 784.134 155.996 781.795C155.967 768.741 155.523 755.63 154.484 742.616C142.96 742.34 131.426 741.794 119.935 740.786ZM203.233 742.159C202.576 745.036 201.972 747.942 201.431 750.872L205.236 755.813C205.237 755.815 205.239 755.817 205.24 755.818C205.832 756.542 206.42 757.266 207.007 757.989C211.241 763.203 215.41 768.337 220.56 772.625C228.482 779.221 237.597 784.415 246.704 789.285C269.446 801.447 295.894 807.973 321.584 810.3C318.212 784.031 314.38 757.156 304.693 732.485L303.721 730.591C284.898 733.682 271.375 735.699 246.909 738.62C232.413 740.352 217.835 741.504 203.233 742.159ZM323.13 811.439C296.832 809.235 269.605 802.666 246.232 790.167C237.119 785.293 227.926 780.059 219.92 773.394C214.69 769.038 210.455 763.823 206.228 758.616C205.64 757.892 205.052 757.168 204.462 756.446L204.452 756.434L201.191 752.198C197.527 772.8 197.014 794.44 202.77 814.418C209.966 839.393 223.164 862.785 241.558 881.178C251.921 891.542 263.47 899.982 276.534 906.624C283.332 910.081 288.207 912.193 295.347 914.656C301.835 916.894 306.95 918.097 313.025 919.527C314.509 919.876 316.05 920.238 317.681 920.632C317.692 920.635 317.703 920.638 317.714 920.642C318.171 920.785 318.622 920.929 319.069 921.071C322.594 922.193 325.836 923.225 329.526 923.635C330.988 923.797 332.646 924.089 334.235 924.58L334.518 923.981C335.701 916.923 337.142 904.657 337.466 897.554C337.53 896.152 337.597 894.746 337.664 893.335C338.363 878.624 339.082 863.485 336.782 849.03C335.38 840.221 333.092 831.316 330.321 822.825C330.193 822.434 330.068 822.039 329.942 821.642C329.196 819.292 328.428 816.874 327.099 814.949C326.123 813.535 324.645 812.491 323.13 811.439Z" fill="black"/>
<path d="M144.407 311.836C151.321 312.839 156.812 315.907 162.813 319.397C157.488 324.564 153.11 330.813 151.558 338.204C150.442 343.517 151.626 348.849 156.149 352.188C160.617 355.486 166.88 355.148 172.04 354.168C179.943 352.667 187.681 349.297 194.775 345.581C210.81 337.178 223.953 324.232 237.849 312.865C243.503 308.24 249.594 304.117 255.89 300.421C259.507 298.297 261.578 296.585 265.033 295.578C268.217 295.323 271.358 295.078 274.55 295.437C278.067 295.833 281.536 296.598 284.951 297.511C289.945 298.846 294.894 300.689 299.472 303.105C303.941 305.463 307.669 308.769 312.501 310.5C317.305 312.221 322.566 312.731 327.585 313.484C339.914 315.336 352.473 315.19 364.841 316.694C369.721 317.288 374.602 318.112 379.23 319.819C383.198 321.284 385.822 323.785 388.71 326.83C379.401 325.279 380.005 326.058 371.308 324.765C362.653 321.667 355.9 325.089 349.474 331.109C333.172 346.383 327.895 368.547 329.842 390.173C331.331 406.725 335.451 426.997 347.916 438.867C354.956 445.57 368.241 451.25 377.878 450.43C368.137 453.532 358.512 452.572 349.099 448.965C341.555 446.074 333.736 443.731 325.708 442.584C322.148 442.075 318.597 441.965 315.081 441.119C310.685 458.877 303.482 475.99 301.021 494.088C298.491 512.698 296.211 532.365 296.666 551.148C297.343 579.128 300.83 607.158 308.23 634.186C323.576 690.234 328.98 709.774 346.908 765.039C328.739 767.903 323.207 770.791 304.907 772.557C273.67 775.572 242.647 777.894 211.247 777.512C174.657 777.067 137.692 777.007 101.349 772.144C89.3015 770.532 77.5679 767.907 65.661 765.688C58.297 764.315 50.9215 763.125 43.5275 761.821C43.5277 744.241 42.017 741.255 43.6776 734.192C47.8843 716.3 53.1331 699.114 55.3169 680.772C57.5289 662.196 60.6561 643.762 63.0891 625.214C65.2548 608.703 65.8654 591.92 67.1816 575.324C68.5303 558.318 69.3544 541.226 71.9125 524.345C72.972 517.353 74.3804 510.466 75.921 503.61C62.7991 500.647 45.0753 493.424 33.6058 486.395C25.502 481.429 18.9077 473.318 19.589 463.374C20.1811 454.73 24.4236 445.934 28.9959 438.761C35.1112 429.166 41.2171 419.543 47.5291 410.076C54.3832 399.797 61.834 389.963 68.0044 379.24C72.2773 371.815 76.5272 364.391 80.5938 356.85C85.0404 348.605 89.3569 340.1 95.2659 332.776C103.424 322.663 113.638 315.061 126.506 312.304C132.406 311.04 138.452 310.972 144.407 311.836Z" fill="white"/>
<path fill-rule="evenodd" clip-rule="evenodd" d="M303.258 482.248C304.959 475.038 307.167 467.931 309.378 460.818C311.409 454.286 313.441 447.747 315.081 441.12C317.367 441.67 319.668 441.909 321.977 442.147C323.219 442.277 324.462 442.406 325.708 442.584C333.736 443.731 341.555 446.074 349.099 448.965C358.512 452.572 368.137 453.532 377.878 450.43C368.241 451.25 354.956 445.57 347.916 438.867C335.451 426.998 331.331 406.725 329.842 390.173C327.895 368.547 333.172 346.383 349.474 331.109C355.9 325.089 362.653 321.667 371.308 324.765C375.343 325.365 377.376 325.519 379.326 325.666C381.579 325.836 383.721 325.998 388.71 326.83C385.822 323.786 383.198 321.284 379.23 319.819C374.602 318.112 369.721 317.288 364.841 316.694C359.246 316.014 353.613 315.671 347.979 315.329C342.557 314.999 337.134 314.669 331.745 314.038C329.143 314.378 326.749 315.162 324.168 316.788C318.558 320.324 313.764 325.458 310.539 331.241C303.254 344.302 298.02 359.504 296.29 374.374C296.138 375.682 295.992 376.859 295.859 377.94C294.986 384.995 294.623 387.925 296.29 396.26C276.464 410.676 251.892 419.065 227.956 423.12C206.363 426.776 184.707 428.318 162.813 428.318C150.739 428.318 138.691 427.662 126.73 425.972C115.61 424.402 107.742 422.667 97.1242 419.128L95.2292 423.288C95.0528 423.641 93.8867 423.747 92.9683 423.831C92.5732 423.867 92.2239 423.899 92.019 423.945C90.5752 424.266 88.9839 423.875 87.4271 423.491C86.3901 423.237 85.3684 422.985 84.4158 422.95C79.5485 422.773 74.0054 420.589 69.8665 418.201C63.0785 414.286 57.0069 410.025 50.962 405.043C50.9568 405.043 50.9517 405.042 50.9466 405.041C49.7969 406.711 48.6549 408.389 47.5291 410.076C41.7376 418.762 36.1196 427.58 30.5085 436.386C30.0043 437.179 29.5002 437.97 28.9959 438.761C24.4236 445.934 20.1811 454.731 19.589 463.374C18.9077 473.318 25.502 481.429 33.6058 486.395C45.0753 493.424 62.7991 500.647 75.921 503.61C75.8417 503.963 75.7628 504.316 75.6842 504.669C87.3306 509.901 99.7675 511.228 112.481 511.562C132.024 512.076 152.185 511.28 171.673 509.704C216.345 506.094 261.041 497.404 303.258 482.248ZM63.7788 619.501C64.8289 610.033 65.4562 600.493 66.0826 590.968C66.4259 585.744 66.7691 580.524 67.1816 575.324C67.4957 571.364 67.7813 567.399 68.067 563.435C68.2451 560.962 68.4233 558.488 68.6083 556.016C68.7443 555.974 68.8814 555.932 69.0192 555.89C79.0854 559.198 88.9935 559.813 99.5844 560.102C119.088 560.633 138.57 560.874 158.082 560.777C185.257 560.642 212.341 559.798 239.332 556.404C258.569 553.985 277.648 550.565 296.608 546.563C296.61 548.097 296.628 549.625 296.666 551.148C297.25 575.299 299.928 599.486 305.409 623.034C293.779 624.579 282.084 625.63 270.383 626.453C233.611 629.037 196.691 629.086 159.846 629.043C138.29 629.018 116.813 627.979 95.3227 626.34C93.787 626.223 92.2226 626.122 90.6409 626.019H90.6402C81.7822 625.447 72.3746 624.838 64.37 621.193C64.0963 620.93 63.9136 620.24 63.7788 619.501ZM44.6842 729.995C45.5022 726.646 46.3458 723.316 47.1874 719.993C50.4658 707.052 53.7155 694.222 55.3169 680.773C55.7386 677.232 56.1935 673.696 56.6705 670.164C56.7925 670.195 56.9169 670.228 57.044 670.262C58.5366 670.806 60.0099 671.391 61.4823 671.977C63.6153 672.825 65.7466 673.673 67.9325 674.391C71.9097 675.697 75.9612 676.503 80.0387 677.313C81.2205 677.549 82.4044 677.784 83.5893 678.032C91.2073 679.628 98.7887 680.762 106.53 681.561C111.452 682.069 116.362 682.656 121.272 683.242C127.777 684.019 134.28 684.795 140.81 685.39C170.791 688.121 200.775 689.168 230.847 687.492C260.023 685.867 288.444 680.687 316.903 674.316C317.668 674.17 318.427 674.036 319.18 673.926C325.665 697.126 330.983 715.14 339.097 740.72C338.818 740.821 338.563 741.02 338.192 741.888C307.256 749.326 275.931 755.195 244.026 755.927C213.117 756.636 181.943 754.097 151.211 750.972C138.167 749.646 125.175 747.96 112.2 746.091C109.049 745.638 105.894 745.227 102.741 744.816L102.737 744.815H102.736C96.5458 744.01 90.3587 743.203 84.2092 742.075L83.7246 741.986L82.9624 741.846H82.9617C76.6175 740.686 70.2603 739.523 64.1031 737.57C57.683 735.534 51.4337 732.978 45.2173 730.4C45.001 730.256 44.8273 730.124 44.6842 729.995Z" fill="#4E6CB2"/>
<path d="M309.378 460.818L308.884 460.664L309.378 460.818ZM303.258 482.248L303.433 482.735C303.597 482.676 303.72 482.538 303.761 482.367L303.258 482.248ZM315.081 441.12L315.203 440.617C314.926 440.551 314.648 440.719 314.579 440.995L315.081 441.12ZM321.977 442.147L321.924 442.662L321.977 442.147ZM349.098 448.965L349.283 448.482L349.098 448.965ZM377.878 450.43L378.035 450.922C378.286 450.842 378.436 450.587 378.385 450.328C378.334 450.07 378.097 449.892 377.834 449.914L377.878 450.43ZM347.916 438.867L348.273 438.493L347.916 438.867ZM329.842 390.173L330.357 390.126L329.842 390.173ZM349.474 331.109L349.827 331.487L349.474 331.109ZM371.308 324.765L371.133 325.252C371.165 325.263 371.198 325.272 371.231 325.277L371.308 324.765ZM379.326 325.666L379.286 326.182L379.326 325.666ZM388.71 326.83L388.625 327.34C388.844 327.376 389.063 327.269 389.167 327.073C389.271 326.876 389.238 326.635 389.085 326.474L388.71 326.83ZM379.229 319.819L379.408 319.334L379.229 319.819ZM364.84 316.694L364.902 316.181L364.84 316.694ZM347.979 315.329L348.01 314.812L347.979 315.329ZM331.745 314.038L331.805 313.524C331.762 313.519 331.72 313.52 331.677 313.525L331.745 314.038ZM324.167 316.788L324.444 317.225L324.167 316.788ZM310.538 331.241L310.086 330.989L310.538 331.241ZM296.29 374.374L295.776 374.314L296.29 374.374ZM295.859 377.94L295.345 377.876L295.859 377.94ZM296.29 396.26L296.594 396.678C296.757 396.559 296.836 396.356 296.797 396.158L296.29 396.26ZM227.956 423.12L227.869 422.61L227.956 423.12ZM126.73 425.972L126.657 426.485L126.73 425.972ZM97.1239 419.128L97.2874 418.638C97.0365 418.554 96.7629 418.673 96.6533 418.914L97.1239 419.128ZM95.2288 423.288L95.6914 423.519C95.6942 423.514 95.697 423.509 95.6996 423.502L95.2288 423.288ZM92.968 423.831L93.015 424.346L92.968 423.831ZM92.0187 423.945L91.9065 423.44L92.0187 423.945ZM87.4268 423.491L87.3032 423.994L87.4268 423.491ZM84.4155 422.95L84.4343 422.433L84.4155 422.95ZM69.8662 418.201L69.6079 418.649L69.8662 418.201ZM50.9617 405.043L51.2906 404.645C51.2185 404.585 51.1318 404.547 51.0396 404.533L50.9617 405.043ZM50.9463 405.041L51.0227 404.53C50.8272 404.5 50.6323 404.585 50.5203 404.749L50.9463 405.041ZM47.5288 410.076L47.0985 409.79L47.5288 410.076ZM30.5082 436.386L30.072 436.109L30.5082 436.386ZM28.9956 438.761L28.5595 438.483L28.9956 438.761ZM19.5887 463.374L19.0727 463.339L19.5887 463.374ZM33.6055 486.395L33.8758 485.955L33.6055 486.395ZM75.9207 503.61L76.4253 503.724C76.4878 503.445 76.313 503.168 76.0346 503.105L75.9207 503.61ZM75.6839 504.669L75.179 504.557C75.1258 504.796 75.2481 505.04 75.4719 505.142L75.6839 504.669ZM112.48 511.562L112.467 512.079L112.48 511.562ZM171.673 509.704L171.715 510.22L171.673 509.704ZM63.7784 619.501L63.2644 619.444C63.2589 619.494 63.2607 619.545 63.2697 619.594L63.7784 619.501ZM66.0822 590.968L65.5661 590.934L66.0822 590.968ZM67.1813 575.324L67.6969 575.364L67.1813 575.324ZM68.0667 563.435L67.5508 563.397L68.0667 563.435ZM68.608 556.016L68.4545 555.522C68.2518 555.585 68.1081 555.766 68.0923 555.978L68.608 556.016ZM69.0189 555.89L69.1804 555.399C69.0792 555.365 68.9703 555.364 68.8684 555.395L69.0189 555.89ZM99.5841 560.102L99.5699 560.619L99.5841 560.102ZM158.081 560.777L158.084 561.294L158.081 560.777ZM239.332 556.404L239.396 556.917L239.332 556.404ZM296.607 546.563H297.125C297.125 546.407 297.054 546.26 296.933 546.162C296.811 546.064 296.653 546.025 296.501 546.057L296.607 546.563ZM296.665 551.148L296.148 551.161L296.665 551.148ZM305.408 623.034L305.476 623.547C305.62 623.527 305.751 623.447 305.833 623.328C305.916 623.208 305.944 623.059 305.912 622.917L305.408 623.034ZM270.383 626.453L270.419 626.969L270.383 626.453ZM159.846 629.043L159.845 629.56L159.846 629.043ZM95.3223 626.34L95.3617 625.825L95.3223 626.34ZM90.6406 626.019L90.6739 625.503C90.6628 625.503 90.6516 625.502 90.6406 625.502V626.019ZM90.6399 626.019L90.6064 626.535C90.6176 626.536 90.6287 626.536 90.6399 626.536V626.019ZM64.3697 621.193L64.0111 621.566C64.0533 621.607 64.1021 621.64 64.1553 621.665L64.3697 621.193ZM44.6839 729.995L44.1814 729.873C44.1361 730.059 44.1969 730.254 44.3394 730.381L44.6839 729.995ZM47.1871 719.993L47.6884 720.12L47.1871 719.993ZM55.3166 680.773L55.8302 680.834L55.3166 680.773ZM56.6702 670.164L56.7984 669.662C56.6553 669.626 56.5035 669.652 56.3811 669.734C56.2588 669.817 56.1775 669.947 56.1577 670.094L56.6702 670.164ZM57.0437 670.262L57.2208 669.776C57.207 669.771 57.1931 669.766 57.1789 669.762L57.0437 670.262ZM61.482 671.977L61.6731 671.497L61.482 671.977ZM67.9322 674.391L68.0935 673.9L67.9322 674.391ZM80.0384 677.313L80.1393 676.807H80.1392L80.0384 677.313ZM83.589 678.032L83.695 677.526L83.589 678.032ZM106.53 681.561L106.583 681.047L106.53 681.561ZM121.272 683.242L121.21 683.755L121.272 683.242ZM140.81 685.39L140.856 684.875L140.81 685.39ZM230.847 687.492L230.818 686.976L230.847 687.492ZM316.902 674.316L316.805 673.808C316.8 673.809 316.795 673.81 316.79 673.811L316.902 674.316ZM319.18 673.926L319.679 673.786C319.608 673.536 319.362 673.376 319.104 673.414L319.18 673.926ZM339.096 740.72L339.271 741.207C339.533 741.113 339.674 740.829 339.589 740.564L339.096 740.72ZM338.191 741.888L338.313 742.39C338.471 742.352 338.603 742.241 338.667 742.091L338.191 741.888ZM244.026 755.927L244.037 756.444L244.026 755.927ZM151.211 750.972L151.158 751.486L151.211 750.972ZM112.2 746.091L112.274 745.58L112.2 746.091ZM102.74 744.816L102.807 744.303H102.805L102.74 744.816ZM102.737 744.815L102.801 744.302H102.797L102.737 744.815ZM102.736 744.815L102.669 745.328L102.675 745.329L102.736 744.815ZM84.2089 742.075L84.3023 741.566H84.3022L84.2089 742.075ZM83.7243 741.986L83.8176 741.477H83.8174L83.7243 741.986ZM82.9621 741.846L83.0552 741.339C83.0475 741.337 83.0395 741.336 83.0316 741.335L82.9621 741.846ZM82.9614 741.846L82.8683 742.355C82.8762 742.356 82.8841 742.358 82.892 742.359L82.9614 741.846ZM64.1028 737.57L64.2591 737.077L64.1028 737.57ZM45.217 730.4L44.9301 730.83C44.9581 730.849 44.9878 730.865 45.0188 730.878L45.217 730.4ZM97.433 419.674C97.4998 419.396 97.3287 419.117 97.051 419.05C96.7733 418.983 96.4941 419.155 96.4274 419.432L97.433 419.674ZM89.8793 446.767L89.3799 446.633L89.8793 446.767ZM81.4114 480.048L80.9071 479.934L81.4114 480.048ZM298.537 433.97C298.279 433.848 297.971 433.959 297.849 434.218C297.728 434.476 297.838 434.783 298.097 434.906L298.537 433.97ZM299.809 435.141L300.029 434.673L299.809 435.141ZM314.96 441.622C315.238 441.689 315.518 441.518 315.585 441.24C315.651 440.963 315.48 440.683 315.203 440.617L314.96 441.622ZM377.721 449.936C377.448 450.023 377.298 450.314 377.385 450.586C377.472 450.859 377.763 451.009 378.035 450.922L377.721 449.936ZM388.576 443.397L388.224 443.019L388.576 443.397ZM394.274 439.193C394.505 439.023 394.554 438.7 394.385 438.47C394.215 438.239 393.892 438.191 393.662 438.359L394.274 439.193ZM407.931 395.86L408.442 395.781C408.405 395.538 408.201 395.356 407.957 395.344L407.931 395.86ZM407.931 411.889L407.436 411.742L407.931 411.889ZM407.068 415.222L407.57 415.344L407.068 415.222ZM404.517 423.213L404.972 423.46L404.517 423.213ZM389.573 442.139C389.349 442.316 389.31 442.641 389.487 442.865C389.663 443.089 389.988 443.129 390.213 442.953L389.573 442.139ZM329.893 389.658C329.609 389.63 329.355 389.837 329.327 390.121C329.299 390.405 329.505 390.659 329.79 390.687L329.893 389.658ZM366.042 393.792L365.99 394.307C366 394.308 366.008 394.308 366.016 394.309L366.042 393.792ZM78.7644 491.392L78.2611 491.273L78.7644 491.392ZM75.4162 503.497C75.3535 503.776 75.5287 504.052 75.8074 504.115C76.086 504.177 76.3627 504.002 76.4253 503.724L75.4162 503.497ZM68.7917 555.269C68.5209 555.178 68.2278 555.324 68.137 555.595C68.0461 555.866 68.1919 556.159 68.4628 556.25L68.7917 555.269ZM68.8081 555.82L68.645 556.311L68.8081 555.82ZM68.9495 555.867L68.7875 556.358H68.788L68.9495 555.867ZM69.0189 555.89L68.8573 556.381C68.9585 556.414 69.0675 556.415 69.1694 556.384L69.0189 555.89ZM63.8521 620.379C63.5952 620.254 63.2858 620.362 63.1612 620.619C63.0365 620.876 63.1439 621.185 63.4009 621.31L63.8521 620.379ZM64.3697 621.193L64.7283 620.821C64.6861 620.78 64.6373 620.747 64.5841 620.723L64.3697 621.193ZM69.7007 556.222C69.9735 556.137 70.1257 555.847 70.0409 555.574C69.9561 555.301 69.6662 555.149 69.3935 555.234L69.7007 556.222ZM69.0728 555.873L68.9223 555.379L69.0728 555.873ZM64.247 621.735C64.5025 621.862 64.8132 621.759 64.9409 621.503C65.0686 621.248 64.9651 620.938 64.7096 620.809L64.247 621.735ZM308.884 460.664C306.674 467.775 304.46 474.899 302.754 482.13L303.761 482.367C305.457 475.177 307.66 468.087 309.871 460.971L308.884 460.664ZM314.579 440.995C312.942 447.607 310.915 454.13 308.884 460.664L309.871 460.971C311.902 454.441 313.938 447.889 315.584 441.244L314.579 440.995ZM322.031 441.633C319.717 441.394 317.45 441.158 315.203 440.617L314.96 441.622C317.285 442.182 319.621 442.424 321.924 442.662L322.031 441.633ZM325.78 442.072C324.524 441.892 323.271 441.763 322.031 441.633L321.924 442.662C323.167 442.791 324.401 442.919 325.634 443.096L325.78 442.072ZM349.283 448.482C341.717 445.583 333.859 443.226 325.78 442.072L325.634 443.096C333.613 444.235 341.393 446.565 348.913 449.448L349.283 448.482ZM377.721 449.936C368.114 452.996 358.611 452.057 349.283 448.482L348.913 449.448C358.411 453.088 368.159 454.068 378.035 450.922L377.721 449.936ZM347.559 439.242C351.137 442.648 356.278 445.776 361.731 447.95C367.182 450.123 372.996 451.363 377.922 450.945L377.834 449.914C373.124 450.315 367.477 449.127 362.115 446.989C356.756 444.853 351.735 441.79 348.273 438.493L347.559 439.242ZM329.327 390.219C330.817 406.776 334.944 427.228 347.559 439.242L348.273 438.493C335.958 426.767 331.846 406.673 330.357 390.126L329.327 390.219ZM349.121 330.732C332.668 346.147 327.371 368.489 329.327 390.219L330.357 390.126C328.419 368.605 333.677 346.619 349.827 331.487L349.121 330.732ZM371.481 324.278C367.046 322.691 363.074 322.769 359.387 324.028C355.717 325.283 352.359 327.698 349.121 330.732L349.827 331.487C353.015 328.5 356.247 326.194 359.723 325.007C363.182 323.825 366.914 323.742 371.133 325.252L371.481 324.278ZM379.365 325.151C377.423 325.004 375.403 324.851 371.383 324.254L371.231 325.277C375.284 325.879 377.329 326.034 379.286 326.182L379.365 325.151ZM388.795 326.32C383.787 325.485 381.629 325.322 379.365 325.151L379.286 326.182C381.529 326.351 383.654 326.512 388.625 327.34L388.795 326.32ZM379.051 320.304C382.899 321.724 385.453 324.148 388.334 327.186L389.085 326.474C386.19 323.423 383.497 320.843 379.408 319.334L379.051 320.304ZM364.777 317.207C369.647 317.8 374.48 318.618 379.051 320.304L379.408 319.334C374.724 317.606 369.796 316.776 364.902 316.181L364.777 317.207ZM347.948 315.845C353.584 316.188 359.201 316.53 364.777 317.207L364.902 316.181C359.29 315.498 353.642 315.155 348.01 314.812L347.948 315.845ZM331.685 314.551C337.09 315.184 342.527 315.515 347.948 315.845L348.01 314.812C342.585 314.482 337.177 314.153 331.805 313.524L331.685 314.551ZM331.677 313.525C329.005 313.874 326.539 314.682 323.892 316.351L324.444 317.225C326.958 315.641 329.28 314.881 331.812 314.551L331.677 313.525ZM323.892 316.351C318.206 319.934 313.353 325.133 310.086 330.989L310.99 331.493C314.174 325.783 318.908 320.714 324.444 317.225L323.892 316.351ZM310.086 330.989C302.773 344.103 297.515 359.37 295.776 374.314L296.803 374.434C298.524 359.638 303.736 344.5 310.99 331.493L310.086 330.989ZM295.776 374.314C295.624 375.62 295.479 376.796 295.345 377.876L296.372 378.003C296.505 376.923 296.651 375.744 296.803 374.434L295.776 374.314ZM295.345 377.876C294.909 381.396 294.596 383.927 294.604 386.622C294.613 389.323 294.945 392.175 295.782 396.361L296.797 396.158C295.967 392.01 295.647 389.229 295.638 386.618C295.63 384.001 295.934 381.538 296.372 378.003L295.345 377.876ZM295.986 395.841C276.243 410.197 251.753 418.563 227.869 422.61L228.042 423.63C252.029 419.565 276.685 411.155 296.594 396.678L295.986 395.841ZM227.869 422.61C206.309 426.261 184.683 427.801 162.812 427.801V428.835C184.731 428.835 206.416 427.292 228.042 423.63L227.869 422.61ZM162.812 427.801C150.758 427.801 138.734 427.146 126.802 425.46L126.657 426.485C138.647 428.178 150.72 428.835 162.812 428.835V427.801ZM126.802 425.46C115.709 423.893 107.872 422.165 97.2874 418.638L96.9604 419.618C107.611 423.168 115.511 424.91 126.657 426.485L126.802 425.46ZM96.6533 418.914L94.7582 423.074L95.6996 423.502L97.5945 419.342L96.6533 418.914ZM94.7663 423.057C94.811 422.968 94.8601 422.98 94.734 423.032C94.6326 423.073 94.4807 423.115 94.2803 423.153C93.8813 423.228 93.3869 423.274 92.9209 423.316L93.015 424.346C93.4675 424.305 94.0154 424.255 94.4731 424.168C94.701 424.125 94.9312 424.069 95.1267 423.988C95.2975 423.918 95.5586 423.785 95.6914 423.519L94.7663 423.057ZM92.9209 423.316C92.5438 423.351 92.1522 423.385 91.9065 423.44L92.1308 424.45C92.295 424.413 92.602 424.384 93.015 424.346L92.9209 423.316ZM91.9065 423.44C90.6036 423.73 89.138 423.38 87.5503 422.989L87.3032 423.994C88.8292 424.369 90.5464 424.802 92.1308 424.45L91.9065 423.44ZM87.5503 422.989C86.5262 422.737 85.4503 422.47 84.4343 422.433L84.3967 423.467C85.286 423.499 86.2534 423.735 87.3032 423.994L87.5503 422.989ZM84.4343 422.433C79.6846 422.26 74.2262 420.12 70.1247 417.754L69.6079 418.649C73.784 421.059 79.4118 423.286 84.3967 423.467L84.4343 422.433ZM70.1247 417.754C63.3631 413.853 57.3149 409.609 51.2906 404.645L50.6327 405.443C56.6982 410.441 62.7934 414.719 69.6079 418.649L70.1247 417.754ZM51.0396 404.533C51.034 404.531 51.0283 404.531 51.0227 404.53L50.8699 405.553C50.8745 405.553 50.8791 405.554 50.8837 405.555L51.0396 404.533ZM47.959 410.364C49.083 408.678 50.2235 407.004 51.3723 405.335L50.5203 404.749C49.3696 406.42 48.2262 408.099 47.0985 409.79L47.959 410.364ZM30.9444 436.665C36.5559 427.857 42.1711 419.044 47.959 410.364L47.0985 409.79C41.3035 418.481 35.6826 427.303 30.072 436.109L30.9444 436.665ZM29.4318 439.039C29.936 438.247 30.4402 437.456 30.9444 436.665L30.072 436.109C29.5678 436.9 29.0637 437.691 28.5595 438.483L29.4318 439.039ZM20.1046 463.409C20.6879 454.894 24.8755 446.187 29.4318 439.039L28.5595 438.483C23.9711 445.682 19.6737 454.566 19.0727 463.339L20.1046 463.409ZM33.8758 485.955C25.8551 481.039 19.442 473.082 20.1046 463.409L19.0727 463.339C18.3729 473.553 25.1483 481.819 33.3352 486.836L33.8758 485.955ZM76.0346 503.105C62.9683 500.156 45.2974 492.953 33.8758 485.955L33.3352 486.836C44.8526 493.894 62.6291 501.14 75.8068 504.115L76.0346 503.105ZM76.1886 504.782C76.2671 504.429 76.346 504.076 76.4253 503.724L75.4162 503.497C75.3368 503.85 75.2577 504.204 75.179 504.557L76.1886 504.782ZM75.4719 505.142C87.213 510.415 99.7324 511.744 112.467 512.079L112.494 511.045C99.8019 510.711 87.4476 509.386 75.8957 504.197L75.4719 505.142ZM112.467 512.079C132.032 512.594 152.213 511.796 171.715 510.22L171.631 509.189C152.157 510.763 132.014 511.559 112.494 511.045L112.467 512.079ZM171.715 510.22C216.423 506.606 261.166 497.909 303.433 482.735L303.083 481.762C260.916 496.901 216.265 505.581 171.631 509.189L171.715 510.22ZM64.2924 619.558C65.3441 610.076 65.972 600.525 66.5983 591.001L65.5661 590.934C64.9397 600.461 64.3131 609.989 63.2644 619.444L64.2924 619.558ZM66.5983 591.001C66.9417 585.778 67.2847 580.562 67.6969 575.364L66.6658 575.283C66.253 580.488 65.9096 585.711 65.5661 590.934L66.5983 591.001ZM67.6969 575.364C68.0111 571.403 68.2968 567.437 68.5825 563.472L67.5508 563.397C67.2652 567.363 66.9797 571.325 66.6658 575.283L67.6969 575.364ZM68.5825 563.472C68.7606 560.998 68.9387 558.526 69.1237 556.054L68.0923 555.978C67.9072 558.45 67.729 560.925 67.5508 563.397L68.5825 563.472ZM68.7616 556.509C68.8959 556.468 69.0317 556.426 69.1694 556.384L68.8684 555.395C68.7306 555.437 68.5921 555.479 68.4545 555.522L68.7616 556.509ZM68.8575 556.381C79.0001 559.714 88.9732 560.329 99.5699 560.619L99.5981 559.585C89.0132 559.296 79.1699 558.681 69.1804 555.399L68.8575 556.381ZM99.5699 560.619C119.078 561.15 138.566 561.391 158.084 561.294L158.078 560.26C138.572 560.357 119.096 560.116 99.5981 559.585L99.5699 560.619ZM158.084 561.294C185.266 561.159 212.375 560.314 239.396 556.917L239.267 555.891C212.307 559.281 185.246 560.124 158.078 560.26L158.084 561.294ZM239.396 556.917C258.652 554.496 277.745 551.073 296.714 547.07L296.501 546.057C277.55 550.057 258.487 553.474 239.267 555.891L239.396 556.917ZM296.09 546.564C296.092 548.102 296.111 549.634 296.148 551.161L297.183 551.136C297.145 549.617 297.127 548.093 297.125 546.563L296.09 546.564ZM296.148 551.161C296.734 575.34 299.415 599.564 304.905 623.151L305.912 622.917C300.441 599.408 297.766 575.257 297.183 551.136L296.148 551.161ZM305.34 622.521C293.725 624.064 282.04 625.115 270.347 625.937L270.419 626.969C282.126 626.146 293.832 625.093 305.476 623.547L305.34 622.521ZM270.347 625.937C233.595 628.519 196.693 628.569 159.846 628.526L159.845 629.56C196.688 629.604 233.625 629.554 270.419 626.969L270.347 625.937ZM159.846 628.526C138.307 628.501 116.843 627.463 95.3617 625.825L95.283 626.856C116.783 628.495 138.274 629.535 159.845 629.56L159.846 628.526ZM95.3617 625.825C93.8225 625.707 92.2552 625.606 90.6739 625.503L90.6072 626.535C92.1896 626.638 93.7508 626.739 95.283 626.856L95.3617 625.825ZM90.6406 625.502H90.6399V626.536H90.6406V625.502ZM90.6733 625.503C81.7945 624.929 72.4868 624.321 64.5841 620.723L64.1553 621.665C72.2619 625.355 81.7693 625.964 90.6064 626.535L90.6733 625.503ZM64.7283 620.821C64.6899 620.784 64.6071 620.653 64.5138 620.366C64.4275 620.1 64.3529 619.768 64.2871 619.408L63.2697 619.594C63.3388 619.972 63.423 620.355 63.5301 620.685C63.6303 620.993 63.7758 621.34 64.0111 621.566L64.7283 620.821ZM45.1863 730.118C46.0037 726.771 46.8467 723.443 47.6884 720.12L46.6858 719.866C45.8443 723.189 45.0001 726.521 44.1814 729.873L45.1863 730.118ZM47.6884 720.12C50.9655 707.183 54.2241 694.323 55.8302 680.834L54.8031 680.712C53.2063 694.123 49.9655 706.919 46.6858 719.866L47.6884 720.12ZM55.8302 680.834C56.2514 677.296 56.706 673.762 57.1827 670.233L56.1577 670.094C55.6804 673.629 55.2252 677.168 54.8031 680.712L55.8302 680.834ZM57.1789 669.762C57.0496 669.727 56.9228 669.694 56.7984 669.662L56.5421 670.664C56.6614 670.695 56.7836 670.727 56.9086 670.76L57.1789 669.762ZM61.6731 671.497C60.2018 670.911 58.7216 670.323 57.2208 669.776L56.8666 670.748C58.351 671.289 59.8173 671.871 61.2908 672.457L61.6731 671.497ZM68.0935 673.9C65.9252 673.187 63.8085 672.346 61.6731 671.497L61.2908 672.457C63.4214 673.305 65.5674 674.158 67.7708 674.882L68.0935 673.9ZM80.1392 676.807C76.0568 675.995 72.0361 675.195 68.0935 673.9L67.7708 674.882C71.7827 676.2 75.865 677.012 79.9375 677.821L80.1392 676.807ZM83.695 677.526C82.5071 677.277 81.3206 677.042 80.1393 676.807L79.9375 677.821C81.1196 678.056 82.301 678.291 83.483 678.539L83.695 677.526ZM106.583 681.047C98.8571 680.249 91.2934 679.118 83.695 677.526L83.483 678.539C91.1204 680.138 98.7197 681.274 106.477 682.076L106.583 681.047ZM121.333 682.728C116.424 682.142 111.509 681.555 106.583 681.047L106.477 682.076C111.393 682.583 116.3 683.169 121.21 683.755L121.333 682.728ZM140.856 684.875C134.336 684.281 127.838 683.506 121.333 682.728L121.21 683.755C127.713 684.532 134.225 685.309 140.763 685.905L140.856 684.875ZM230.818 686.976C200.776 688.649 170.819 687.604 140.856 684.875L140.763 685.905C170.763 688.637 200.772 689.686 230.874 688.008L230.818 686.976ZM316.79 673.811C288.342 680.179 259.954 685.353 230.818 686.976L230.874 688.008C260.093 686.381 288.544 681.193 317.015 674.82L316.79 673.811ZM319.104 673.414C318.342 673.527 317.576 673.661 316.805 673.808L317 674.824C317.761 674.679 318.512 674.546 319.256 674.437L319.104 673.414ZM318.683 674.064C325.169 697.271 330.487 715.29 338.603 740.876L339.589 740.564C331.477 714.99 326.162 696.981 319.679 673.786L318.683 674.064ZM338.667 742.091C338.845 741.676 338.977 741.464 339.073 741.351C339.153 741.256 339.207 741.23 339.271 741.207L338.922 740.233C338.706 740.311 338.493 740.435 338.284 740.682C338.09 740.911 337.91 741.231 337.717 741.684L338.667 742.091ZM244.037 756.444C275.996 755.711 307.362 749.833 338.313 742.39L338.07 741.384C307.149 748.82 275.866 754.68 244.013 755.41L244.037 756.444ZM151.158 751.486C181.894 754.612 213.095 757.154 244.037 756.444L244.013 755.41C213.138 756.118 181.99 753.582 151.262 750.457L151.158 751.486ZM112.126 746.603C125.106 748.473 138.105 750.16 151.158 751.486L151.262 750.457C138.228 749.133 125.244 747.448 112.274 745.58L112.126 746.603ZM102.674 745.329C105.828 745.74 108.979 746.15 112.126 746.603L112.274 745.58C109.118 745.126 105.96 744.714 102.807 744.303L102.674 745.329ZM102.673 745.329H102.676L102.805 744.303L102.801 744.302L102.673 745.329ZM102.675 745.329H102.676L102.797 744.302H102.796L102.675 745.329ZM84.1155 742.584C90.2805 743.715 96.4809 744.523 102.669 745.328L102.803 744.303C96.6101 743.497 90.4364 742.692 84.3023 741.566L84.1155 742.584ZM83.631 742.495L84.1156 742.584L84.3022 741.566L83.8176 741.477L83.631 742.495ZM82.8691 742.355L83.6312 742.495L83.8174 741.477L83.0552 741.339L82.8691 742.355ZM82.892 742.359H82.8926L83.0316 741.335H83.0309L82.892 742.359ZM63.9464 738.064C70.14 740.027 76.5295 741.196 82.8683 742.355L83.0545 741.338C76.7048 740.176 70.3801 739.018 64.2591 737.077L63.9464 738.064ZM45.0188 730.878C51.2339 733.456 57.5024 736.02 63.9464 738.064L64.2591 737.077C57.863 735.049 51.6327 732.501 45.4151 729.923L45.0188 730.878ZM44.3394 730.381C44.5049 730.529 44.6991 730.677 44.9301 730.83L45.5038 729.97C45.3023 729.836 45.1489 729.718 45.0283 729.611L44.3394 730.381ZM96.4274 419.432C94.2397 428.537 91.8108 437.582 89.3799 446.633L90.3788 446.901C92.8091 437.852 95.2417 428.795 97.433 419.674L96.4274 419.432ZM89.3799 446.633C86.4109 457.688 83.439 468.753 80.9071 479.934L81.9158 480.163C84.4424 469.005 87.409 457.959 90.3788 446.901L89.3799 446.633ZM298.097 434.906C298.593 435.138 299.09 435.373 299.587 435.609L300.029 434.673C299.532 434.438 299.035 434.203 298.537 433.97L298.097 434.906ZM299.587 435.609C304.528 437.943 309.559 440.322 314.96 441.622L315.203 440.617C309.921 439.346 304.986 437.016 300.029 434.673L299.587 435.609ZM378.035 450.922C382.973 449.349 385.841 446.661 388.93 443.774L388.224 443.019C385.134 445.906 382.415 448.442 377.721 449.936L378.035 450.922ZM388.93 443.774C390.54 442.27 392.207 440.712 394.274 439.193L393.662 438.359C391.539 439.92 389.83 441.518 388.224 443.019L388.93 443.774ZM407.42 395.94C407.662 397.489 408.022 400.251 408.141 403.23C408.261 406.22 408.136 409.376 407.436 411.742L408.427 412.036C409.178 409.502 409.297 406.206 409.176 403.188C409.054 400.158 408.687 397.355 408.442 395.781L407.42 395.94ZM407.436 411.742C407.148 412.711 406.864 413.879 406.566 415.099L407.57 415.344C407.87 414.117 408.148 412.976 408.427 412.036L407.436 411.742ZM406.566 415.099C405.874 417.929 405.114 421.028 404.063 422.967L404.972 423.46C406.102 421.376 406.892 418.123 407.57 415.344L406.566 415.099ZM404.063 422.967C400.134 430.213 396.011 437.082 389.573 442.139L390.213 442.953C396.832 437.752 401.04 430.711 404.972 423.46L404.063 422.967ZM329.79 390.687L365.99 394.307L366.094 393.278L329.893 389.658L329.79 390.687ZM366.016 394.309L407.905 396.377L407.957 395.344L366.068 393.276L366.016 394.309ZM80.9071 479.934C80.0485 483.725 79.1547 487.501 78.2611 491.273L79.2676 491.512C80.1609 487.739 81.0559 483.96 81.9158 480.163L80.9071 479.934ZM78.2611 491.273C77.297 495.345 76.3332 499.416 75.4162 503.497L76.4253 503.724C77.3408 499.649 78.3032 495.584 79.2676 491.512L78.2611 491.273ZM68.4628 556.25C68.5236 556.27 68.5843 556.291 68.645 556.311L68.9713 555.329C68.9114 555.31 68.8515 555.29 68.7917 555.269L68.4628 556.25ZM68.645 556.311C68.6925 556.326 68.74 556.343 68.7875 556.358L69.1117 555.376C69.065 555.36 69.0181 555.345 68.9713 555.329L68.645 556.311ZM68.788 556.358L68.8573 556.381L69.1806 555.399L69.1112 555.376L68.788 556.358ZM63.4009 621.31C63.651 621.431 63.9026 621.549 64.1553 621.665L64.5841 620.723C64.3386 620.611 64.0946 620.497 63.8521 620.379L63.4009 621.31ZM69.3935 555.234C69.2367 555.283 69.08 555.331 68.9223 555.379L69.2232 556.369C69.3803 556.32 69.5402 556.271 69.7007 556.222L69.3935 555.234ZM68.9223 555.379L68.8684 555.395L69.1694 556.384L69.2233 556.369L68.9223 555.379ZM64.0111 621.566C64.0761 621.628 64.1543 621.688 64.247 621.735L64.7096 620.809C64.7269 620.819 64.7327 620.825 64.7283 620.821L64.0111 621.566Z" fill="#4E6CB2"/>
<path d="M335.151 391.52C333.221 391.306 331.182 390.498 329.308 390.027C329.24 389.732 328.687 388.722 328.571 389.249C328.445 389.809 328.699 390.318 328.73 390.854C328.813 392.299 329.406 393.603 329.406 395.077C329.406 396.421 329.575 397.764 329.575 399.122C329.575 401.554 329.417 404.037 329.744 406.452C330.343 410.871 331.034 415.18 332.288 419.487C332.936 421.716 334.061 423.915 335.319 425.859C336.494 427.675 337.491 429.625 338.867 431.303C341.269 434.229 344.256 436.493 347.221 438.829C348.485 439.825 349.472 441.129 350.694 442.17C351.797 443.109 352.914 443.744 354.243 444.32C356.219 445.175 358.402 445.692 360.326 446.6C361.032 446.933 361.874 447.141 362.625 447.37C363.764 447.716 364.792 448.294 365.939 448.627C368.372 449.333 370.76 450.046 373.26 450.448C375.165 450.73 377.646 450.755 379.488 449.634C381.376 448.485 383.374 447.349 385.125 445.999C386.394 445.021 387.555 443.948 388.797 442.913C390.614 440.526 392.679 439.549 394.486 437.742C396.877 434.359 399.14 432.054 401.726 428.435C403.461 425.002 404.509 422.22 405.863 418.611C406.781 416.162 407.536 413.941 407.931 411.372C408.344 408.688 408.449 406.201 408.449 402.582C407.951 400.798 407.856 398.145 407.456 396.344C407.312 395.697 405.555 395.825 405.015 395.762C403.086 395.535 400.998 395.457 399.054 395.415C397.253 395.375 395.458 394.908 393.648 394.908C390.888 394.908 388.135 394.605 385.369 394.57C383.745 394.55 382.129 394.232 380.507 394.232C378.659 394.232 376.83 394.231 374.987 394.101C371.105 393.826 367.226 393.662 363.348 393.303C356.192 392.641 348.926 392.036 341.739 392.036C340.45 392.036 339.057 392.188 337.779 391.999C336.895 391.868 336.033 391.618 335.151 391.52Z" fill="#4E6CB2"/>
<path d="M329.237 390.009C331.131 390.478 333.196 391.303 335.151 391.52C336.033 391.618 336.895 391.868 337.779 391.999C339.057 392.188 340.45 392.036 341.739 392.036C348.926 392.036 356.192 392.641 363.348 393.303C367.226 393.662 371.105 393.826 374.987 394.101C376.83 394.231 378.659 394.232 380.507 394.232C382.129 394.232 383.745 394.55 385.369 394.57C388.135 394.605 390.888 394.908 393.648 394.908C395.458 394.908 397.253 395.375 399.054 395.415C400.998 395.457 403.086 395.535 405.015 395.762C405.555 395.825 407.312 395.697 407.456 396.344C407.856 398.145 407.951 400.798 408.449 402.582C408.449 406.201 408.344 408.688 407.931 411.372C407.536 413.941 406.781 416.162 405.863 418.611C404.509 422.22 403.461 425.002 401.726 428.435C399.14 432.054 396.877 434.359 394.486 437.742C392.679 439.549 390.614 440.526 388.797 442.913C387.555 443.948 386.394 445.021 385.125 445.999C383.374 447.349 381.376 448.485 379.488 449.634C377.646 450.755 375.165 450.73 373.26 450.448C370.76 450.046 368.372 449.333 365.939 448.627C364.792 448.294 363.764 447.716 362.625 447.37C361.874 447.141 361.032 446.933 360.326 446.6C358.402 445.692 356.219 445.175 354.243 444.32C352.914 443.744 351.797 443.109 350.694 442.17C349.472 441.129 348.485 439.825 347.221 438.829C344.256 436.493 341.269 434.229 338.867 431.303C337.491 429.625 336.494 427.675 335.319 425.859C334.061 423.915 332.936 421.716 332.288 419.487C331.034 415.18 330.343 410.871 329.744 406.452C329.417 404.037 329.575 401.554 329.575 399.122C329.575 397.764 329.406 396.421 329.406 395.077C329.406 393.603 328.813 392.299 328.73 390.854C328.699 390.318 328.445 389.809 328.571 389.249C328.72 388.578 329.575 390.4 329.237 390.062" stroke="#4E6CB2" stroke-linecap="round" stroke-linejoin="round"/>
<path fill-rule="evenodd" clip-rule="evenodd" d="M264.991 295.063C268.169 294.809 271.359 294.557 274.608 294.924C278.158 295.324 281.655 296.095 285.084 297.012C290.109 298.355 295.096 300.211 299.713 302.648C301.452 303.565 303.086 304.629 304.692 305.674C305.173 305.986 305.651 306.297 306.128 306.602C308.215 307.935 310.315 309.168 312.674 310.013C316.564 311.407 320.75 311.994 324.92 312.58C325.837 312.708 326.751 312.836 327.661 312.973C333.801 313.895 340.002 314.321 346.23 314.704C346.824 314.74 347.417 314.776 348.012 314.813C353.643 315.155 359.292 315.499 364.902 316.181C369.795 316.776 374.724 317.606 379.408 319.334C383.497 320.843 386.19 323.423 389.085 326.474C389.238 326.635 389.271 326.876 389.167 327.073C389.062 327.269 388.844 327.376 388.625 327.34C383.987 326.567 381.826 326.376 379.74 326.216C379.589 326.204 379.438 326.193 379.287 326.182C377.331 326.034 375.284 325.879 371.231 325.277C371.198 325.272 371.165 325.263 371.133 325.252C366.914 323.742 363.182 323.825 359.722 325.007C356.247 326.194 353.015 328.5 349.827 331.487C333.783 346.519 328.489 368.315 330.319 389.701L366.08 393.276L407.957 395.344C408.202 395.356 408.405 395.539 408.442 395.781C408.687 397.355 409.053 400.158 409.175 403.188C409.296 406.206 409.179 409.502 408.428 412.036C408.146 412.982 407.871 414.112 407.575 415.324C407.382 416.115 407.18 416.942 406.963 417.776C406.422 419.853 405.788 421.954 404.972 423.46C401.04 430.711 396.832 437.752 390.213 442.953C390.069 443.066 389.885 443.091 389.723 443.035C389.466 443.274 389.211 443.512 388.957 443.749C388.211 444.447 387.477 445.134 386.716 445.803C384.343 447.889 381.788 449.726 378.035 450.922C368.159 454.068 358.411 453.088 348.914 449.448C341.393 446.565 333.613 444.235 325.634 443.096C324.4 442.919 323.172 442.792 321.935 442.663C321.398 442.608 320.862 442.552 320.321 442.492C318.707 442.313 317.083 442.098 315.461 441.738C313.838 448.213 311.85 454.609 309.868 460.983C309.179 463.199 308.491 465.413 307.82 467.626C305.163 476.381 302.757 485.151 301.533 494.157C299.004 512.766 296.728 532.397 297.182 551.136C297.859 579.082 301.341 607.069 308.728 634.049C324.073 690.093 329.476 709.625 347.4 764.88C347.446 765.024 347.428 765.181 347.348 765.31C347.269 765.439 347.137 765.527 346.988 765.55C339.424 766.743 334.06 767.938 329.035 769.058C328.037 769.28 327.053 769.5 326.067 769.715C320.113 771.019 314.132 772.186 304.956 773.072C273.713 776.087 242.669 778.412 211.24 778.029C208.495 777.996 205.748 777.965 202.998 777.934C169.111 777.548 134.93 777.159 101.28 772.657C92.7138 771.511 84.2978 769.851 75.884 768.193C72.4476 767.515 69.0117 766.838 65.5659 766.196C60.9805 765.342 56.396 764.559 51.8008 763.774C49.0177 763.299 46.2307 762.823 43.4373 762.33C43.1902 762.287 43.01 762.072 43.01 761.821C43.0101 754.784 42.7679 750.096 42.5841 746.536C42.5385 745.656 42.4967 744.845 42.4629 744.085C42.292 740.237 42.328 737.672 43.1738 734.073C44.3002 729.283 45.499 724.55 46.6928 719.837C49.9685 706.907 53.206 694.125 54.8032 680.712C56.0602 670.154 57.6159 659.622 59.1705 649.097C60.3499 641.112 61.5287 633.131 62.5761 625.147C64.0608 613.827 64.8128 602.391 65.5647 590.955C65.9085 585.726 66.2522 580.499 66.6658 575.283C66.9792 571.332 67.2643 567.373 67.5498 563.411C68.4912 550.342 69.435 537.239 71.4009 524.268C72.4371 517.43 73.8056 510.696 75.3034 503.999C62.1794 500.955 44.7067 493.805 33.3352 486.836C25.1483 481.819 18.3729 473.554 19.0727 463.339C19.6737 454.566 23.9711 445.682 28.5596 438.483C29.0639 437.691 29.5682 436.9 30.0726 436.108C35.683 427.303 41.3039 418.481 47.0985 409.79C49.3254 406.45 51.6091 403.165 53.8883 399.887C58.6488 393.041 63.3903 386.222 67.5559 378.983C71.8288 371.557 76.0754 364.139 80.1383 356.605C80.6171 355.717 81.0948 354.825 81.5735 353.932C85.5304 346.546 89.5584 339.027 94.863 332.451C103.074 322.273 113.384 314.587 126.397 311.798C132.366 310.52 138.473 310.453 144.48 311.324C151.505 312.343 157.076 315.463 163.073 318.95C163.212 319.031 163.306 319.174 163.326 319.334C163.346 319.495 163.289 319.655 163.172 319.768C157.891 324.893 153.587 331.055 152.064 338.311C150.977 343.487 152.14 348.587 156.455 351.772C160.732 354.929 166.794 354.638 171.943 353.66C179.773 352.173 187.46 348.83 194.534 345.123C206.656 338.771 217.105 329.822 227.534 320.89C230.847 318.052 234.159 315.216 237.522 312.465C243.199 307.82 249.313 303.682 255.628 299.975C256.544 299.437 257.369 298.92 258.149 298.43C260.389 297.024 262.264 295.847 264.887 295.082C264.921 295.072 264.956 295.066 264.991 295.063ZM75.5302 502.991C76.3791 499.229 77.266 495.477 78.1548 491.723L78.2606 491.276C79.1542 487.502 80.0483 483.726 80.9071 479.934C83.426 468.811 86.3805 457.801 89.3341 446.803L89.3786 446.638C92.3183 435.692 95.2551 424.757 97.7655 413.713C97.8287 413.435 98.1058 413.26 98.3844 413.324C98.6629 413.388 98.8374 413.664 98.7741 413.943C96.2592 425.006 93.3181 435.957 90.3799 446.897L90.3331 447.072C87.3785 458.073 84.4295 469.062 81.9158 480.163C81.0561 483.959 80.1612 487.737 79.2681 491.51L79.1613 491.961C78.2325 495.883 77.3072 499.799 76.4253 503.724C74.886 510.574 73.4805 517.448 72.4235 524.423C70.4644 537.35 69.5244 550.398 68.5835 563.458C68.2976 567.426 68.0116 571.396 67.6969 575.364C67.2855 580.55 66.9429 585.761 66.5997 590.981C65.8465 602.434 65.0908 613.928 63.6016 625.281C62.5485 633.309 61.3684 641.297 60.189 649.281C58.6375 659.782 57.0875 670.274 55.8302 680.834C54.2245 694.32 50.9625 707.196 47.6816 720.149C46.491 724.849 45.2981 729.558 44.1807 734.31C43.366 737.775 43.3271 740.233 43.4962 744.04C43.5297 744.794 43.5714 745.6 43.6167 746.476C43.7968 749.963 44.0344 754.561 44.044 761.387C46.6831 761.851 49.3232 762.302 51.9627 762.752C56.5647 763.538 61.165 764.324 65.7555 765.179C69.2242 765.825 72.6734 766.506 76.1168 767.184C84.5177 768.841 92.8845 770.49 101.417 771.632C135.002 776.126 169.122 776.514 203.022 776.9C205.767 776.931 208.511 776.962 211.254 776.996C242.624 777.378 273.625 775.056 304.857 772.043C313.98 771.163 319.917 770.003 325.846 768.704C326.827 768.49 327.809 768.271 328.805 768.049C333.699 766.959 338.944 765.79 346.229 764.624C328.447 709.787 323.024 690.179 307.731 634.322C300.317 607.247 296.827 579.175 296.148 551.161C295.693 532.333 297.978 512.631 300.509 494.019C301.745 484.927 304.17 476.092 306.83 467.326C307.506 465.098 308.197 462.874 308.888 460.653C310.865 454.29 312.84 447.937 314.454 441.497C309.25 440.174 304.379 437.872 299.592 435.611C299.093 435.375 298.595 435.139 298.097 434.906C297.839 434.783 297.727 434.476 297.849 434.218C297.971 433.959 298.279 433.848 298.537 433.97C299.034 434.202 299.529 434.437 300.025 434.671C304.982 437.013 309.916 439.344 315.203 440.617C316.928 441.032 318.669 441.268 320.434 441.464C320.959 441.523 321.488 441.578 322.019 441.632C323.265 441.762 324.525 441.892 325.781 442.072C333.859 443.225 341.717 445.583 349.284 448.482C357.374 451.583 365.596 452.701 373.905 450.947C369.985 450.652 365.759 449.555 361.732 447.95C356.278 445.776 351.137 442.648 347.559 439.242C334.944 427.228 330.817 406.776 329.326 390.219C327.371 368.489 332.668 346.147 349.121 330.732C352.359 327.698 355.717 325.283 359.387 324.029C363.061 322.774 367.017 322.691 371.434 324.261C375.417 324.852 377.428 325.004 379.365 325.151C379.516 325.162 379.668 325.173 379.819 325.185C381.687 325.328 383.615 325.497 387.262 326.071C384.791 323.555 382.416 321.546 379.05 320.304C374.481 318.618 369.647 317.8 364.777 317.207C359.2 316.529 353.583 316.188 347.947 315.845C347.353 315.809 346.759 315.772 346.166 315.736C339.939 315.353 333.697 314.926 327.508 313.996C326.62 313.863 325.721 313.737 324.815 313.61C320.64 313.024 316.325 312.42 312.326 310.987C309.854 310.101 307.673 308.816 305.572 307.473C305.077 307.158 304.589 306.84 304.102 306.524C302.504 305.484 300.923 304.456 299.23 303.562C294.692 301.167 289.779 299.338 284.817 298.011C281.415 297.102 277.973 296.343 274.492 295.951C271.374 295.6 268.3 295.836 265.126 296.089C262.679 296.811 260.971 297.882 258.791 299.251C257.994 299.75 257.134 300.29 256.152 300.867C249.874 304.552 243.806 308.66 238.177 313.265C234.855 315.982 231.569 318.797 228.272 321.621C217.823 330.571 207.25 339.628 195.014 346.039C187.903 349.765 180.112 353.162 172.136 354.676C166.964 355.658 160.5 356.043 155.841 352.604C151.109 349.111 149.908 343.546 151.052 338.098C152.584 330.799 156.816 324.621 161.966 319.504C156.193 316.157 150.913 313.302 144.332 312.348C138.43 311.492 132.447 311.56 126.614 312.81C113.891 315.535 103.773 323.054 95.6681 333.1C90.4285 339.595 86.4478 347.025 82.4844 354.422C82.0063 355.314 81.5285 356.206 81.0488 357.096C76.9784 364.644 72.7252 372.073 68.4523 379.498C64.265 386.775 59.48 393.657 54.7053 400.525C52.4324 403.794 50.1618 407.06 47.959 410.364C42.1708 419.044 36.5555 427.858 30.944 436.666C30.4399 437.457 29.9359 438.248 29.4318 439.039C24.8755 446.187 20.6879 454.894 20.1046 463.409C19.442 473.082 25.8551 481.039 33.8758 485.955C45.151 492.864 62.5166 499.971 75.5302 502.991ZM377.776 449.919C381.316 448.782 383.734 447.048 386.033 445.026C386.75 444.396 387.461 443.731 388.196 443.044C389.815 441.531 391.543 439.917 393.662 438.359C393.686 438.342 393.711 438.327 393.735 438.314C397.927 433.851 401.052 428.519 404.063 422.967C404.813 421.583 405.421 419.593 405.962 417.516C406.17 416.721 406.367 415.909 406.56 415.121C406.862 413.884 407.15 412.706 407.436 411.742C408.137 409.376 408.262 406.22 408.142 403.23C408.033 400.502 407.721 397.956 407.483 396.356L366.016 394.309C366.008 394.308 366 394.308 365.99 394.307L330.413 390.75C331.95 407.175 336.112 426.914 348.273 438.493C351.735 441.79 356.756 444.853 362.115 446.989C367.455 449.118 373.077 450.306 377.776 449.919ZM128.559 344.065C128.836 343.997 129.117 344.167 129.185 344.444C129.288 344.867 129.392 345.29 129.495 345.713C131.073 352.19 132.659 358.702 136.412 364.171C139.92 369.284 145.835 373.942 151.653 376.104C161.717 379.844 173.594 378.481 183.726 375.4C192.916 372.605 200.51 367.325 207.756 361.069C207.972 360.882 208.298 360.906 208.485 361.122C208.671 361.338 208.647 361.665 208.431 361.852C201.138 368.149 193.415 373.534 184.027 376.389C173.798 379.499 161.662 380.927 151.293 377.073C145.273 374.836 139.187 370.042 135.559 364.756C131.695 359.124 130.066 352.435 128.5 346C128.394 345.563 128.287 345.126 128.181 344.691C128.112 344.413 128.282 344.133 128.559 344.065Z" fill="black"/>
</svg>
