<svg width="417" height="1256" viewBox="0 0 417 1256" fill="none" xmlns="http://www.w3.org/2000/svg">
<path d="M235.12 4.52544C251.943 14.427 268.307 25.6178 282.777 38.8133C296.161 51.0187 300.24 56.927 310.217 71.9101C316.165 81.9985 316.357 93.5359 315.605 105.048C314.917 115.583 313.809 125.925 311.253 136.194C308.68 146.531 306.52 151.891 302.683 161.773C254.752 123.899 225.065 107.12 162.8 100.773C143.599 99.666 124.252 100.661 105.765 106.315C99.3184 108.285 92.5742 110.598 86.6771 113.908C80.6847 117.274 75.6705 121.735 70.7189 126.442C60.7584 125.979 51.5248 124.888 42.6989 119.76C33.1301 114.201 24.5631 106.295 24.2537 94.4449C23.8207 77.8657 37.5046 62.4509 51.9837 56.1399C60.8967 52.2549 70.7475 50.1239 80.4184 49.3753C85.2474 49.0014 89.5758 48.553 92.4298 48.6313C94.8866 42.5815 100.671 23.4384 106.283 19.5364C121.475 8.97332 141.291 5.19266 159.297 3.47567C189.016 0.641897 211.658 -0.748089 235.12 4.52544Z" fill="#FB8834"/>
<path d="M150.368 21.5736C127.384 20.423 121.319 38.9922 121.16 48.4206C156.593 48.4206 166.648 53.2147 189.153 59.9264C196.814 37.3941 179.098 23.0118 150.368 21.5736Z" fill="#F2F2F2" stroke="black" stroke-width="2"/>
<path fill-rule="evenodd" clip-rule="evenodd" d="M234.764 5.42804C211.519 0.230056 189.048 1.6019 159.388 4.42999C141.416 6.1438 121.81 9.90828 106.829 20.3238C105.617 21.1667 104.291 22.9272 102.931 25.3478C101.59 27.7352 100.281 30.641 99.0602 33.6402C97.8406 36.636 96.7173 39.7026 95.7426 42.407C95.5725 42.8788 95.4067 43.3404 95.2454 43.7892C94.7149 45.2663 94.2342 46.6045 93.8172 47.7087C95.2144 47.7443 96.256 47.7663 97.179 47.7856C100.495 47.8554 102.284 47.893 113.543 48.4173C159.209 50.5437 244.474 62.1725 302.504 159.588C305.903 150.845 307.93 145.579 310.324 135.962C312.86 125.774 313.962 115.498 314.65 104.985C315.4 93.5024 315.182 82.2333 309.406 72.4198C299.459 57.4821 295.428 51.6462 282.133 39.5221C267.764 26.4192 251.506 15.29 234.764 5.42804ZM299.195 157.812C241.697 63.7491 158.423 52.4267 113.454 50.3329C102.218 49.8097 100.445 49.7724 97.1353 49.7028C95.935 49.6776 94.5328 49.6481 92.4037 49.5896C90.2436 49.5303 87.2117 49.7811 83.6832 50.0729C82.6584 50.1578 81.5917 50.246 80.4923 50.331C70.9064 51.0732 61.1634 53.1843 52.3661 57.0188C45.2762 60.1092 38.3641 65.4391 33.2849 72.0276C28.2056 78.6162 25.0018 86.4048 25.2111 94.4197C25.507 105.751 33.6876 113.416 43.1797 118.931C51.6783 123.868 60.5863 124.992 70.3565 125.465C75.2224 120.851 80.2274 116.431 86.2088 113.072C92.2009 109.708 99.028 107.371 105.485 105.397C124.119 99.6985 143.59 98.7042 162.855 99.8164C162.869 99.8174 162.884 99.8183 162.897 99.8193C194.104 103 217.2 108.802 238.515 118.579C258.598 127.79 277.057 140.511 299.195 157.812ZM91.7834 47.6635C92.2409 46.4868 92.7966 44.94 93.4376 43.1556C93.6 42.7036 93.7679 42.2364 93.941 41.7561C94.9172 39.0478 96.0514 35.9504 97.2865 32.9164C98.5202 29.8858 99.8635 26.896 101.262 24.4076C102.641 21.9524 104.143 19.8567 105.737 18.7486C121.141 8.03799 141.167 4.24117 159.207 2.52098C188.922 -0.312533 211.703 -1.72084 235.33 3.58972C235.427 3.61152 235.52 3.64828 235.606 3.69869C252.464 13.6211 268.887 24.8499 283.422 38.1043C296.889 50.3849 301.018 56.3658 311.014 71.3781C311.023 71.3925 311.033 71.4074 311.041 71.4225C317.149 81.7804 317.314 93.5779 316.56 105.111C315.871 115.668 314.759 126.076 312.182 136.426C309.722 146.311 307.631 151.688 304.136 160.677C303.953 161.148 303.766 161.628 303.576 162.12C303.465 162.404 303.227 162.617 302.934 162.697C302.641 162.778 302.328 162.713 302.089 162.525C278.138 143.6 258.807 129.994 237.718 120.322C216.646 110.657 193.772 104.895 162.724 101.729C143.595 100.628 124.378 101.625 106.045 107.231C99.609 109.198 92.9479 111.486 87.1457 114.744C81.264 118.047 76.3222 122.438 71.3784 127.137C71.1893 127.316 70.9352 127.411 70.6747 127.4C60.6838 126.936 51.2537 125.839 42.2184 120.589C32.5728 114.986 23.6195 106.84 23.2965 94.4698C23.0728 85.9056 26.4946 77.6972 31.7687 70.8558C37.043 64.0144 44.2125 58.4813 51.6016 55.2605C60.6303 51.3251 70.589 49.1744 80.3447 48.4191C81.3982 48.3375 82.4344 48.2517 83.441 48.1684C86.6575 47.9019 89.5717 47.6606 91.7834 47.6635Z" fill="black"/>
<path d="M86.391 113.918C80.3985 117.282 75.3843 121.744 70.4328 126.451C60.4723 125.989 51.2386 124.896 42.4128 119.77C32.844 114.21 24.277 106.305 23.9675 94.4539C23.5346 77.8747 37.2184 62.4599 51.6975 56.1489C60.6106 52.2639 70.4614 50.1329 80.1322 49.3843C84.9613 49.0104 89.2897 48.562 92.1437 48.6403C100.136 48.8598 112.062 47.9269 127.384 48.6403C173.183 50.7728 244.592 63.2144 302.397 161.781C254.466 123.908 224.779 107.129 162.514 100.783C143.313 99.6747 123.965 100.67 105.479 106.323C99.0322 108.294 92.2881 110.606 86.391 113.918Z" fill="#434343"/>
<path d="M108.231 105.95L52.2085 56.0914C69.0632 48.4208 103.922 47.7816 119.244 48.4208L172.394 101.635C141.366 98.1837 116.691 103.074 108.231 105.95Z" fill="#F2F2F2"/>
<path fill-rule="evenodd" clip-rule="evenodd" d="M103.002 49.5021C98.8385 49.5985 95.1887 49.683 92.1176 49.5986C89.9575 49.5393 86.9256 49.7901 83.3971 50.0819C82.3723 50.1668 81.3056 50.255 80.2062 50.34C70.6203 51.0822 60.8773 53.1933 52.08 57.0278C44.99 60.1182 38.078 65.448 32.9988 72.0366C27.9194 78.6252 24.7157 86.4138 24.925 94.4287C25.2209 105.759 33.4015 113.425 42.8936 118.94C51.3922 123.877 60.3002 125.001 70.0703 125.474C74.9362 120.861 79.9412 116.44 85.9227 113.081C91.9147 109.716 98.7419 107.381 105.199 105.406C123.832 99.708 143.303 98.7137 162.57 99.825C162.583 99.826 162.597 99.8269 162.611 99.8288C193.818 103.009 216.914 108.81 238.23 118.587C258.318 127.802 276.781 140.527 298.928 157.837C270.793 111.454 239.645 85.0336 209.954 69.9022C179.323 54.2914 150.174 50.6611 127.34 49.5979C119.71 49.2427 112.921 49.2971 107.034 49.4135C105.642 49.441 104.297 49.4722 103.002 49.5021ZM106.996 47.4963C112.901 47.3795 119.737 47.3242 127.428 47.6824C150.395 48.7517 179.849 52.4084 210.823 68.1933C241.804 83.9824 274.237 111.871 303.222 161.296C303.456 161.693 303.373 162.201 303.026 162.504C302.678 162.807 302.165 162.82 301.803 162.534C277.853 143.609 258.521 130.004 237.432 120.33C216.36 110.665 193.486 104.904 162.438 101.739C143.308 100.636 124.092 101.633 105.759 107.24C99.3229 109.208 92.6618 111.496 86.8596 114.754C80.9779 118.056 76.036 122.447 71.0923 127.146C70.9031 127.326 70.6491 127.421 70.3885 127.408C60.3977 126.944 50.9676 125.847 41.9323 120.598C32.2867 114.995 23.3334 106.849 23.0103 94.4788C22.7867 85.9146 26.2085 77.7061 31.4826 70.8648C36.7568 64.0234 43.9263 58.4903 51.3155 55.2695C60.3442 51.3341 70.3028 49.1834 80.0585 48.4281C81.1121 48.3465 82.1483 48.2607 83.1549 48.1774C86.709 47.883 89.8941 47.6192 92.1701 47.6817C95.1882 47.7645 98.7692 47.6818 102.918 47.5858C104.222 47.5557 105.581 47.5243 106.996 47.4963Z" fill="black"/>
<path d="M190.455 1020.21C183.164 997.022 166.594 944.5 158.018 917.939C155.845 911.211 154.543 901.042 153.859 889.026C153.174 876.998 153.107 863.077 153.421 848.821C154.043 820.577 156.161 790.994 157.945 772.156C105.598 770.914 73.4017 765.183 62.4228 761.974C62.4585 763.675 62.4429 765.372 62.3504 767.055C62.3504 767.055 62.3504 767.055 62.3504 767.055L61.8511 767.027C61.7705 768.495 61.6308 769.952 61.4911 771.409C61.3272 773.118 61.1636 774.825 61.0957 776.545L190.455 1020.21ZM190.455 1020.21C190.411 1020.27 190.368 1020.33 190.325 1020.39C188.789 1022.58 187.418 1024.54 186.745 1027.29L187.231 1027.4L186.745 1027.29C186.443 1028.52 186.157 1029.76 185.873 1031C185.161 1034.09 184.454 1037.15 183.492 1040.15C180.057 1050.87 176.918 1061.67 174.863 1072.78C173.689 1079.12 172.709 1085.5 171.75 1091.86C171.643 1092.58 171.536 1093.29 171.429 1094C170.579 1099.65 169.73 1105.31 168.759 1110.94C166.971 1121.3 164.918 1131.81 160.291 1141.19C159.639 1142.51 158.938 1143.81 158.179 1145.08C103.02 1155.93 38.9481 1139.12 13.7834 1129.33L13.7748 1129.33L13.766 1129.33C13.5611 1129.26 13.2654 1129.07 12.8905 1128.7C12.5202 1128.33 12.0949 1127.8 11.6266 1127.08C10.6899 1125.63 9.60356 1123.43 8.45245 1120.28C6.15078 1113.97 3.60863 1103.87 1.47587 1088.34C-0.647728 1072.88 1.75871 1052.85 5.64996 1034.06C9.53884 1015.28 14.899 997.785 18.6476 987.424L18.6735 987.353L18.6769 987.277C19.0847 978.41 19.3361 966.443 19.3361 957.568C19.3361 948.492 18.3591 941.639 17.1963 933.483C16.9334 931.64 16.6611 929.729 16.3884 927.712L16.3884 927.712L16.3453 927.394C14.898 916.685 12.5002 906.222 10.103 895.76C8.97151 890.823 7.84018 885.886 6.80895 880.924C4.68893 870.723 3.83952 860.324 4.05183 849.902C4.13427 845.855 4.73309 843.984 5.35448 842.093L5.38113 842.012C5.99354 840.15 6.62293 838.235 6.80339 834.353L190.455 1020.21ZM179.198 771.898C244.401 771.854 307.154 763.257 330.965 758.865M62.4102 761.449C73.1779 764.631 105.392 770.411 157.992 771.657M158.446 772.168C154.863 809.988 149.925 891.249 158.493 917.785M159.326 918.738C169.047 928.908 185.331 913.202 178.721 772.398M175.255 903.956C179.971 884.137 182.617 844.758 179.222 772.398C244.465 772.352 307.249 763.75 331.07 759.354C332.439 765.722 333.735 772.089 335.688 781.681C336.081 783.616 336.502 785.683 336.955 787.907C343.624 820.636 347.858 853.667 351.831 886.814L351.832 886.826L351.834 886.837C353.498 896.832 355.721 906.592 357.961 916.426C358.912 920.601 359.866 924.789 360.782 929.015C364.259 945.057 366.989 961.122 369.722 977.332L369.734 977.402L369.764 977.466C380.33 999.424 394.334 1033.31 402.013 1063.62C405.853 1078.77 408.102 1093 407.564 1104.37C407.024 1115.76 403.7 1124.13 396.574 1127.84C359.833 1146.96 307.442 1152.01 268.148 1145.03C252.699 1142.29 244.121 1128.27 239.709 1111.59C235.305 1094.94 235.114 1075.85 236.297 1063.35L236.314 1063.17L236.209 1063.02C232.184 1057.25 227.835 1051.72 223.462 1046.23C222.94 1045.58 222.417 1044.93 221.895 1044.27C218.039 1039.44 214.192 1034.62 210.543 1029.66L210.521 1029.62L210.494 1029.6C208.745 1027.85 207.525 1026.56 206.604 1025.58C206.302 1025.26 206.032 1024.98 205.787 1024.72C204.803 1023.69 204.173 1023.1 203.406 1022.7C202.648 1022.32 201.781 1022.15 200.394 1021.87L200.294 1021.85C198.891 1021.57 196.891 1021.18 193.808 1020.38C193.005 1020.17 192.199 1020 191.391 1019.85C184.282 997.243 168.394 946.882 159.653 919.752C160.463 920.478 161.323 921.04 162.222 921.378C163.745 921.949 165.35 921.863 166.925 920.901C168.476 919.954 169.966 918.178 171.359 915.435C172.755 912.686 174.072 908.926 175.255 903.956ZM330.859 758.376C307.001 762.776 244.03 771.398 178.697 771.398C171.665 771.398 164.933 771.318 158.505 771.169C105.363 769.942 72.9707 764.086 62.3945 760.923C62.2884 757.686 62.0151 754.438 61.7489 751.274L61.7484 751.268L61.7484 751.268L61.7481 751.265L61.7481 751.264L61.7263 751.006C61.6021 749.53 61.4043 748.055 61.2083 746.595C61.154 746.19 61.0998 745.785 61.0473 745.383C60.8047 743.52 60.598 741.675 60.5733 739.826C60.5647 739.182 60.6192 738.779 60.7144 738.52C60.7991 738.289 60.9143 738.173 61.0824 738.09C61.2827 737.99 61.5767 737.928 62.0418 737.879C62.2579 737.856 62.4965 737.837 62.767 737.815L62.808 737.812C63.0813 737.79 63.3827 737.766 63.7103 737.733C65.936 737.886 67.9883 738.035 69.93 738.175C79.305 738.852 86.1002 739.343 97.3677 739.344C123.091 741.479 148.95 742.823 174.76 743.228C239.556 744.246 255.765 741.833 314.344 733.115C317.665 732.621 321.122 732.107 324.731 731.572C327.611 743.793 329.306 751.19 330.859 758.376ZM63.4281 786.846C62.5883 783.4 61.7735 780.056 61.5962 776.542L6.31843 833.988C24.8578 827.81 48.053 814.453 61.9062 800.708L62.2582 801.063C62.2582 801.063 62.2583 801.063 62.2583 801.063C62.3409 800.981 62.4229 800.899 62.5046 800.818L62.5813 800.741L62.6192 800.639C63.1288 799.275 63.6298 797.114 63.9278 794.974C64.2237 792.849 64.3331 790.654 64.0058 789.251C63.8169 788.442 63.6218 787.642 63.4281 786.846ZM154.421 848.843C155.043 820.593 157.164 790.995 158.947 772.179C165.097 772.318 171.521 772.395 178.22 772.398C181.619 844.782 178.964 884.049 174.282 903.724C173.11 908.65 171.815 912.328 170.468 914.982C169.117 917.643 167.733 919.236 166.403 920.048C165.098 920.845 163.816 920.908 162.574 920.441C161.328 919.974 160.094 918.961 158.941 917.543C156.827 910.943 155.538 900.92 154.857 888.969C154.175 876.977 154.108 863.084 154.421 848.843Z" fill="#2E4D89" stroke="black"/>
<path d="M190.455 1020.21C183.164 997.022 166.594 944.5 158.018 917.939C155.845 911.211 154.543 901.042 153.859 889.026C153.174 876.998 153.107 863.077 153.421 848.821C154.043 820.577 156.161 790.994 157.945 772.156C105.598 770.914 73.4017 765.183 62.4228 761.974C62.4585 763.675 62.4429 765.372 62.3504 767.055C62.3504 767.055 62.3504 767.055 62.3504 767.055L61.8511 767.027C61.7705 768.495 61.6308 769.952 61.4911 771.409C61.3272 773.118 61.1636 774.825 61.0957 776.545L190.455 1020.21ZM190.455 1020.21C190.411 1020.27 190.368 1020.33 190.325 1020.39C188.789 1022.58 187.418 1024.54 186.745 1027.29L187.231 1027.4L186.745 1027.29C186.443 1028.52 186.157 1029.76 185.873 1031C185.161 1034.09 184.454 1037.15 183.492 1040.15C180.057 1050.87 176.918 1061.67 174.863 1072.78C173.689 1079.12 172.709 1085.5 171.75 1091.86C171.643 1092.58 171.536 1093.29 171.429 1094C170.579 1099.65 169.73 1105.31 168.759 1110.94C166.971 1121.3 164.918 1131.81 160.291 1141.19C159.639 1142.51 158.938 1143.81 158.179 1145.08C103.02 1155.93 38.9481 1139.12 13.7834 1129.33L13.7748 1129.33L13.766 1129.33C13.5611 1129.26 13.2654 1129.07 12.8905 1128.7C12.5202 1128.33 12.0949 1127.8 11.6266 1127.08C10.6899 1125.63 9.60356 1123.43 8.45245 1120.28C6.15078 1113.97 3.60863 1103.87 1.47587 1088.34C-0.647728 1072.88 1.75871 1052.85 5.64996 1034.06C9.53884 1015.28 14.899 997.785 18.6476 987.424L18.6735 987.353L18.6769 987.277C19.0847 978.41 19.3361 966.443 19.3361 957.568C19.3361 948.492 18.3591 941.639 17.1963 933.483C16.9334 931.64 16.6611 929.729 16.3884 927.712L16.3884 927.712L16.3453 927.394C14.898 916.685 12.5002 906.222 10.103 895.76C8.97151 890.823 7.84018 885.886 6.80895 880.924C4.68893 870.723 3.83952 860.324 4.05183 849.902C4.13427 845.855 4.73309 843.984 5.35448 842.093L5.38113 842.012C5.99354 840.15 6.62293 838.235 6.80339 834.353L190.455 1020.21ZM179.198 771.898C244.401 771.854 307.154 763.257 330.965 758.865M62.4102 761.449C73.1779 764.631 105.392 770.411 157.992 771.657M158.446 772.168C154.863 809.988 149.925 891.249 158.493 917.785M159.326 918.738C169.047 928.908 185.331 913.202 178.721 772.398M175.255 903.956C179.971 884.137 182.617 844.758 179.222 772.398C244.465 772.352 307.249 763.75 331.07 759.354C332.439 765.722 333.735 772.089 335.688 781.681C336.081 783.616 336.502 785.683 336.955 787.907C343.624 820.636 347.858 853.667 351.831 886.814L351.832 886.826L351.834 886.837C353.498 896.832 355.721 906.592 357.961 916.426C358.912 920.601 359.866 924.789 360.782 929.015C364.259 945.057 366.989 961.122 369.722 977.332L369.734 977.402L369.764 977.466C380.33 999.424 394.334 1033.31 402.013 1063.62C405.853 1078.77 408.102 1093 407.564 1104.37C407.024 1115.76 403.7 1124.13 396.574 1127.84C359.833 1146.96 307.442 1152.01 268.148 1145.03C252.699 1142.29 244.121 1128.27 239.709 1111.59C235.305 1094.94 235.114 1075.85 236.297 1063.35L236.314 1063.17L236.209 1063.02C232.184 1057.25 227.835 1051.72 223.462 1046.23C222.94 1045.58 222.417 1044.93 221.895 1044.27C218.039 1039.44 214.192 1034.62 210.543 1029.66L210.521 1029.62L210.494 1029.6C208.745 1027.85 207.525 1026.56 206.604 1025.58C206.302 1025.26 206.032 1024.98 205.787 1024.72C204.803 1023.69 204.173 1023.1 203.406 1022.7C202.648 1022.32 201.781 1022.15 200.394 1021.87L200.294 1021.85C198.891 1021.57 196.891 1021.18 193.808 1020.38C193.005 1020.17 192.199 1020 191.391 1019.85C184.282 997.243 168.394 946.882 159.653 919.752C160.463 920.478 161.323 921.04 162.222 921.378C163.745 921.949 165.35 921.863 166.925 920.901C168.476 919.954 169.966 918.178 171.359 915.435C172.755 912.686 174.072 908.926 175.255 903.956ZM330.859 758.376C307.001 762.776 244.03 771.398 178.697 771.398C171.665 771.398 164.933 771.318 158.505 771.169C105.363 769.942 72.9707 764.086 62.3945 760.923C62.2884 757.686 62.0151 754.438 61.7489 751.274L61.7484 751.268L61.7484 751.268L61.7481 751.265L61.7481 751.264L61.7263 751.006C61.6021 749.53 61.4043 748.055 61.2083 746.595C61.154 746.19 61.0998 745.785 61.0473 745.383C60.8047 743.52 60.598 741.675 60.5733 739.826C60.5647 739.182 60.6192 738.779 60.7144 738.52C60.7991 738.289 60.9143 738.173 61.0824 738.09C61.2827 737.99 61.5767 737.928 62.0418 737.879C62.2579 737.856 62.4965 737.837 62.767 737.815L62.808 737.812C63.0813 737.79 63.3827 737.766 63.7103 737.733C65.936 737.886 67.9883 738.035 69.93 738.175C79.305 738.852 86.1002 739.343 97.3677 739.344C123.091 741.479 148.95 742.823 174.76 743.228C239.556 744.246 255.765 741.833 314.344 733.115C317.665 732.621 321.122 732.107 324.731 731.572C327.611 743.793 329.306 751.19 330.859 758.376ZM63.4281 786.846C62.5883 783.4 61.7735 780.056 61.5962 776.542L6.31843 833.988C24.8578 827.81 48.053 814.453 61.9062 800.708L62.2582 801.063C62.2582 801.063 62.2583 801.063 62.2583 801.063C62.3409 800.981 62.4229 800.899 62.5046 800.818L62.5813 800.741L62.6192 800.639C63.1288 799.275 63.6298 797.114 63.9278 794.974C64.2237 792.849 64.3331 790.654 64.0058 789.251C63.8169 788.442 63.6218 787.642 63.4281 786.846ZM154.421 848.843C155.043 820.593 157.164 790.995 158.947 772.179C165.097 772.318 171.521 772.395 178.22 772.398C181.619 844.782 178.964 884.049 174.282 903.724C173.11 908.65 171.815 912.328 170.468 914.982C169.117 917.643 167.733 919.236 166.403 920.048C165.098 920.845 163.816 920.908 162.574 920.441C161.328 919.974 160.094 918.961 158.941 917.543C156.827 910.943 155.538 900.92 154.857 888.969C154.175 876.977 154.108 863.084 154.421 848.843Z" stroke="black"/>
<path d="M141.019 312.057C148.021 313.072 153.582 316.178 159.66 319.711C154.267 324.943 149.833 331.268 148.262 338.751C147.132 344.129 148.33 349.528 152.911 352.908C157.436 356.247 163.778 355.905 169.004 354.912C177.008 353.393 184.846 349.981 192.029 346.219C208.27 337.713 221.58 324.606 235.653 313.098C241.379 308.416 247.547 304.242 253.925 300.5C257.588 298.351 259.685 296.617 263.183 295.598C266.409 295.34 269.59 295.091 272.822 295.455C276.384 295.856 279.897 296.631 283.356 297.555C288.413 298.906 293.426 300.772 298.062 303.217C302.588 305.605 306.363 308.952 311.257 310.704C316.123 312.447 321.45 312.962 326.534 313.726C339.02 315.6 351.74 315.453 364.264 316.975C369.208 317.576 374.151 318.41 378.837 320.139C382.856 321.621 385.514 324.154 388.438 327.236C379.011 325.666 379.623 326.454 370.814 325.146C362.049 322.009 355.21 325.473 348.702 331.568C332.192 347.031 326.848 369.469 328.819 391.362C330.328 408.119 334.5 428.643 347.124 440.659C354.254 447.445 367.709 453.195 377.468 452.365C367.603 455.506 357.855 454.534 348.322 450.882C340.682 447.955 332.763 445.583 324.632 444.422C321.027 443.907 317.431 443.796 313.871 442.939C309.418 460.917 302.123 478.241 299.631 496.563C297.069 515.403 294.759 535.313 295.22 554.329C295.906 582.656 299.437 611.032 306.932 638.394C322.474 695.136 327.947 714.918 346.103 770.867C327.703 773.766 322.1 776.69 303.566 778.478C271.931 781.53 240.512 783.881 208.712 783.494C171.656 783.043 134.218 782.983 97.4119 778.059C85.2108 776.427 73.3276 773.77 61.2688 771.523C53.8108 770.133 46.3413 768.929 38.8529 767.609C38.8531 749.811 37.3232 746.788 39.005 739.638C43.2654 721.524 48.5811 704.125 50.7928 685.557C53.033 666.751 56.2001 648.09 58.6641 629.311C60.8574 612.596 61.4758 595.606 62.8088 578.804C64.1747 561.588 65.0093 544.284 67.6 527.195C68.6731 520.117 70.0995 513.144 71.6597 506.203C58.3704 503.204 40.4205 495.891 28.8048 488.775C20.5976 483.748 13.9192 475.536 14.6091 465.469C15.2088 456.719 19.5054 447.814 24.1361 440.551C30.3294 430.838 36.5132 421.096 42.9056 411.512C49.8471 401.106 57.3929 391.15 63.6421 380.295C67.9695 372.778 72.2736 365.262 76.3921 357.628C80.8953 349.28 85.267 340.671 91.2513 333.255C99.5132 323.018 109.857 315.321 122.889 312.53C128.865 311.25 134.988 311.182 141.019 312.057Z" fill="#323232"/>
<path d="M333.808 392.092C331.853 391.875 330.975 391.732 329.077 391.255C329.008 390.957 328.449 389.934 328.33 390.467C328.204 391.034 328.46 391.549 328.492 392.092C328.575 393.555 329.177 394.875 329.177 396.367C329.177 397.728 329.347 399.088 329.347 400.462C329.347 402.925 329.187 405.438 329.518 407.883C330.126 412.357 330.825 416.719 332.095 421.079C332.752 423.336 333.89 425.562 335.165 427.53C336.355 429.369 337.365 431.343 338.758 433.041C341.19 436.004 344.216 438.296 347.219 440.661C348.499 441.669 349.498 442.989 350.736 444.043C351.853 444.994 352.984 445.637 354.33 446.22C356.331 447.085 356.724 447.5 358.673 448.419C359.388 448.756 361.578 449.758 362.339 449.989C363.492 450.34 365.367 451.263 366.529 451.6C368.993 452.315 371.058 452.016 373.589 452.424C375.519 452.709 378.032 452.735 379.897 451.6C381.809 450.437 383.833 449.286 385.606 447.92C386.892 446.929 388.067 445.843 389.325 444.795C391.165 442.379 393.256 441.389 395.086 439.56C397.508 436.136 399.8 433.802 402.418 430.138C404.176 426.662 405.237 423.846 406.608 420.192C407.539 417.713 408.303 415.465 408.703 412.864C409.121 410.147 409.227 407.63 409.227 403.965C408.723 402.159 408.627 399.473 408.222 397.65C408.076 396.995 406.296 397.125 405.75 397.061C403.796 396.831 401.681 396.752 399.713 396.709C397.889 396.67 396.071 396.196 394.238 396.196C391.443 396.196 388.654 395.889 385.853 395.854C384.209 395.834 382.572 395.512 380.929 395.512C379.057 395.512 377.205 395.511 375.339 395.379C371.407 395.101 367.478 394.935 363.551 394.572C356.304 393.901 350.567 393.496 341.664 392.766C340.358 392.766 339.292 392.284 337.998 392.092C337.102 391.959 334.701 392.191 333.808 392.092Z" fill="#323232"/>
<path d="M270.683 456.794C228.783 406.543 248.337 328.723 263.351 296.094C263.351 295.256 266.842 295.047 268.588 295.047C269.461 294.873 273.511 295.047 282.729 297.141C294.252 299.758 301.584 304.993 310.488 310.227C322.534 315.462 346.627 315.462 364.958 317.032C379.623 318.288 386.431 324.186 388.003 326.978C385.558 326.629 378.575 325.721 370.195 324.884C363.91 322.79 354.483 322.267 341.389 339.541C328.295 356.815 328.295 381.417 329.343 391.363C349.874 394.294 390.272 396.423 407.905 397.121C408.079 397.295 408.324 400.575 407.905 412.301C407.486 424.026 398.303 436.031 393.764 440.567C391.843 442.138 387.374 445.906 384.86 448.419C381.718 451.56 378.051 452.083 370.195 453.654C362.339 455.224 359.72 453.654 354.483 452.607C349.245 451.56 343.484 448.419 335.104 446.325C328.4 444.65 317.995 443.534 313.63 443.185C310.837 460.459 298.337 487.364 270.683 456.794Z" fill="#737373"/>
<path d="M93.1335 420.152C105.703 325.512 140.271 311.972 155.983 317.032C117.016 299.025 90.5147 329.769 82.1346 347.392C78.9921 353.499 69.6694 370.738 57.5185 390.839C36.1496 421.827 22.4276 444.231 18.2377 451.56C14.0477 459.237 10.172 477.314 28.1889 488.201C46.2057 499.089 65.0257 504.603 72.1836 505.999C76.5481 487.154 86.8485 443.603 93.1335 420.152Z" fill="#737373"/>
<path fill-rule="evenodd" clip-rule="evenodd" d="M263.141 295.076C266.36 294.818 269.591 294.564 272.881 294.935C276.477 295.34 280.019 296.121 283.491 297.049C288.58 298.409 293.631 300.288 298.307 302.754C300.068 303.684 301.723 304.76 303.349 305.818C303.836 306.134 304.32 306.449 304.803 306.758C306.917 308.107 309.044 309.356 311.433 310.211C315.373 311.622 319.612 312.217 323.835 312.809C324.763 312.939 325.689 313.069 326.611 313.208C332.829 314.141 339.11 314.572 345.417 314.96C346.018 314.997 346.619 315.033 347.222 315.07C352.924 315.417 358.646 315.765 364.327 316.455C369.283 317.058 374.274 317.898 379.018 319.648C383.159 321.175 385.887 323.786 388.819 326.876C388.974 327.039 389.007 327.283 388.901 327.482C388.796 327.68 388.574 327.789 388.352 327.752C383.655 326.97 381.467 326.776 379.354 326.615C379.201 326.603 379.049 326.591 378.896 326.58C376.915 326.43 374.842 326.273 370.737 325.663C370.703 325.658 370.67 325.65 370.637 325.638C366.364 324.109 362.585 324.194 359.081 325.391C355.562 326.592 352.288 328.927 349.06 331.95C332.811 347.169 327.449 369.234 329.303 390.885L365.52 394.504L407.931 396.598C408.179 396.61 408.385 396.795 408.422 397.04C408.671 398.633 409.041 401.471 409.165 404.539C409.288 407.594 409.168 410.931 408.408 413.496C408.123 414.454 407.844 415.597 407.545 416.824C407.349 417.625 407.144 418.463 406.924 419.308C406.377 421.41 405.735 423.537 404.908 425.061C400.925 432.402 396.664 439.531 389.96 444.796C389.815 444.91 389.628 444.935 389.465 444.878C389.204 445.12 388.946 445.362 388.689 445.602C387.933 446.308 387.19 447.004 386.419 447.681C384.016 449.792 381.428 451.653 377.627 452.863C367.626 456.048 357.753 455.056 348.135 451.371C340.518 448.452 332.638 446.094 324.558 444.94C323.308 444.761 322.065 444.632 320.812 444.502C320.268 444.446 319.725 444.389 319.177 444.329C317.543 444.148 315.898 443.93 314.255 443.565C312.611 450.12 310.598 456.595 308.591 463.048C307.893 465.292 307.197 467.533 306.517 469.774C303.826 478.637 301.39 487.516 300.149 496.633C297.588 515.472 295.284 535.346 295.744 554.317C296.429 582.608 299.955 610.942 307.437 638.256C322.977 694.993 328.449 714.767 346.601 770.705C346.649 770.851 346.63 771.01 346.549 771.141C346.469 771.271 346.335 771.36 346.185 771.384C338.524 772.591 333.092 773.801 328.002 774.935C326.991 775.16 325.995 775.382 324.997 775.6C318.966 776.92 312.91 778.102 303.616 778.998C271.975 782.051 240.534 784.404 208.705 784.017C205.925 783.983 203.143 783.952 200.358 783.921C166.039 783.53 131.421 783.136 97.3424 778.578C88.6669 777.418 80.1436 775.738 71.6224 774.059C68.1423 773.373 64.6625 772.687 61.1728 772.037C56.5289 771.172 51.8859 770.38 47.2321 769.585C44.4135 769.105 41.5909 768.623 38.7618 768.124C38.5116 768.08 38.3291 767.862 38.3291 767.609C38.3292 760.484 38.0839 755.738 37.8978 752.134C37.8517 751.243 37.8093 750.423 37.7751 749.653C37.602 745.758 37.6384 743.16 38.495 739.517C39.6358 734.668 40.8499 729.876 42.0589 725.105C45.3763 712.015 48.6552 699.075 50.2728 685.496C51.5458 674.808 53.1213 664.145 54.6958 653.489C55.8902 645.406 57.0841 637.326 58.1448 629.243C59.6484 617.784 60.4101 606.206 61.1715 594.628C61.5197 589.335 61.8678 584.043 62.2867 578.762C62.6041 574.763 62.8928 570.754 63.182 566.744C64.1354 553.513 65.0912 540.248 67.0822 527.116C68.1316 520.194 69.5175 513.376 71.0345 506.597C57.7431 503.516 40.0474 496.276 28.531 489.221C20.2396 484.143 13.3778 475.775 14.0865 465.433C14.6952 456.552 19.0474 447.558 23.6944 440.27C24.2051 439.469 24.7159 438.668 25.2268 437.866C30.9087 428.952 36.6013 420.021 42.4698 411.222C44.7251 407.841 47.0379 404.516 49.3462 401.197C54.1674 394.266 58.9694 387.362 63.1881 380.034C67.5155 372.517 71.8163 365.007 75.931 357.379C76.4159 356.481 76.8997 355.578 77.3845 354.673C81.3919 347.196 85.4713 339.584 90.8435 332.927C99.1593 322.623 109.6 314.841 122.779 312.019C128.824 310.724 135.01 310.657 141.094 311.539C148.208 312.57 153.85 315.728 159.923 319.259C160.065 319.341 160.159 319.485 160.18 319.648C160.2 319.81 160.142 319.973 160.024 320.087C154.675 325.276 150.317 331.513 148.774 338.859C147.673 344.099 148.851 349.262 153.222 352.487C157.553 355.683 163.692 355.388 168.907 354.398C176.836 352.893 184.621 349.508 191.786 345.755C204.063 339.325 214.644 330.265 225.206 321.223C228.563 318.349 231.917 315.478 235.322 312.693C241.072 307.991 247.263 303.802 253.659 300.049C254.586 299.504 255.422 298.98 256.212 298.485C258.481 297.061 260.38 295.869 263.037 295.095C263.071 295.085 263.106 295.079 263.141 295.076ZM71.2641 505.576C72.1239 501.767 73.0221 497.969 73.9222 494.169L74.0294 493.717C74.9344 489.895 75.8399 486.073 76.7096 482.234C79.2607 470.974 82.2528 459.827 85.2442 448.693L85.2892 448.526C88.2664 437.445 91.2406 426.374 93.783 415.194C93.8471 414.913 94.1277 414.736 94.4098 414.8C94.6919 414.864 94.8686 415.144 94.8045 415.427C92.2575 426.626 89.2789 437.713 86.3033 448.788L86.2558 448.965C83.2636 460.102 80.2769 471.228 77.7312 482.465C76.8605 486.309 75.9543 490.134 75.0497 493.953L74.9415 494.41C74.0009 498.381 73.0638 502.345 72.1707 506.318C70.6117 513.253 69.1883 520.212 68.1178 527.273C66.1337 540.361 65.1817 553.569 64.2288 566.792C63.9393 570.809 63.6497 574.828 63.3309 578.845C62.9143 584.095 62.5673 589.37 62.2197 594.655C61.4569 606.25 60.6915 617.886 59.1834 629.379C58.1169 637.506 56.9217 645.594 55.7273 653.676C54.156 664.307 52.5862 674.929 51.3129 685.619C49.6867 699.272 46.3831 712.308 43.0603 725.42C41.8546 730.179 40.6464 734.946 39.5148 739.757C38.6897 743.265 38.6503 745.753 38.8216 749.607C38.8555 750.37 38.8977 751.187 38.9436 752.074C39.126 755.604 39.3666 760.258 39.3763 767.169C42.0491 767.639 44.7228 768.096 47.396 768.551C52.0567 769.347 56.7157 770.142 61.3648 771.008C64.8777 771.662 68.3709 772.351 71.8582 773.038C80.3663 774.715 88.8398 776.385 97.4813 777.541C131.494 782.091 166.05 782.483 200.382 782.874C203.162 782.905 205.941 782.936 208.719 782.971C240.489 783.357 271.886 781.007 303.516 777.956C312.756 777.065 318.768 775.892 324.773 774.577C325.767 774.36 326.761 774.138 327.77 773.913C332.726 772.81 338.038 771.627 345.416 770.446C327.407 714.93 321.915 695.08 306.427 638.532C298.918 611.122 295.383 582.703 294.696 554.342C294.235 535.281 296.549 515.335 299.112 496.493C300.364 487.289 302.82 478.345 305.515 469.47C306.199 467.214 306.898 464.963 307.598 462.714C309.601 456.273 311.6 449.842 313.236 443.322C307.965 441.983 303.032 439.652 298.184 437.363C297.678 437.124 297.174 436.885 296.67 436.649C296.409 436.525 296.296 436.214 296.419 435.952C296.542 435.691 296.854 435.578 297.116 435.701C297.619 435.937 298.12 436.174 298.622 436.411C303.643 438.782 308.639 441.142 313.994 442.431C315.741 442.85 317.504 443.09 319.292 443.288C319.823 443.348 320.36 443.403 320.897 443.459C322.159 443.59 323.435 443.721 324.707 443.904C332.888 445.071 340.846 447.458 348.51 450.393C356.702 453.532 365.03 454.664 373.444 452.888C369.474 452.59 365.194 451.479 361.117 449.854C355.593 447.654 350.386 444.487 346.763 441.038C333.986 428.876 329.807 408.171 328.298 391.409C326.317 369.41 331.682 346.792 348.344 331.186C351.624 328.115 355.024 325.67 358.742 324.4C362.463 323.13 366.469 323.046 370.942 324.635C374.976 325.234 377.012 325.387 378.974 325.536C379.127 325.547 379.281 325.559 379.434 325.571C381.326 325.715 383.278 325.886 386.972 326.468C384.469 323.921 382.064 321.887 378.656 320.63C374.028 318.923 369.132 318.094 364.2 317.494C358.552 316.808 352.863 316.462 347.156 316.115C346.554 316.078 345.953 316.042 345.352 316.005C339.046 315.617 332.724 315.184 326.456 314.243C325.556 314.108 324.646 313.981 323.728 313.852C319.501 313.26 315.131 312.647 311.08 311.197C308.576 310.3 306.368 308.999 304.24 307.64C303.739 307.321 303.245 306.999 302.751 306.678C301.133 305.626 299.532 304.585 297.818 303.68C293.221 301.256 288.246 299.404 283.221 298.06C279.776 297.14 276.289 296.372 272.764 295.975C269.606 295.62 266.492 295.858 263.279 296.115C260.8 296.845 259.071 297.93 256.863 299.315C256.055 299.822 255.185 300.368 254.189 300.951C247.832 304.682 241.687 308.841 235.985 313.504C232.622 316.254 229.294 319.103 225.954 321.963C215.371 331.024 204.664 340.192 192.272 346.683C185.071 350.454 177.18 353.893 169.103 355.427C163.864 356.421 157.317 356.81 152.599 353.329C147.807 349.793 146.591 344.159 147.749 338.644C149.301 331.255 153.587 325 158.803 319.819C152.955 316.431 147.608 313.541 140.944 312.575C134.966 311.708 128.907 311.777 122.999 313.042C110.114 315.802 99.8671 323.413 91.6589 333.584C86.3525 340.159 82.321 347.681 78.307 355.169C77.8229 356.073 77.3389 356.976 76.8531 357.876C72.7308 365.518 68.4234 373.039 64.096 380.556C59.8552 387.923 55.0092 394.89 50.1737 401.843C47.8717 405.152 45.5721 408.458 43.3413 411.803C37.4792 420.591 31.7923 429.514 26.1093 438.43C25.5987 439.231 25.0883 440.032 24.5777 440.833C19.9633 448.069 15.7223 456.884 15.1316 465.504C14.4605 475.297 20.9554 483.353 29.0784 488.329C40.4974 495.324 58.0845 502.519 71.2641 505.576ZM377.365 451.848C380.95 450.697 383.399 448.941 385.727 446.895C386.453 446.256 387.174 445.583 387.918 444.888C389.558 443.356 391.307 441.722 393.454 440.145C393.478 440.127 393.503 440.113 393.528 440.099C397.774 435.581 400.938 430.183 403.987 424.562C404.747 423.161 405.363 421.147 405.911 419.044C406.121 418.239 406.321 417.417 406.516 416.619C406.822 415.367 407.114 414.175 407.403 413.199C408.113 410.804 408.24 407.608 408.119 404.581C408.008 401.819 407.692 399.241 407.451 397.622L365.455 395.549C365.447 395.549 365.439 395.548 365.429 395.547L329.398 391.946C330.955 408.575 335.17 428.558 347.486 440.28C350.991 443.618 356.077 446.719 361.504 448.882C366.912 451.037 372.606 452.239 377.365 451.848ZM124.97 344.684C125.25 344.616 125.534 344.787 125.603 345.068C125.708 345.496 125.813 345.924 125.918 346.353C127.515 352.91 129.122 359.503 132.922 365.039C136.475 370.215 142.466 374.931 148.358 377.12C158.55 380.906 170.579 379.526 180.84 376.407C190.147 373.577 197.838 368.232 205.176 361.899C205.395 361.71 205.725 361.734 205.915 361.953C206.103 362.171 206.079 362.502 205.86 362.691C198.474 369.066 190.653 374.518 181.145 377.408C170.785 380.557 158.495 382.002 147.994 378.101C141.896 375.836 135.733 370.983 132.059 365.631C128.146 359.93 126.496 353.158 124.91 346.644C124.802 346.2 124.694 345.758 124.586 345.318C124.517 345.037 124.689 344.753 124.97 344.684Z" fill="black"/>
</svg>
