<svg width="626" height="1496" viewBox="0 0 626 1496" fill="none" xmlns="http://www.w3.org/2000/svg">
<path fill-rule="evenodd" clip-rule="evenodd" d="M181.315 148.962C180.617 144.309 179.964 140.192 179.358 136.372C177.795 126.514 176.546 118.638 175.661 108.673C173.524 84.5949 182.391 62.5555 196.667 43.3981C214.203 19.8669 242.078 1.60906 272.1 1.01749C300.397 0.459915 327.475 13.2902 348.823 31.1906C360.166 40.7024 370.02 52.0881 375.311 66.1085C380.039 83 380.46 88.1423 380.039 105C380.039 112.053 379.407 116.563 378.305 123.507C377.97 125.618 377.179 127.595 376.393 129.561C375.73 131.219 375.07 132.869 374.689 134.585C375.812 133.141 377.429 132.72 379.226 132.72C386.53 132.72 386.626 146.567 386.626 151.739C389.2 154.511 391.463 157.438 393.767 160.418L393.768 160.419C394.448 161.299 395.132 162.184 395.829 163.07C399.354 167.557 402.07 170.085 407.4 172.783C408.354 173.389 409.221 173.925 410.02 174.42C414.785 177.368 417.145 178.828 421.129 184.624C423.269 187.736 426.184 190.419 429.071 193.076C430.923 194.78 432.763 196.474 434.379 198.263C442.793 207.578 452.456 215.583 462.102 223.573C463.485 224.718 464.866 225.862 466.244 227.011C469.932 230.084 473.861 232.824 477.79 235.565H477.791C482.176 238.624 486.562 241.683 490.615 245.206C492.01 246.419 493.241 247.502 494.381 248.504H494.382C499.001 252.566 502.112 255.301 508.485 259.975C512.719 263.08 516.864 266.024 521.009 268.969L521.012 268.971C525.12 271.889 529.228 274.807 533.422 277.881C537.792 281.084 542.378 283.846 546.963 286.607L546.964 286.608C550.395 288.674 553.826 290.74 557.164 292.989C566.742 299.444 572.354 306.964 578.447 316.611C582.753 323.428 584.33 332.829 585.581 340.712C585.968 343.15 586.992 345.576 587.976 347.908C588.223 348.494 588.468 349.073 588.699 349.645C590.701 354.596 591.459 357.584 590.485 362.975C588.043 367.86 583.538 369.655 578.537 370.779C567.28 373.308 555.959 374.122 544.454 374.046C539.078 374.011 533.702 373.592 528.326 373.174C524.568 372.881 520.811 372.589 517.055 372.427C511.05 372.169 505.062 372.091 499.068 372.012H499.062C495.839 371.97 492.615 371.928 489.387 371.858C479.316 371.639 469.2 371.248 459.32 369.19L459.067 369.137C450.4 367.331 441.74 365.527 432.911 364.663C424.564 363.847 415.997 364.929 407.82 366.612C404.719 367.25 401.564 368.011 398.617 369.19C395.654 370.375 393.131 372.896 390.768 375.257C389.993 376.031 389.236 376.788 388.485 377.475C377.564 410.239 377.401 440.944 377.222 474.705C377.21 476.931 377.199 479.169 377.184 481.423C377.184 486.541 377.174 491.453 377.165 496.208C377.099 530.494 377.049 556.626 380.661 593.416C381.999 607.045 384.456 620.538 386.911 634.021C388.222 641.226 389.534 648.428 390.673 655.647C394.776 681.629 402.875 706.06 411.717 730.709C431.294 781.713 440.361 833.892 449.631 887.24L449.634 887.26C450.5 892.242 451.367 897.233 452.245 902.235C456.152 924.493 459.404 946.849 462.656 969.207V969.209C465.408 988.131 468.161 1007.05 471.31 1025.92C472.441 1032.69 473.616 1039.46 474.79 1046.23L474.793 1046.24C478.813 1069.4 482.836 1092.58 485.1 1115.97C485.53 1120.42 486.448 1127.42 489.176 1138.63C489.397 1139.54 489.625 1140.45 489.855 1141.37C490.959 1145.8 492.101 1150.38 492.594 1154.82C493.289 1161.07 495.105 1170.65 496.497 1177.98C496.645 1178.77 496.789 1179.52 496.926 1180.25C497.007 1180.68 497.086 1181.1 497.162 1181.5C501.623 1205.3 503.336 1229.55 505.044 1253.75C505.619 1261.89 506.194 1270.04 506.873 1278.15C510.287 1318.94 522.924 1357.91 539.474 1395.14C542.276 1400.59 546.506 1407.37 549.917 1412.48C554.713 1419.68 561.239 1425.83 567.571 1431.8C568.842 1433 570.104 1434.19 571.343 1435.38C584.949 1448.44 599.145 1457.56 615.985 1465.98C621.985 1468.98 624.793 1471.12 624.793 1477.69C624.793 1481.69 623.618 1485.81 620.284 1488.4C617.209 1490.79 612.022 1491.56 608.299 1491.56C603.54 1491.56 597.491 1492.56 592.924 1493.99C589.197 1495.15 585.305 1495.1 581.413 1495.05C580.612 1495.04 579.811 1495.03 579.012 1495.03C576.778 1495.03 574.646 1494.49 572.531 1493.95H572.53C570.816 1493.52 569.113 1493.09 567.374 1492.95C565.086 1492.76 562.989 1491.86 560.925 1490.97H560.922C559.656 1490.42 558.402 1489.88 557.124 1489.52C549.415 1487.98 536.141 1485.08 528.53 1483.08C525.992 1482.42 523.544 1481.4 521.097 1480.37H521.095C517.863 1479.03 514.63 1477.68 511.189 1477.15C508.064 1476.67 504.733 1477.01 501.396 1477.35C496.413 1477.85 491.416 1478.36 487.066 1476.15C481.705 1473.41 482.138 1465.39 482.461 1459.4C482.531 1458.1 482.596 1456.91 482.596 1455.88C482.596 1440.73 481.66 1426.08 479.127 1411.1C477.585 1402.36 476.488 1395.31 475.451 1388.65C473.801 1378.05 472.307 1368.45 469.424 1354.63C465.224 1334.5 459.719 1314.87 454.045 1295.12C447.675 1272.95 439.344 1251.25 429.745 1230.25C420.086 1209.12 414.701 1193.06 409.086 1170.6C403.868 1158.98 398.751 1147.27 393.628 1135.54C377.7 1099.07 361.699 1062.44 342.321 1027.83C338.032 1020.17 334.597 1013.22 330.447 1004.83L330.445 1004.82C327.741 999.356 324.733 993.273 320.985 985.975C318.627 981.383 315.906 975.828 313.016 969.927L313.015 969.925C304.262 952.056 293.959 931.02 287.485 923.975C287.215 923.614 286.96 923.272 286.718 922.946C284.278 919.66 283.063 918.025 278.485 915.475C271.421 911.54 267.078 912.103 259.329 913.108L258.8 913.176C258.605 913.251 258.412 913.325 258.221 913.398C254.517 914.816 251.51 915.967 249.323 919.505C246.204 924.551 243.714 929.988 241.485 935.475C238.138 943.715 238.036 967.834 237.953 987.358C237.909 997.74 237.87 1006.82 237.352 1011.53C236.165 1022.31 235.964 1033.19 235.762 1044.07C235.595 1053.1 235.428 1062.13 234.696 1071.11C232.497 1098.11 227.135 1124.55 219.612 1150.53C219.178 1152.76 218.844 1154.43 218.564 1155.82C217.743 1159.92 217.389 1161.69 216.365 1168.24C215.259 1175.32 215.793 1182.57 216.328 1189.81C216.748 1195.51 217.168 1201.2 216.791 1206.81C215.159 1231.11 212.164 1255.5 207.216 1279.34C205.404 1288.07 203.252 1296.72 201.099 1305.37C198.584 1315.48 196.07 1325.58 194.099 1335.81C189.727 1358.51 187.931 1381.37 190.689 1404.35C191.367 1410 192.702 1418.66 197.182 1430.98C199.388 1437.04 202.985 1448.98 194.485 1452.48C181.985 1459.48 173.54 1457.9 159.405 1455.11C157.927 1454.88 156.822 1454.7 155.925 1454.55C152.876 1454.04 152.232 1453.93 147.534 1453.93C133.976 1453.93 118.885 1458.59 105.65 1462.68H105.649C104.309 1463.09 102.988 1463.5 101.69 1463.9C97.0531 1465.32 92.3774 1466.55 87.7031 1467.78H87.7006C82.771 1469.09 77.843 1470.39 72.964 1471.9C62.9471 1473.41 57.9862 1472.95 48.7864 1472.1C48.3619 1472.06 47.9283 1472.02 47.4848 1471.98C44.7474 1471.58 41.7675 1471.31 38.6691 1471.03L38.6635 1471.02C25.9167 1469.85 11.1662 1468.5 3.05076 1458.06C-6.54891 1445.72 20.4258 1439.48 24.8246 1438.58C67.2816 1431.51 99.6933 1405.66 128.985 1375.98C137.477 1352.93 138.24 1330.03 139.043 1305.93C139.116 1303.72 139.19 1301.51 139.27 1299.28C140.537 1264.07 138.038 1228.46 135.204 1193.36C134.033 1178.86 133.294 1165.55 132.575 1152.59H132.574C131.264 1128.99 130.019 1106.56 126.35 1080.29C120.985 1039.52 118.405 998.602 118.808 957.453C119.197 917.754 125.384 873.167 134.442 834.5C133.368 835.574 132.7 835.86 130.517 836.796C129.651 837.167 128.547 837.639 127.085 838.304C123.817 839.789 121.214 839.994 118.862 837.054C118.862 841.017 108.569 837.143 107.254 835.039C106.288 833.494 105.886 831.876 105.469 830.198C105.259 829.354 105.046 828.495 104.755 827.623C104.093 825.637 103.413 823.655 102.731 821.669C100.939 816.448 99.1399 811.206 97.6594 805.85C97.5838 805.655 97.5209 805.4 97.411 804.955L97.4108 804.954L97.3626 804.759C97.2166 804.212 97.0741 803.665 96.9355 803.116C106.362 760.42 114.488 717.389 119.83 673.971C121.341 661.695 122.12 649.359 122.9 637.028C123.678 624.729 124.455 612.435 125.957 600.209C127.492 587.704 130.924 574.552 136.517 563.207C140.991 554.131 143.985 547.475 146.985 537.975C151.457 479.842 158.584 425.361 172.753 368.683C178.26 346.655 184.448 322.868 199.558 305.24C218.534 283.101 249.511 285.29 273.965 298.508C273.965 297.077 273.968 295.645 273.971 294.213V294.211C273.995 282.381 274.019 270.521 272.408 258.783C271.27 259.158 270.136 259.55 269.003 259.941C265.58 261.123 262.158 262.304 258.609 263.047C258.082 263.157 257.504 263.321 256.886 263.496C254.397 264.201 251.255 265.091 248.097 263.442C234.983 256.213 222.709 248.117 211.306 238.358C205.31 233.227 200.314 227.684 197.216 220.376C195.401 216.097 194.602 211.592 193.799 207.066C193.593 205.903 193.386 204.74 193.162 203.578C191.982 197.456 191.26 194.497 189.6 188.476C186.158 175.395 183.322 162.351 181.315 148.962ZM388.711 192.459C386.489 190.941 384.741 189.096 382.99 187.249C381.227 185.389 379.463 183.527 377.212 181.996C371.185 178.983 366.339 179.753 361.729 181.855C360.141 185.345 358.291 189.04 356.45 192.718L356.449 192.719C354.82 195.974 353.197 199.216 351.767 202.293C351.024 203.891 350.243 205.46 349.463 207.027L349.462 207.028V207.029C347.887 210.191 346.318 213.342 345.087 216.689C340.681 230.123 337.56 241.895 337 251.803C335.868 271.852 341.334 284.267 342.698 287.365C342.858 287.729 342.962 287.964 342.991 288.068C343.753 290.734 348.013 290.535 350.634 290.413C351.105 290.391 351.524 290.371 351.859 290.371C355.432 290.371 359.012 290.578 362.598 290.785C366.198 290.992 369.805 291.201 373.418 291.201C385.733 291.201 397.703 292.507 409.902 294.011C416.301 294.8 422.675 295.763 429.05 296.727C433.443 297.392 437.837 298.056 442.24 298.663C447.326 299.365 452.409 300.079 457.488 300.828C458.989 301.05 460.556 301.147 462.131 301.245C464.599 301.398 467.086 301.552 469.373 302.187C471.099 302.667 478.112 302.875 483.75 303.043H483.752C487.033 303.14 489.849 303.224 490.886 303.339C486.305 296.527 481.114 289.913 475.937 283.542C472.095 278.813 467.297 274.572 462.371 271.001C460.174 269.408 457.462 268.135 454.897 267.258C453.43 266.756 452.012 266.156 450.594 265.555C449.536 265.107 448.478 264.659 447.4 264.252C445.143 263.4 442.943 262.424 440.765 261.398C440.247 261.239 439.702 261.068 439.139 260.892L439.13 260.888H439.129C436.13 259.948 432.606 258.842 429.734 258.402C428.062 258.145 426.378 258.012 424.695 257.878C422.528 257.706 420.363 257.534 418.229 257.1C410.933 255.618 405.059 253.062 399.265 248.317C395.726 250.943 391.53 252.742 387.215 253.265C384.593 253.583 381.155 253.727 379.038 251.803C376.875 249.836 375.181 246.96 373.901 244.352C373.677 243.893 373.458 243.477 373.252 243.083C372.521 241.691 371.944 240.59 371.782 238.962C370.765 238.021 368.331 234.891 367.765 233.521C364.856 227.702 363.794 225.362 361.729 219.165C361.656 218.945 361.569 218.721 361.482 218.493C361.093 217.482 360.678 216.401 361.257 215.376C362.062 213.952 363.11 212.881 364.447 211.99C368.325 209.405 372.466 207.25 376.608 205.095C379.49 203.595 382.371 202.096 385.165 200.451C385.924 200.004 386.695 199.565 387.469 199.125C389.21 198.134 390.965 197.136 392.623 196.021C391.317 194.472 390.265 193.521 388.711 192.459ZM150.797 731.5C155.297 738.5 157.827 747.117 158.327 749.117C159.939 741.531 161.168 733.69 162.168 723.889C165.774 689.639 172.51 655.669 179.209 621.886C179.815 618.83 180.421 615.776 181.024 612.723C183.473 600.324 184.392 587.754 185.312 575.172C185.621 570.947 185.93 566.721 186.297 562.5C185.714 554.803 185.141 545.324 184.729 538C184.173 539.528 183.661 540.848 183.195 542.049C181.329 546.857 180.208 549.746 180.034 556.373C179.982 558.351 180.108 560.285 180.235 562.221C180.341 563.854 180.448 565.488 180.448 567.152C180.448 598.738 171.837 626.521 162.834 655.567C160.628 662.686 158.398 669.881 156.265 677.226C155.556 679.67 154.825 682.091 154.097 684.502C151.645 692.626 149.225 700.646 147.739 709.133C146.293 717.4 146.797 724.5 150.797 731.5Z" fill="#C4C4C4"/>
<path fill-rule="evenodd" clip-rule="evenodd" d="M348.502 31.5738C327.215 13.7247 300.251 0.9629 272.11 1.5174C242.281 2.10516 214.538 20.2545 197.068 43.6969C182.841 62.7886 174.036 84.7086 176.159 108.629C177.042 118.576 178.288 126.429 179.85 136.279C180.456 140.101 181.11 144.224 181.809 148.887C183.813 162.255 186.644 175.279 190.083 188.346C191.745 194.376 192.47 197.347 193.653 203.483C193.88 204.662 194.089 205.837 194.297 207.006C195.099 211.525 195.886 215.959 197.676 220.181C200.732 227.389 205.666 232.873 211.631 237.978C223.001 247.709 235.244 255.785 248.333 263.001C250.176 263.962 252.021 264.007 253.759 263.731C254.631 263.592 255.47 263.373 256.268 263.151C256.426 263.106 256.584 263.062 256.741 263.017C257.361 262.842 257.961 262.672 258.507 262.558C262.022 261.822 265.401 260.655 268.816 259.476C269.955 259.083 271.098 258.688 272.251 258.308C279.301 255.982 286.121 253.153 292.974 250.311C294.252 249.78 295.532 249.249 296.815 248.721C297.07 248.616 297.363 248.738 297.468 248.993C297.573 249.249 297.451 249.541 297.196 249.646C295.918 250.172 294.641 250.702 293.364 251.231C286.639 254.021 279.908 256.813 272.959 259.127C274.519 270.767 274.495 282.524 274.471 294.212C274.468 295.645 274.465 297.077 274.465 298.508C274.465 298.684 274.372 298.848 274.221 298.938C274.07 299.028 273.882 299.032 273.727 298.948C249.366 285.78 218.689 283.688 199.937 305.565C184.916 323.089 178.75 346.757 173.238 368.805C159.078 425.447 151.954 479.897 147.484 538.014C147.481 538.052 147.474 538.089 147.462 538.126C144.451 547.66 141.445 554.341 136.966 563.428C131.403 574.713 127.983 587.808 126.453 600.27C124.953 612.481 124.177 624.763 123.399 637.066L123.396 637.109C122.618 649.421 121.837 661.755 120.326 674.032C114.986 717.431 106.867 760.438 97.4502 803.103C97.6298 803.766 97.7538 804.259 97.8469 804.634C97.9412 804.987 98.0371 805.34 98.1344 805.692C98.2038 805.864 98.2799 805.96 98.5651 806.319C98.6148 806.381 98.6709 806.452 98.7345 806.532C99.1566 807.067 99.8409 807.964 101.019 809.731C102.032 811.25 103.272 812.446 104.55 813.678C104.687 813.81 104.825 813.943 104.963 814.077C106.373 815.443 107.789 816.889 108.824 818.843C109.392 819.916 109.968 821.029 110.554 822.163C113.158 827.198 115.971 832.64 119.253 836.742C120.362 838.129 121.486 838.726 122.678 838.841C123.899 838.959 125.269 838.58 126.878 837.849C128.17 837.262 129.184 836.823 129.999 836.474L130.317 836.337C130.979 836.054 131.492 835.834 131.921 835.634C132.838 835.205 133.336 834.882 133.989 834.246C137.244 820.377 141.025 808.502 144.866 796.44C145.17 795.484 145.475 794.526 145.78 793.567C144.782 791.957 143.165 789.799 141.098 788.447C140.028 787.748 138.854 787.275 137.593 787.19C136.337 787.107 134.959 787.406 133.471 788.307C132.528 788.878 131.606 789.38 130.72 789.861L130.682 789.882C129.807 790.357 128.971 790.811 128.167 791.3C126.542 792.289 125.069 793.411 123.771 795.079C122.677 796.487 122.203 798.342 122.144 800.222C122.085 802.099 122.441 803.95 122.953 805.298C122.957 805.309 122.961 805.32 122.964 805.332C123.691 807.756 124.748 808.977 125.891 809.494C127.043 810.015 128.415 809.884 129.905 809.305C132.9 808.142 136.034 805.305 137.945 803.48C138.145 803.289 138.461 803.296 138.652 803.496C138.843 803.696 138.835 804.012 138.636 804.203C136.742 806.011 133.474 808.992 130.267 810.237C128.656 810.863 126.978 811.083 125.479 810.405C123.976 809.725 122.784 808.202 122.011 805.636C121.457 804.168 121.081 802.194 121.145 800.191C121.208 798.182 121.714 796.095 122.982 794.465C124.379 792.67 125.96 791.473 127.647 790.446C128.471 789.945 129.324 789.481 130.19 789.011L130.243 788.982C131.13 788.5 132.033 788.009 132.953 787.452C134.601 786.454 136.181 786.094 137.66 786.193C139.133 786.291 140.47 786.842 141.645 787.61C143.586 788.879 145.126 790.769 146.173 792.331C148.759 784.177 151.349 775.825 153.806 766.604C155.598 759.878 156.866 754.939 158.002 749.602C157.446 747.433 154.943 739.056 150.565 732.246C150.56 732.238 150.556 732.231 150.551 732.223C146.476 725.092 145.975 717.865 147.435 709.522C148.926 701.002 151.358 692.944 153.812 684.815C154.539 682.408 155.267 679.995 155.973 677.562C158.111 670.197 160.345 662.99 162.554 655.864C171.553 626.825 180.137 599.13 180.137 567.627C180.137 565.981 180.031 564.362 179.924 562.727L179.894 562.274C179.779 560.49 179.673 558.683 179.722 556.835C179.899 550.117 181.051 547.15 182.924 542.325C183.379 541.153 183.876 539.872 184.412 538.401C183.043 514.039 182.809 493.115 184.418 467.438C186.568 433.14 191.038 398.87 195.505 364.829C195.541 364.556 195.792 364.363 196.066 364.399C196.34 364.435 196.533 364.686 196.497 364.96C192.029 399.005 187.564 433.242 185.416 467.5C183.808 493.166 184.044 514.073 185.416 538.447C185.829 545.771 186.401 555.246 186.984 562.937C186.986 562.964 186.986 562.992 186.983 563.019C186.618 567.224 186.309 571.441 186.001 575.66C185.08 588.25 184.158 600.864 181.703 613.295C181.1 616.347 180.494 619.4 179.889 622.455C173.189 656.242 166.457 690.189 162.854 724.415C161.852 734.232 160.62 742.09 159.005 749.696C157.856 755.103 156.578 760.085 154.772 766.861C152.207 776.491 149.497 785.171 146.803 793.651C146.475 794.683 146.147 795.712 145.82 796.739C141.965 808.846 138.183 820.725 134.929 834.614C125.878 873.252 119.696 917.802 119.308 957.458C118.905 998.582 121.483 1039.47 126.845 1080.22C130.517 1106.51 131.764 1128.98 133.076 1152.59C133.795 1165.55 134.534 1178.85 135.702 1193.32C138.537 1228.42 141.037 1264.06 139.77 1299.3C139.69 1301.53 139.616 1303.74 139.542 1305.95C138.74 1330.05 137.975 1353.02 129.454 1376.15C129.438 1376.19 129.416 1376.23 129.389 1376.27C129.374 1376.29 129.358 1376.31 129.341 1376.33C100.032 1406.03 67.5298 1431.97 24.9179 1439.07C22.7157 1439.53 14.9419 1441.3 8.92156 1444.47C5.89832 1446.07 3.40053 1447.98 2.22547 1450.17C1.64469 1451.26 1.38786 1452.42 1.54579 1453.65C1.70434 1454.9 2.28598 1456.26 3.44546 1457.75C8.38084 1464.1 15.8465 1467.04 23.8986 1468.64C27.9212 1469.44 32.0711 1469.9 36.102 1470.28C36.9748 1470.37 37.8426 1470.45 38.7024 1470.53C41.7999 1470.81 44.794 1471.09 47.543 1471.48C47.5472 1471.48 47.5513 1471.48 47.5555 1471.48L48.8292 1471.6C58.0109 1472.45 62.921 1472.9 72.8525 1471.41C77.6053 1469.94 82.4024 1468.67 87.1911 1467.4L87.5758 1467.3C92.2513 1466.07 96.9176 1464.83 101.544 1463.42C102.843 1463.02 104.165 1462.62 105.508 1462.2C118.728 1458.12 133.895 1453.43 147.534 1453.43C150.575 1453.43 151.944 1453.47 153.372 1453.65C154.14 1453.74 154.934 1453.88 156.024 1454.06C156.924 1454.21 158.025 1454.39 159.481 1454.62H159.492H159.502C166.582 1456.02 172.171 1457.1 177.546 1456.97C182.897 1456.83 188.055 1455.5 194.241 1452.04C194.251 1452.03 194.261 1452.03 194.271 1452.02C194.279 1452.02 194.287 1452.02 194.294 1452.01C196.304 1451.19 197.581 1449.87 198.352 1448.28C199.129 1446.67 199.403 1444.74 199.348 1442.7C199.238 1438.61 197.813 1434.17 196.712 1431.15C192.216 1418.78 190.874 1410.09 190.192 1404.41C187.427 1381.36 189.229 1358.45 193.608 1335.72C195.44 1326.21 197.74 1316.81 200.071 1307.43L200.613 1305.25C202.767 1296.6 204.917 1287.96 206.727 1279.24C211.669 1255.43 214.662 1231.05 216.293 1206.77C216.667 1201.2 216.25 1195.55 215.829 1189.85C215.772 1189.08 215.715 1188.3 215.66 1187.52C215.199 1181.06 214.873 1174.55 215.871 1168.17C216.896 1161.6 217.253 1159.82 218.074 1155.72C218.354 1154.33 218.688 1152.66 219.121 1150.44C219.124 1150.42 219.127 1150.41 219.131 1150.4C226.647 1124.43 232.002 1098.03 234.198 1071.07C234.928 1062.1 235.095 1053.09 235.262 1044.06C235.279 1043.13 235.297 1042.21 235.314 1041.29C235.505 1031.34 235.766 1021.37 236.855 1011.47C237.37 1006.8 237.409 997.761 237.453 987.399C237.472 982.82 237.492 977.982 237.556 973.145C237.659 965.272 237.875 957.418 238.388 950.739C238.899 944.081 239.707 938.524 241.022 935.287C243.256 929.788 245.757 924.322 248.897 919.242C251.176 915.556 254.332 914.35 258.011 912.943C258.212 912.866 258.416 912.788 258.62 912.71C258.657 912.695 258.696 912.686 258.735 912.681L259.304 912.607C263.147 912.109 266.213 911.711 269.202 911.941C272.222 912.173 275.143 913.041 278.729 915.038C281.272 916.455 282.815 917.607 284.105 918.927C285.152 919.998 286.026 921.176 287.127 922.658C287.363 922.976 287.61 923.307 287.87 923.655C290.059 926.042 292.652 929.965 295.449 934.763C298.258 939.581 301.29 945.314 304.348 951.325C307.405 957.337 310.49 963.634 313.403 969.581L313.464 969.706C316.355 975.608 319.074 981.159 321.43 985.747C325.187 993.063 328.199 999.153 330.903 1004.62C335.048 1013 338.473 1019.93 342.757 1027.58C362.149 1062.21 378.163 1098.88 394.093 1135.35C399.215 1147.08 404.328 1158.79 409.542 1170.4C409.554 1170.43 409.564 1170.45 409.571 1170.48C415.18 1192.92 420.555 1208.95 430.2 1230.05C439.808 1251.06 448.148 1272.78 454.525 1294.98C460.199 1314.73 465.709 1334.38 469.914 1354.53C472.798 1368.36 474.296 1377.98 475.948 1388.59C476.984 1395.25 478.081 1402.29 479.62 1411.01C482.158 1426.03 483.096 1440.71 483.096 1455.88C483.096 1456.92 483.03 1458.14 482.96 1459.44C482.931 1459.96 482.902 1460.5 482.877 1461.04C482.787 1462.95 482.736 1464.97 482.885 1466.9C483.185 1470.8 484.283 1474.17 487.293 1475.7C490.788 1477.48 494.745 1477.45 498.886 1477.09C499.689 1477.02 500.5 1476.93 501.315 1476.85C504.657 1476.51 508.07 1476.16 511.265 1476.65C514.353 1477.13 517.264 1478.25 520.109 1479.42C520.504 1479.59 520.898 1479.75 521.291 1479.91C523.741 1480.94 526.154 1481.94 528.657 1482.6C534.791 1484.21 544.618 1486.4 552.231 1488C551.983 1487.85 551.74 1487.68 551.503 1487.51C549.938 1486.38 548.62 1484.88 547.37 1482.8C547.227 1482.56 547.304 1482.26 547.541 1482.11C547.778 1481.97 548.085 1482.05 548.227 1482.29C549.424 1484.28 550.657 1485.67 552.089 1486.7C553.522 1487.74 555.182 1488.44 557.261 1489.04C558.574 1489.41 559.871 1489.97 561.145 1490.52C561.538 1490.69 561.929 1490.86 562.317 1491.02C563.988 1491.72 565.65 1492.31 567.414 1492.45C569.198 1492.59 570.943 1493.03 572.652 1493.47C572.853 1493.52 573.054 1493.57 573.255 1493.62C575.172 1494.1 577.058 1494.53 579.012 1494.53C579.826 1494.53 580.637 1494.54 581.443 1494.55C585.334 1494.6 589.131 1494.65 592.774 1493.51C597.386 1492.07 603.484 1491.06 608.299 1491.06C610.13 1491.06 612.319 1490.87 614.423 1490.39C616.533 1489.91 618.52 1489.14 619.977 1488.01C623.142 1485.54 624.293 1481.61 624.293 1477.69C624.293 1474.48 623.61 1472.43 622.256 1470.81C620.878 1469.17 618.766 1467.92 615.762 1466.42C598.89 1457.99 584.649 1448.84 570.997 1435.74C569.765 1434.55 568.508 1433.37 567.241 1432.17C560.908 1426.21 554.331 1420.01 549.501 1412.76C546.086 1407.64 541.844 1400.85 539.03 1395.37C539.025 1395.36 539.021 1395.36 539.017 1395.35C522.454 1358.08 509.795 1319.05 506.375 1278.19C505.694 1270.06 505.119 1261.91 504.543 1253.76C502.836 1229.57 501.126 1205.36 496.671 1181.59C496.467 1180.51 496.243 1179.33 496.006 1178.08C494.615 1170.75 492.794 1161.15 492.097 1154.87C491.608 1150.47 490.476 1145.93 489.372 1141.51C489.142 1140.58 488.912 1139.66 488.691 1138.75C485.957 1127.51 485.035 1120.49 484.602 1116.02C482.34 1092.65 478.322 1069.5 474.302 1046.34C473.126 1039.56 471.95 1032.78 470.817 1026C467.667 1007.13 464.913 988.202 462.161 969.28C461.911 967.562 461.661 965.845 461.411 964.128C458.405 943.488 455.358 922.862 451.753 902.322C450.874 897.314 450.006 892.318 449.139 887.332C439.868 833.976 430.809 781.844 411.25 730.888L411.246 730.878C402.403 706.225 394.29 681.757 390.179 655.725C389.044 648.532 387.735 641.341 386.424 634.141C383.967 620.644 381.503 607.112 380.163 593.464C376.549 556.649 376.599 530.492 376.665 496.206C376.674 491.451 376.684 486.54 376.684 481.423V481.419C376.699 479.161 376.71 476.917 376.722 474.686C376.901 440.94 377.063 410.16 388.011 377.317C388.038 377.236 388.085 377.164 388.148 377.107C388.889 376.427 389.64 375.677 390.417 374.901L390.444 374.873C391.228 374.09 392.038 373.282 392.878 372.51C394.553 370.97 396.38 369.546 398.431 368.726C401.42 367.53 404.61 366.762 407.719 366.122C415.918 364.434 424.541 363.342 432.959 364.166C441.815 365.032 450.497 366.841 459.156 368.645L459.169 368.648L459.422 368.701C469.252 370.748 479.327 371.139 489.397 371.358C492.619 371.428 495.841 371.47 499.064 371.512C505.063 371.591 511.065 371.669 517.077 371.928C520.842 372.09 524.61 372.383 528.368 372.676C529.176 372.738 529.984 372.801 530.791 372.863C535.356 373.211 539.909 373.516 544.457 373.546C555.937 373.622 567.218 372.81 578.428 370.291C583.371 369.18 587.662 367.442 590.006 362.815C590.474 360.196 590.519 358.177 590.214 356.222C589.905 354.242 589.233 352.301 588.236 349.833C588.011 349.277 587.771 348.709 587.527 348.131C586.54 345.794 585.485 343.295 585.088 340.79C583.833 332.885 582.265 323.593 578.024 316.878C571.945 307.252 566.377 299.801 556.884 293.404C553.558 291.162 550.14 289.104 546.708 287.037C546.13 286.689 545.552 286.341 544.975 285.992C540.968 283.571 536.966 281.098 533.127 278.284C528.936 275.213 524.831 272.297 520.723 269.379L520.665 269.338C516.538 266.406 512.408 263.472 508.19 260.378C501.797 255.691 498.67 252.941 494.047 248.876C492.908 247.875 491.679 246.793 490.287 245.584C486.467 242.263 482.346 239.354 478.188 236.452L477.5 235.972C473.574 233.234 469.629 230.482 465.924 227.395C464.548 226.248 463.167 225.104 461.785 223.959C452.141 215.971 442.448 207.943 434.008 198.598C432.409 196.828 430.591 195.155 428.742 193.453C428.222 192.974 427.7 192.494 427.18 192.008C424.82 189.806 422.506 187.509 420.717 184.907C418.41 181.552 416.671 179.687 414.701 178.14C413.284 177.027 411.752 176.079 409.782 174.86C408.984 174.367 408.115 173.829 407.152 173.218C401.759 170.485 398.992 167.905 395.436 163.379C394.733 162.485 394.045 161.595 393.362 160.712C391.062 157.737 388.817 154.834 386.26 152.079C383.334 148.929 379.848 146.731 375.578 146.843C373.292 146.903 370.962 147.572 368.639 148.449C367.479 148.888 366.329 149.374 365.191 149.859L364.995 149.943C363.927 150.398 362.868 150.849 361.835 151.247C360.825 151.635 359.85 152.087 358.855 152.548C358.31 152.801 357.759 153.056 357.192 153.306C355.614 154.001 353.964 154.625 352.169 154.901C351.927 154.939 351.686 154.976 351.446 155.012C347.078 155.682 343.103 156.292 338.81 157.613C337.545 158.002 336.331 158.986 335.428 160.228C334.524 161.471 333.977 162.909 333.977 164.149C333.977 165.465 333.982 167.82 335.392 170.181C336.387 171.329 336.839 171.843 337.397 172.234C337.935 172.611 338.581 172.878 339.953 173.424C341.794 172.428 343.703 171.363 345.647 170.278C350.635 167.494 355.864 164.575 360.821 162.345C367.171 159.487 374.067 161.163 380.653 163.504C380.662 163.507 380.672 163.511 380.681 163.515C380.689 163.519 380.698 163.523 380.707 163.527C383.31 164.812 386.1 166.029 388.907 167.253L389.464 167.496C392.454 168.8 395.448 170.117 398.213 171.53C398.459 171.656 398.556 171.957 398.431 172.203C398.305 172.449 398.004 172.546 397.758 172.42C395.024 171.024 392.056 169.717 389.065 168.412L388.503 168.167C385.71 166.949 382.908 165.728 380.29 164.437C373.724 162.104 367.181 160.579 361.231 163.257C356.316 165.468 351.15 168.352 346.177 171.128C344.151 172.259 342.156 173.372 340.225 174.414L340.223 174.415L339.631 174.742L339.629 174.743C339.421 174.86 339.244 174.963 339.074 175.062C338.637 175.316 338.244 175.545 337.489 175.923C336.023 176.746 332.284 178.984 329.545 181.63C328.167 182.961 327.09 184.35 326.65 185.672C326.433 186.326 326.376 186.949 326.5 187.538C326.625 188.126 326.937 188.715 327.514 189.292C329.597 191.376 332.271 192.018 335.169 191.902C338.08 191.785 341.163 190.904 343.996 189.993C347.214 188.959 350.118 187.336 352.935 185.636C353.473 185.311 354.01 184.983 354.545 184.655C356.792 183.28 359.017 181.917 361.295 180.879C363.639 179.81 366.07 179.068 368.697 178.986C371.329 178.905 374.129 179.488 377.209 181.028C377.229 181.038 377.248 181.049 377.267 181.062C379.561 182.622 381.356 184.515 383.108 186.364L383.111 186.368C384.872 188.225 386.589 190.037 388.767 191.525C390.242 192.533 391.281 193.449 392.486 194.835C394.101 193.722 395.6 192.496 396.888 191.052C397.072 190.846 397.388 190.828 397.594 191.011C397.8 191.195 397.818 191.511 397.634 191.717C396.175 193.353 394.473 194.707 392.676 195.915C391.001 197.04 389.22 198.054 387.471 199.049C386.701 199.487 385.937 199.922 385.192 200.361C382.386 202.013 379.49 203.52 376.608 205.02C375.979 205.347 375.351 205.674 374.725 206.002C371.22 207.836 367.763 209.709 364.498 211.885C363.22 212.738 362.228 213.752 361.466 215.101C361.197 215.576 361.196 216.08 361.337 216.654C361.408 216.944 361.512 217.24 361.629 217.549C361.742 217.848 361.873 218.175 361.977 218.486C364.033 224.655 365.084 226.973 367.986 232.776C367.992 232.787 367.997 232.798 368.001 232.809C368.257 233.428 368.969 234.507 369.778 235.581C370.196 236.137 370.625 236.672 371.007 237.118C371.07 234.249 372.18 231.002 374.756 228.941C376.257 227.74 377.825 226.62 379.381 225.508C379.587 225.36 379.793 225.213 379.999 225.066C381.761 223.804 383.499 222.537 385.132 221.143C389.634 217.298 393.363 212.728 397.077 208.071C397.25 207.855 397.564 207.82 397.78 207.992C397.996 208.164 398.031 208.479 397.859 208.695C394.148 213.347 390.365 217.988 385.781 221.903C384.113 223.328 382.344 224.616 380.581 225.879C380.375 226.026 380.169 226.174 379.963 226.321C378.404 227.435 376.86 228.539 375.381 229.722C372.719 231.852 371.765 235.481 372.054 238.391C372.205 239.915 372.728 240.914 373.447 242.286C373.657 242.688 373.885 243.122 374.124 243.61C375.397 246.204 377.057 249.011 379.148 250.912C380.1 251.777 381.373 252.199 382.767 252.357C384.16 252.515 385.629 252.405 386.928 252.248C391.148 251.736 395.263 249.975 398.741 247.394C400.436 246.137 401.978 244.686 403.303 243.096C403.48 242.884 403.795 242.855 404.007 243.032C404.219 243.209 404.248 243.524 404.071 243.736C402.829 245.227 401.406 246.597 399.85 247.808C405.413 252.241 411.083 254.664 418.102 256.089C419.966 256.468 421.86 256.645 423.783 256.8C424.024 256.82 424.265 256.839 424.507 256.858C426.189 256.992 427.892 257.127 429.583 257.386C431.109 257.62 432.814 258.039 434.523 258.52C432.292 257.434 430.058 256.37 427.77 255.405C424.286 253.935 420.774 252.262 417.533 250.268C416.755 249.789 415.971 249.355 415.173 248.913C414.586 248.588 413.992 248.259 413.388 247.906C411.994 247.09 410.624 246.183 409.44 245.016C407.629 243.23 405.75 241.512 403.861 239.788L403.788 239.721C402.033 238.118 400.27 236.508 398.56 234.842C398.258 235.067 397.948 235.285 397.628 235.496C397.436 235.622 397.244 235.748 397.053 235.874C392.593 238.81 388.393 241.575 382.829 242.459C382.556 242.502 382.3 242.316 382.257 242.043C382.213 241.771 382.399 241.514 382.672 241.471C388.019 240.622 392.054 237.967 396.556 235.004C396.729 234.89 396.904 234.775 397.079 234.66C397.398 234.45 397.709 234.231 398.012 234.003C398.029 233.906 398.074 233.812 398.149 233.737C398.257 233.627 398.403 233.578 398.545 233.589C399.377 232.923 400.162 232.2 400.96 231.444C401.046 231.363 401.135 231.279 401.225 231.194C401.558 230.882 401.914 230.548 402.248 230.196C402.675 229.747 403.033 229.303 403.24 228.889C403.364 228.642 403.664 228.542 403.911 228.665C404.158 228.789 404.258 229.089 404.135 229.336C403.861 229.884 403.421 230.414 402.973 230.885C402.617 231.26 402.233 231.62 401.898 231.934C401.811 232.016 401.727 232.095 401.647 232.17C400.903 232.875 400.152 233.569 399.355 234.22C401.023 235.841 402.743 237.412 404.47 238.989L404.535 239.049C406.422 240.772 408.315 242.503 410.142 244.304C411.238 245.385 412.526 246.243 413.893 247.043C414.447 247.367 415.029 247.69 415.616 248.015C416.441 248.473 417.276 248.936 418.057 249.416C421.239 251.374 424.7 253.024 428.158 254.483C430.992 255.679 433.765 257.035 436.525 258.384C437.936 259.073 439.343 259.761 440.752 260.425C442.923 261.447 445.11 262.418 447.35 263.263C448.438 263.674 449.505 264.126 450.563 264.574C450.743 264.65 450.923 264.726 451.103 264.802C452.341 265.325 453.57 265.832 454.832 266.264C457.43 267.152 460.19 268.445 462.438 270.075C467.389 273.664 472.222 277.934 476.099 282.706C481.278 289.08 486.48 295.708 491.074 302.539C497.367 311.895 502.245 322.203 506.757 332.467C506.909 332.814 507.061 333.161 507.213 333.507C509.439 338.58 511.619 343.55 514.597 348.199C517.839 353.26 522.124 356.683 526.918 360.349C527.137 360.516 527.179 360.83 527.011 361.049C526.843 361.269 526.53 361.311 526.31 361.143C521.52 357.479 517.102 353.964 513.755 348.739C510.733 344.021 508.523 338.983 506.304 333.925C506.15 333.573 505.996 333.221 505.841 332.87C501.366 322.688 496.553 312.519 490.376 303.292C489.213 303.191 486.592 303.113 483.544 303.022C482.358 302.987 481.108 302.95 479.854 302.909C477.511 302.832 475.165 302.741 473.233 302.621C471.324 302.503 469.757 302.355 469.013 302.148C467.192 301.642 465.227 301.447 463.21 301.308C462.772 301.278 462.33 301.251 461.887 301.224C460.308 301.126 458.713 301.027 457.189 300.802C452.112 300.053 447.03 299.339 441.946 298.637C437.527 298.028 433.128 297.363 428.734 296.698C422.368 295.736 416.011 294.774 409.615 293.986C397.417 292.482 385.474 291.18 373.192 291.18C369.568 291.18 365.954 290.971 362.363 290.764L362.349 290.763C358.758 290.556 355.191 290.35 351.633 290.35C351.307 290.35 350.91 290.369 350.451 290.39C350.148 290.405 349.817 290.42 349.461 290.432C348.59 290.462 347.608 290.47 346.66 290.376C345.717 290.281 344.772 290.083 343.99 289.678C343.195 289.266 342.555 288.631 342.284 287.684C342.101 287.041 341.795 286.404 341.462 285.709L341.426 285.635C341.086 284.927 340.724 284.162 340.508 283.345C339.922 281.131 339.426 279.159 339.077 277.74C338.902 277.031 338.764 276.459 338.669 276.065C338.643 275.956 338.62 275.86 338.601 275.778L338.561 275.612L338.526 275.464L338.524 275.454C338.521 275.44 338.518 275.425 338.516 275.41C336.884 263.987 335.244 251.493 338.158 239.999C338.787 237.518 339.35 235.011 339.914 232.497C341.16 226.951 342.413 221.376 344.392 215.995C345.632 212.623 347.222 209.429 348.804 206.251C349.582 204.69 350.357 203.134 351.087 201.562C352.52 198.478 354.146 195.23 355.775 191.977L356.094 191.338C357.609 188.312 359.115 185.289 360.466 182.389C358.679 183.298 356.912 184.379 355.091 185.494C354.55 185.825 354.004 186.159 353.451 186.493C350.623 188.199 347.637 189.873 344.303 190.945C341.466 191.857 338.269 192.778 335.209 192.901C332.138 193.024 329.152 192.344 326.807 190C326.111 189.303 325.691 188.546 325.522 187.745C325.353 186.947 325.44 186.142 325.702 185.357C326.218 183.803 327.434 182.278 328.85 180.91C331.692 178.166 335.536 175.873 337.01 175.045L337.013 175.043L337.031 175.033L338.819 174.047C337.928 173.685 337.339 173.414 336.824 173.053C336.148 172.58 335.61 171.959 334.656 170.858L334.607 170.803C334.589 170.781 334.572 170.758 334.557 170.733C332.977 168.114 332.977 165.503 332.977 164.162V164.149C332.977 162.642 333.628 161.003 334.619 159.64C335.61 158.276 336.989 157.127 338.516 156.657C342.881 155.314 346.923 154.694 351.276 154.027C351.522 153.989 351.769 153.951 352.017 153.913C353.683 153.657 355.238 153.073 356.789 152.391C357.317 152.158 357.851 151.911 358.389 151.662C359.406 151.191 360.438 150.713 361.476 150.313C362.492 149.923 363.535 149.478 364.608 149.021L364.799 148.939C365.936 148.455 367.104 147.96 368.286 147.514C370.646 146.622 373.099 145.908 375.552 145.844C379.784 145.732 383.255 147.707 386.122 150.506C386.1 147.816 385.968 143.868 385.177 140.401C384.716 138.376 384.039 136.562 383.064 135.265C382.102 133.985 380.864 133.22 379.226 133.22C377.503 133.22 376.072 133.622 375.083 134.892C374.94 135.077 374.687 135.137 374.476 135.038C374.264 134.938 374.15 134.705 374.201 134.477C374.591 132.719 375.266 131.031 375.926 129.381C375.989 129.224 376.051 129.068 376.113 128.913C376.836 127.097 377.512 125.313 377.811 123.428C378.912 116.492 379.539 112.014 379.539 105V104.988C379.75 96.5595 379.749 91.0908 379.109 85.625C378.471 80.1654 377.194 74.692 374.835 66.2644C369.583 52.3621 359.802 41.0491 348.502 31.5738ZM387.126 151.543C389.662 154.291 391.905 157.192 394.171 160.123C394.85 161.001 395.531 161.881 396.222 162.761C399.712 167.203 402.373 169.678 407.626 172.337C407.64 172.344 407.654 172.352 407.668 172.361C408.605 172.956 409.463 173.487 410.259 173.979C412.254 175.214 413.855 176.204 415.318 177.353C417.389 178.98 419.195 180.927 421.541 184.34C423.264 186.847 425.509 189.081 427.862 191.277C428.37 191.751 428.885 192.225 429.4 192.699C431.254 194.405 433.117 196.12 434.75 197.928C443.138 207.214 452.771 215.194 462.42 223.186C463.802 224.331 465.185 225.477 466.564 226.626C470.235 229.686 474.148 232.415 478.081 235.158L478.76 235.632C482.915 238.532 487.078 241.469 490.943 244.829C492.342 246.045 493.575 247.129 494.716 248.132C499.332 252.191 502.426 254.912 508.781 259.572C512.992 262.66 517.117 265.59 521.244 268.522L521.31 268.569C525.414 271.485 529.523 274.403 533.718 277.478C537.518 280.263 541.487 282.716 545.492 285.136C546.067 285.484 546.644 285.831 547.221 286.178C550.651 288.244 554.094 290.318 557.443 292.575C567.107 299.088 572.764 306.677 578.87 316.344C583.24 323.264 584.828 332.773 586.075 340.634C586.452 343.006 587.444 345.358 588.426 347.685C588.675 348.278 588.925 348.869 589.163 349.458C590.166 351.941 590.875 353.969 591.202 356.068C591.531 358.175 591.472 360.327 590.977 363.064C590.969 363.111 590.954 363.156 590.932 363.199C588.384 368.295 583.682 370.135 578.647 371.267C567.342 373.807 555.981 374.623 544.45 374.546C539.865 374.516 535.283 374.208 530.715 373.86C529.904 373.798 529.095 373.735 528.285 373.672C524.528 373.38 520.78 373.088 517.034 372.927C511.036 372.669 505.061 372.591 499.073 372.513C495.847 372.47 492.616 372.428 489.376 372.358C479.305 372.139 469.148 371.748 459.218 369.679L458.965 369.627C450.293 367.82 441.66 366.022 432.862 365.161C424.587 364.352 416.076 365.423 407.921 367.102C404.827 367.739 401.707 368.492 398.803 369.654C396.92 370.407 395.201 371.733 393.554 373.247C392.733 374.002 391.937 374.796 391.151 375.581C390.4 376.331 389.657 377.075 388.919 377.756C378.064 410.396 377.901 440.991 377.722 474.725C377.71 476.945 377.698 479.178 377.684 481.426C377.684 486.544 377.674 491.456 377.665 496.209C377.599 530.496 377.549 556.603 381.159 593.367C382.495 606.978 384.945 620.433 387.397 633.902C388.71 641.112 390.023 648.325 391.167 655.569C395.261 681.5 403.346 705.891 412.186 730.534C431.78 781.585 440.855 833.811 450.122 887.148C450.99 892.139 451.858 897.139 452.738 902.149C456.346 922.705 459.395 943.344 462.401 963.983C462.651 965.702 462.901 967.42 463.151 969.138C465.903 988.061 468.655 1006.98 471.804 1025.84C472.934 1032.61 474.108 1039.37 475.283 1046.14C479.305 1069.31 483.332 1092.51 485.597 1115.92C486.026 1120.35 486.94 1127.32 489.662 1138.51C489.881 1139.41 490.108 1140.32 490.337 1141.24C491.442 1145.67 492.593 1150.29 493.091 1154.76C493.783 1161 495.595 1170.55 496.987 1177.88C497.224 1179.13 497.449 1180.32 497.653 1181.41C502.121 1205.23 503.836 1229.53 505.544 1253.73C506.119 1261.88 506.693 1270.01 507.371 1278.11C510.779 1318.82 523.391 1357.72 539.926 1394.93C542.715 1400.35 546.929 1407.1 550.333 1412.21C555.094 1419.35 561.571 1425.45 567.902 1431.42C569.175 1432.62 570.443 1433.82 571.689 1435.01C585.25 1448.03 599.4 1457.12 616.209 1465.53C619.205 1467.03 621.496 1468.35 623.022 1470.17C624.572 1472.02 625.293 1474.33 625.293 1477.69C625.293 1481.78 624.094 1486.07 620.591 1488.79C618.973 1490.05 616.829 1490.87 614.646 1491.36C612.457 1491.87 610.192 1492.06 608.299 1492.06C603.595 1492.06 597.597 1493.05 593.073 1494.47C589.263 1495.66 585.276 1495.6 581.382 1495.55C580.587 1495.54 579.797 1495.53 579.012 1495.53C576.922 1495.53 574.93 1495.07 573.011 1494.59C572.81 1494.54 572.61 1494.49 572.41 1494.44C570.69 1494 569.028 1493.58 567.335 1493.45C565.406 1493.29 563.624 1492.65 561.933 1491.94C561.517 1491.77 561.109 1491.59 560.705 1491.42C559.451 1490.88 558.244 1490.36 557.006 1490C549.289 1488.46 536.021 1485.56 528.403 1483.57C525.829 1482.89 523.345 1481.85 520.9 1480.83C520.508 1480.67 520.117 1480.51 519.727 1480.35C516.886 1479.17 514.072 1478.1 511.113 1477.64C508.057 1477.17 504.808 1477.5 501.477 1477.84C500.647 1477.93 499.811 1478.01 498.973 1478.08C494.817 1478.45 490.607 1478.51 486.839 1476.59C483.329 1474.8 482.193 1470.94 481.888 1466.98C481.734 1464.98 481.787 1462.92 481.878 1461C481.904 1460.43 481.934 1459.89 481.963 1459.36C482.032 1458.07 482.096 1456.89 482.096 1455.88C482.096 1440.75 481.161 1426.13 478.635 1411.18C477.089 1402.42 475.99 1395.37 474.954 1388.71C473.306 1378.12 471.816 1368.55 468.935 1354.74C464.739 1334.62 459.238 1315 453.564 1295.25C447.203 1273.11 438.881 1251.44 429.291 1230.46C419.623 1209.31 414.23 1193.23 408.612 1170.77C403.395 1159.15 398.282 1147.44 393.162 1135.72C377.237 1099.26 361.25 1062.66 341.885 1028.07C337.59 1020.4 334.147 1013.44 329.99 1005.03C327.286 999.563 324.279 993.484 320.54 986.204C318.179 981.606 315.456 976.045 312.566 970.145L312.505 970.021C309.592 964.073 306.51 957.783 303.456 951.779C300.402 945.774 297.38 940.061 294.585 935.266C291.785 930.463 289.231 926.614 287.117 924.313C287.106 924.301 287.095 924.288 287.085 924.275C286.81 923.908 286.553 923.562 286.31 923.234C285.212 921.756 284.385 920.644 283.39 919.626C282.187 918.396 280.73 917.298 278.242 915.912C274.763 913.974 271.98 913.157 269.125 912.938C266.25 912.717 263.281 913.1 259.393 913.604L258.923 913.665C258.759 913.728 258.597 913.79 258.436 913.851C254.702 915.282 251.845 916.376 249.748 919.768C246.65 924.78 244.173 930.188 241.949 935.663C240.7 938.737 239.896 944.148 239.385 950.815C238.875 957.462 238.658 965.291 238.556 973.159C238.493 977.946 238.473 982.754 238.453 987.317C238.409 997.719 238.37 1006.85 237.849 1011.58C236.765 1021.43 236.505 1031.35 236.314 1041.31C236.296 1042.23 236.279 1043.15 236.262 1044.08C236.095 1053.1 235.928 1062.15 235.195 1071.15C232.993 1098.18 227.626 1124.64 220.098 1150.65C219.666 1152.87 219.333 1154.53 219.054 1155.93C218.234 1160.02 217.881 1161.78 216.859 1168.32C215.881 1174.58 216.196 1180.99 216.657 1187.45C216.712 1188.23 216.769 1189 216.827 1189.78C217.247 1195.46 217.67 1201.19 217.29 1206.84C215.657 1231.16 212.659 1255.58 207.706 1279.44C205.892 1288.18 203.737 1296.84 201.584 1305.49L201.041 1307.68C198.71 1317.05 196.416 1326.43 194.59 1335.91C190.224 1358.57 188.435 1381.37 191.185 1404.29C191.86 1409.91 193.188 1418.53 197.652 1430.8C198.756 1433.84 200.233 1438.41 200.348 1442.67C200.405 1444.81 200.123 1446.91 199.253 1448.71C198.38 1450.52 196.928 1452 194.704 1452.93C188.401 1456.45 183.093 1457.83 177.57 1457.96C172.067 1458.1 166.368 1457 159.318 1455.6C157.824 1455.37 156.719 1455.19 155.827 1455.04C154.765 1454.86 154.005 1454.73 153.251 1454.64C151.889 1454.48 150.573 1454.43 147.534 1454.43C134.057 1454.43 119.039 1459.07 105.79 1463.16C104.453 1463.57 103.134 1463.98 101.836 1464.38C97.1872 1465.8 92.5007 1467.03 87.8266 1468.27L87.4464 1468.37C82.643 1469.64 77.8535 1470.91 73.1122 1472.38C73.088 1472.39 73.0633 1472.39 73.0383 1472.39C62.9609 1473.91 57.95 1473.45 48.7437 1472.59L47.439 1472.47C47.4307 1472.47 47.4224 1472.47 47.4141 1472.47C44.6887 1472.08 41.7236 1471.81 38.6253 1471.52C37.7621 1471.44 36.8886 1471.36 36.0071 1471.28C31.9705 1470.89 27.7787 1470.43 23.704 1469.62C15.5614 1468.01 7.81006 1465 2.65611 1458.37C1.41567 1456.77 0.740335 1455.24 0.553814 1453.78C0.366665 1452.31 0.676656 1450.95 1.34354 1449.7C2.66379 1447.23 5.38466 1445.21 8.45501 1443.59C14.6153 1440.34 22.518 1438.55 24.7243 1438.09H24.7424C67.0024 1431.05 99.3013 1405.33 128.553 1375.7C136.981 1352.77 137.74 1329.98 138.543 1305.9C138.617 1303.7 138.69 1301.49 138.77 1299.26C140.036 1264.09 137.54 1228.5 134.705 1193.4C133.532 1178.88 132.793 1165.55 132.073 1152.59C130.764 1129.01 129.522 1106.62 125.855 1080.36H125.854C120.486 1039.56 117.905 998.622 118.308 957.448C118.692 918.205 124.736 874.201 133.616 835.845C133.248 836.091 132.848 836.305 132.344 836.54C131.9 836.747 131.37 836.974 130.712 837.256L130.393 837.393C129.581 837.741 128.575 838.176 127.292 838.759C125.633 839.513 124.067 839.98 122.582 839.836C121.326 839.715 120.18 839.164 119.117 838.093C119.024 838.264 118.905 838.418 118.761 838.555C118.379 838.917 117.864 839.111 117.314 839.201C116.223 839.379 114.812 839.179 113.422 838.805C112.017 838.427 110.574 837.856 109.392 837.243C108.801 836.936 108.268 836.614 107.834 836.295C107.41 835.983 107.045 835.647 106.83 835.304C106.066 834.082 105.643 832.825 105.304 831.568C105.187 831.138 105.082 830.715 104.977 830.293C104.771 829.461 104.566 828.635 104.281 827.781C103.622 825.805 102.943 823.827 102.263 821.845C100.471 816.626 98.6673 811.37 97.1837 806.006C97.0999 805.782 97.0294 805.496 96.9263 805.078L96.8796 804.888L96.8783 804.883C96.7322 804.336 96.5895 803.788 96.4507 803.238C96.4316 803.163 96.4305 803.084 96.4472 803.008C105.871 760.322 113.994 717.308 119.334 673.91C120.84 661.667 121.619 649.363 122.398 637.046L122.402 636.989C123.179 624.695 123.957 612.389 125.46 600.148C127.001 587.6 130.446 574.392 136.069 562.985C140.529 553.939 143.508 547.316 146.491 537.879C150.965 479.751 158.094 425.257 172.268 368.562C177.77 346.553 183.979 322.647 199.178 304.914C218.187 282.738 249.033 284.757 273.465 297.674C273.466 296.52 273.469 295.365 273.471 294.211C273.494 282.578 273.518 270.954 271.993 259.447C271.06 259.76 270.125 260.082 269.189 260.406C265.759 261.59 262.294 262.787 258.712 263.536C258.203 263.643 257.648 263.8 257.032 263.974C256.871 264.02 256.706 264.067 256.537 264.114C255.731 264.339 254.847 264.57 253.916 264.718C252.047 265.015 249.963 264.98 247.866 263.885L247.856 263.88C234.719 256.638 222.415 248.523 210.981 238.738C204.955 233.581 199.896 227.978 196.755 220.571C194.917 216.234 194.105 211.658 193.301 207.126C193.096 205.97 192.892 204.818 192.671 203.672C191.494 197.565 190.775 194.62 189.118 188.609L189.117 188.604C185.67 175.508 182.83 162.446 180.82 149.036C180.124 144.394 179.472 140.282 178.867 136.464C177.302 126.599 176.049 118.701 175.163 108.718C173.012 84.4813 181.941 62.3223 196.266 43.0993C213.869 19.4794 241.875 1.11297 272.09 0.517593C300.544 -0.0430676 327.735 12.8558 349.144 30.8075C360.526 40.3509 370.447 51.8029 375.779 65.932C375.784 65.9457 375.788 65.9596 375.792 65.9738C378.158 74.4257 379.454 79.9646 380.103 85.5089C380.751 91.0502 380.75 96.5802 380.539 105.006C380.539 112.096 379.902 116.635 378.799 123.585C378.48 125.592 377.764 127.47 377.042 129.283C376.981 129.436 376.92 129.589 376.859 129.742C376.409 130.869 375.968 131.972 375.614 133.087C376.682 132.428 377.938 132.22 379.226 132.22C381.24 132.22 382.753 133.186 383.863 134.664C384.96 136.124 385.677 138.095 386.152 140.179C387.08 144.246 387.124 148.92 387.126 151.543ZM98.9274 808.456C100.232 812.848 101.716 817.172 103.2 821.493C103.882 823.482 104.565 825.47 105.229 827.464C105.526 828.355 105.748 829.248 105.961 830.103C106.063 830.515 106.164 830.918 106.269 831.307C106.599 832.526 106.991 833.674 107.678 834.774C107.792 834.957 108.037 835.203 108.427 835.49C108.808 835.77 109.294 836.065 109.853 836.355C110.971 836.936 112.348 837.48 113.681 837.839C115.028 838.201 116.273 838.358 117.153 838.214C117.589 838.143 117.888 838.005 118.074 837.829C118.219 837.691 118.325 837.502 118.354 837.219C115.054 833.049 112.219 827.563 109.646 822.585C109.065 821.461 108.497 820.363 107.941 819.311C106.986 817.508 105.671 816.156 104.267 814.795C104.13 814.662 103.991 814.528 103.851 814.394C102.583 813.171 101.264 811.9 100.187 810.286C99.6793 809.524 99.2658 808.928 98.9274 808.456ZM361.88 181.712C360.397 184.96 358.694 188.379 356.989 191.786L356.672 192.419C355.041 195.676 353.421 198.913 351.994 201.983C351.239 203.608 350.451 205.191 349.667 206.763C348.1 209.911 346.552 213.018 345.33 216.341C343.374 221.659 342.147 227.126 340.908 232.639C340.341 235.168 339.77 237.706 339.127 240.245C336.271 251.51 337.868 263.801 339.503 275.247L339.507 275.265L339.534 275.381C339.559 275.484 339.595 275.636 339.642 275.832C339.736 276.224 339.874 276.794 340.048 277.501C340.396 278.915 340.891 280.882 341.475 283.089C341.664 283.801 341.984 284.486 342.328 285.203L342.377 285.306C342.699 285.976 343.038 286.683 343.246 287.41C343.425 288.035 343.842 288.475 344.45 288.79C345.071 289.111 345.873 289.292 346.759 289.381C347.641 289.469 348.57 289.463 349.427 289.433C349.748 289.422 350.065 289.407 350.365 289.393C350.848 289.371 351.288 289.35 351.633 289.35C355.22 289.35 358.812 289.558 362.393 289.764L362.421 289.766C366.016 289.973 369.602 290.18 373.192 290.18C385.54 290.18 397.536 291.489 409.737 292.993C416.139 293.783 422.529 294.749 428.912 295.714C433.305 296.378 437.694 297.042 442.082 297.647C447.169 298.348 452.254 299.063 457.335 299.813C458.813 300.031 460.351 300.126 461.923 300.224C462.372 300.252 462.824 300.28 463.278 300.311C465.304 300.45 467.355 300.65 469.281 301.184C469.902 301.357 471.353 301.503 473.294 301.623C475.212 301.742 477.545 301.832 479.887 301.909C481.109 301.949 482.336 301.986 483.507 302.021C486.014 302.095 488.266 302.162 489.665 302.242C485.241 295.75 480.28 289.437 475.323 283.336C471.515 278.649 466.752 274.437 461.851 270.884C459.705 269.329 457.041 268.076 454.509 267.21C453.211 266.766 451.954 266.247 450.714 265.723C450.533 265.647 450.351 265.57 450.171 265.494C449.113 265.046 448.065 264.602 446.997 264.199C444.734 263.344 442.531 262.368 440.358 261.345C439.841 261.185 439.3 261.016 438.742 260.841C435.741 259.9 432.262 258.809 429.432 258.375C427.779 258.121 426.115 257.989 424.43 257.855C424.188 257.836 423.945 257.817 423.703 257.797C421.777 257.641 419.831 257.461 417.903 257.069C410.663 255.599 404.79 253.074 399.023 248.427C395.488 250.974 391.332 252.721 387.048 253.241C385.726 253.401 384.165 253.522 382.654 253.351C381.144 253.179 379.64 252.71 378.475 251.652C376.24 249.62 374.513 246.673 373.226 244.051C373.015 243.621 372.805 243.221 372.603 242.837C371.89 241.478 371.277 240.311 371.079 238.676C370.532 238.137 369.724 237.172 368.979 236.182C368.18 235.121 367.399 233.96 367.084 233.208C364.173 227.385 363.101 225.021 361.028 218.802C360.959 218.594 360.879 218.385 360.792 218.161C360.76 218.077 360.727 217.991 360.694 217.902C360.574 217.585 360.452 217.244 360.366 216.892C360.192 216.184 360.154 215.39 360.595 214.609C361.443 213.11 362.548 211.983 363.943 211.053C367.255 208.845 370.753 206.952 374.261 205.116C374.892 204.785 375.524 204.456 376.155 204.128C379.036 202.629 381.904 201.136 384.685 199.499C385.458 199.044 386.237 198.601 387.015 198.158C388.583 197.266 390.147 196.376 391.648 195.396C390.533 194.126 389.571 193.285 388.203 192.351C385.937 190.802 384.157 188.925 382.416 187.088L382.382 187.052C380.628 185.201 378.91 183.394 376.732 181.907C373.797 180.446 371.17 179.91 368.728 179.986C366.335 180.06 364.091 180.721 361.88 181.712ZM184.553 540.881C184.305 541.532 184.068 542.143 183.843 542.724C181.984 547.514 180.894 550.326 180.722 556.861C180.674 558.659 180.777 560.424 180.892 562.209L180.922 562.666C181.029 564.296 181.137 565.947 181.137 567.627C181.137 599.296 172.497 627.168 163.491 656.221C161.287 663.333 159.061 670.515 156.934 677.841C156.221 680.297 155.488 682.724 154.759 685.14C152.308 693.259 149.9 701.24 148.42 709.694C146.987 717.882 147.494 724.851 151.413 731.716C155.03 737.346 157.38 743.997 158.441 747.487C159.847 740.532 160.948 733.24 161.859 724.314V724.312C165.467 690.038 172.208 656.046 178.906 622.266C179.513 619.21 180.118 616.155 180.721 613.102C183.164 600.735 184.08 588.208 185 575.635C185.308 571.418 185.617 567.195 185.984 562.972C185.463 556.089 184.95 547.79 184.553 540.881Z" fill="black"/>
</svg>
