<svg width="307" height="170" viewBox="0 0 307 170" fill="none" xmlns="http://www.w3.org/2000/svg">
<path d="M221.5 4.71962C239.066 15.0464 256.154 26.7178 271.264 40.48C285.24 53.2095 289.499 59.3716 299.917 74.9981C306.128 85.5197 306.329 97.5526 305.544 109.559C304.825 120.547 303.668 131.333 300.999 142.043C298.312 152.824 296.057 158.414 292.05 168.72C242 129.22 211 111.72 145.982 105.101C125.932 103.946 105.729 104.984 86.4247 110.88C79.6932 112.935 72.6508 115.347 66.493 118.8C60.2356 122.31 54.9997 126.963 49.8291 131.872C39.4282 131.389 29.7863 130.251 20.5701 124.903C10.5782 119.105 1.6324 110.86 1.30928 98.5006C0.857217 81.2095 15.1462 65.1327 30.2655 58.5506C39.5726 54.4988 49.859 52.2763 59.9575 51.4955C65 51.1056 69.5198 50.6379 72.5 50.7196C75.0654 44.41 81.1055 24.4448 86.9658 20.3752C102.83 9.35851 123.522 5.41549 142.324 3.62476C173.357 0.669296 197 -0.780383 221.5 4.71962Z" fill="#4B484B"/>
<path fill-rule="evenodd" clip-rule="evenodd" d="M221.128 5.66114C196.855 0.239936 173.39 1.67069 142.419 4.62023C123.652 6.40764 103.179 10.3338 87.5362 21.1966C86.2702 22.0757 84.8859 23.9118 83.4655 26.4364C82.0648 28.9263 80.6983 31.9569 79.4234 35.0849C78.1499 38.2093 76.977 41.4076 75.9591 44.2282C75.7815 44.7202 75.6084 45.2017 75.44 45.6697C74.886 47.2103 74.384 48.6059 73.9486 49.7576C75.4076 49.7947 76.4952 49.8176 77.4591 49.8378C80.922 49.9106 82.7894 49.9498 94.5465 50.4966C142.232 52.7143 231.267 64.8425 291.863 166.441C295.412 157.323 297.529 151.831 300.029 141.801C302.677 131.175 303.828 120.458 304.546 109.494C305.329 97.5178 305.102 85.7648 299.07 75.5299C288.683 59.9507 284.474 53.8641 270.591 41.2194C255.587 27.5538 238.61 15.9466 221.128 5.66114ZM288.408 164.589C228.367 66.4868 141.411 54.6782 94.4536 52.4944C82.7208 51.9488 80.8694 51.9099 77.4134 51.8373C76.1601 51.811 74.6958 51.7802 72.4726 51.7192C70.217 51.6574 67.051 51.9189 63.3665 52.2233C62.2964 52.3118 61.1825 52.4038 60.0345 52.4925C50.0248 53.2665 39.8509 55.4683 30.6646 59.4675C23.2612 62.6906 16.0435 68.2494 10.7397 75.1208C5.4358 81.9924 2.0904 90.1154 2.30894 98.4745C2.6179 110.292 11.1602 118.287 21.072 124.038C29.9464 129.188 39.2483 130.36 49.4505 130.853C54.5316 126.041 59.7579 121.431 66.0038 117.928C72.2608 114.419 79.3898 111.982 86.1326 109.923C105.59 103.98 125.922 102.943 146.039 104.103C146.054 104.104 146.069 104.105 146.083 104.106C178.67 107.423 202.787 113.474 225.045 123.671C246.016 133.278 265.291 146.545 288.408 164.589ZM71.8249 49.7104C72.3026 48.4832 72.8829 46.87 73.5522 45.0089C73.7218 44.5375 73.8971 44.0502 74.0779 43.5493C75.0972 40.7247 76.2816 37.4943 77.5713 34.33C78.8596 31.1693 80.2623 28.0511 81.7225 25.4558C83.163 22.8952 84.7313 20.7095 86.3954 19.5538C102.481 8.38317 123.392 4.4233 142.23 2.62924C173.259 -0.325955 197.047 -1.79475 221.719 3.74388C221.82 3.76661 221.917 3.80495 222.007 3.85753C239.61 14.2061 256.76 25.9171 271.937 39.7407C286 52.5487 290.311 58.7864 300.749 74.4434C300.759 74.4585 300.769 74.474 300.778 74.4897C307.156 85.2925 307.328 97.5966 306.541 109.625C305.821 120.635 304.66 131.49 301.969 142.285C299.4 152.594 297.217 158.202 293.567 167.577C293.376 168.068 293.181 168.569 292.982 169.082C292.867 169.378 292.618 169.601 292.312 169.684C292.006 169.768 291.679 169.701 291.43 169.505C266.42 149.767 246.234 135.577 224.212 125.489C202.209 115.409 178.323 109.4 145.902 106.098C125.927 104.949 105.861 105.989 86.7168 111.836C79.9965 113.888 73.0409 116.274 66.9821 119.672C60.8403 123.117 55.68 127.696 50.5176 132.597C50.3202 132.784 50.0548 132.883 49.7828 132.871C39.3501 132.387 29.5031 131.243 20.0682 125.768C9.99617 119.924 0.646921 111.428 0.309627 98.5268C0.0761105 89.5948 3.64916 81.0339 9.1565 73.8987C14.664 66.7635 22.1505 60.9928 29.8663 57.6337C39.2943 53.5293 49.6933 51.2862 59.8804 50.4985C60.9805 50.4134 62.0625 50.3239 63.1136 50.237C66.4723 49.9591 69.5154 49.7074 71.8249 49.7104Z" fill="black"/>
<path d="M119.5 13.2196C116.3 13.6196 108.5 24.7196 105 30.2196C103.539 32.4424 113.923 32.563 120.686 32.3026C121.84 32.2581 122.909 31.6975 123.621 30.7876L130.349 22.19C131.079 21.258 132.18 20.6964 133.363 20.6599C143.877 20.336 162.487 19.9665 165.5 20.7196C167.518 21.2241 168.582 23.7438 169.092 26.2469C169.533 28.4115 171.291 30.2196 173.5 30.2196H182.809C185.579 30.2196 187.483 27.4802 186.315 24.9677C184.418 20.8846 181.745 16.1269 178.917 13.5782C178.646 13.3338 178.354 13.1485 178.009 13.0293C168.75 9.83139 123.425 12.729 119.5 13.2196Z" fill="#F4F4F4"/>
<path d="M172.359 63.2195H164.672C164.227 63.2195 163.795 63.1478 163.374 63.0057C154.107 59.8796 131.411 53.7594 107.734 51.9131C106.087 51.7847 104.672 50.6811 104.175 49.1057L103.644 47.424C102.829 44.8459 104.754 42.2195 107.458 42.2195H118.156C119.859 42.2195 121.375 43.2973 121.934 44.9054L124.066 51.0336C124.625 52.6417 126.141 53.7195 127.844 53.7195H159.075C160.566 53.7195 161.932 52.891 162.622 51.5698L166.378 44.3693C167.068 43.048 168.435 42.2195 169.925 42.2195H181.026C184.221 42.2195 186.126 45.7801 184.354 48.4383L175.688 61.4383C174.946 62.5511 173.697 63.2195 172.359 63.2195Z" fill="#F4F4F4"/>
<path fill-rule="evenodd" clip-rule="evenodd" d="M146.784 12.7408C133.807 13.1267 121.535 13.973 119.624 14.2119C119.453 14.2332 119.137 14.3496 118.658 14.6702C118.197 14.9789 117.662 15.4244 117.068 15.9936C115.879 17.131 114.527 18.6878 113.146 20.4288C110.473 23.7958 107.759 27.7651 106.012 30.4927C106.07 30.5192 106.141 30.5488 106.227 30.5804C106.966 30.8508 108.223 31.0589 109.843 31.1958C113.04 31.4661 117.279 31.433 120.647 31.3033C121.499 31.2705 122.297 30.8562 122.833 30.1713L129.562 21.5737C130.472 20.4097 131.85 19.7061 133.332 19.6604C138.594 19.4983 145.884 19.3247 152.238 19.2859C155.415 19.2665 158.365 19.2807 160.714 19.3474C163.013 19.4126 164.862 19.5293 165.742 19.7495C167.114 20.0924 168.071 21.1003 168.727 22.233C169.384 23.3685 169.805 24.7403 170.072 26.0471C170.442 27.8661 171.879 29.2196 173.5 29.2196H182.808C184.916 29.2196 186.239 27.178 185.408 25.3892C183.514 21.3126 180.912 16.722 178.247 14.321C178.059 14.1514 177.881 14.0431 177.682 13.9745C176.636 13.6133 175.008 13.3177 172.892 13.0936C170.793 12.8714 168.275 12.7252 165.482 12.6405C159.898 12.4709 153.264 12.5481 146.784 12.7408ZM173.103 11.1048C175.252 11.3324 177.066 11.6458 178.335 12.0841C178.826 12.2538 179.232 12.5163 179.586 12.8353C182.578 15.5319 185.321 20.4566 187.222 24.5463C188.726 27.7823 186.242 31.2196 182.808 31.2196H173.5C170.703 31.2196 168.624 28.9569 168.112 26.4467C167.868 25.2504 167.503 24.1108 166.996 23.2346C166.487 22.3555 165.904 21.8514 165.257 21.6898C164.632 21.5334 163.024 21.4138 160.658 21.3466C158.342 21.2809 155.417 21.2665 152.25 21.2858C145.918 21.3245 138.646 21.4976 133.394 21.6595C132.51 21.6867 131.684 22.1063 131.137 22.8063L124.408 31.4039C123.52 32.5387 122.181 33.2457 120.724 33.3018C117.329 33.4326 112.994 33.4694 109.674 33.1887C108.036 33.0502 106.548 32.8277 105.539 32.4585C105.061 32.2833 104.509 32.0132 104.169 31.5475C103.98 31.2879 103.853 30.9624 103.861 30.5913C103.868 30.2357 103.997 29.9267 104.159 29.6774C105.922 26.9082 108.765 22.7309 111.579 19.1855C112.985 17.414 114.401 15.777 115.685 14.5487C116.326 13.9351 116.953 13.4049 117.545 13.0085C118.119 12.6241 118.746 12.306 119.376 12.2273C121.389 11.9757 133.743 11.1278 146.724 10.7417C153.223 10.5484 159.902 10.4701 165.543 10.6414C168.363 10.727 170.935 10.8753 173.103 11.1048ZM102.69 47.7252C101.672 44.5026 104.078 41.2196 107.458 41.2196H118.156C120.284 41.2196 122.179 42.5669 122.879 44.577L125.01 50.7052C125.43 51.9113 126.567 52.7196 127.844 52.7196H159.075C160.193 52.7196 161.218 52.0983 161.735 51.1073L165.492 43.9068C166.353 42.2552 168.062 41.2196 169.925 41.2196H181.026C185.019 41.2196 187.401 45.6703 185.186 48.9931L176.519 61.9931C175.592 63.3841 174.031 64.2196 172.359 64.2196H164.671C164.117 64.2196 163.577 64.1298 163.054 63.9533C153.845 60.847 131.232 54.7486 107.656 52.9102C105.611 52.7507 103.844 51.379 103.221 49.407L102.69 47.7252ZM107.458 43.2196C105.43 43.2196 103.986 45.1894 104.597 47.123L105.128 48.8047C105.5 49.9833 106.563 50.8188 107.812 50.9162C113.276 51.3423 118.686 51.9947 123.893 52.7852C123.566 52.3638 123.303 51.8855 123.121 51.3622L120.99 45.2341C120.57 44.028 119.433 43.2196 118.156 43.2196H107.458ZM134.999 54.7196C147.621 57.1937 158.088 60.1673 163.693 62.0583C164.012 62.166 164.337 62.2196 164.671 62.2196H172.359C173.362 62.2196 174.299 61.7183 174.855 60.8837L183.522 47.8837C184.851 45.89 183.422 43.2196 181.026 43.2196H169.925C168.807 43.2196 167.782 43.841 167.265 44.8319L163.508 52.0325C162.646 53.684 160.938 54.7196 159.075 54.7196H134.999Z" fill="black"/>
<path d="M66.1941 118.81C59.9367 122.319 54.7008 126.972 49.5303 131.881C39.1294 131.399 29.4874 130.26 20.2713 124.913C10.2794 119.115 1.33357 110.87 1.01045 98.51C0.558391 81.2189 14.8473 65.1421 29.9666 58.56C39.2738 54.5082 49.5602 52.2857 59.6586 51.5049C64.7012 51.115 69.221 50.6473 72.2012 50.729C80.5471 50.9579 93 49.9849 109 50.729C156.824 52.9531 231.39 65.929 291.751 168.729C241.701 129.229 210.701 111.729 145.683 105.111C125.633 103.955 105.43 104.993 86.1259 110.889C79.3943 112.945 72.352 115.356 66.1941 118.81Z" fill="#315A69"/>
<path fill-rule="evenodd" clip-rule="evenodd" d="M83.5396 51.6279C79.1919 51.7284 75.3807 51.8165 72.1738 51.7285C69.9182 51.6667 66.7522 51.9282 63.0677 52.2326C61.9976 52.3211 60.8837 52.4131 59.7357 52.5018C49.726 53.2758 39.5521 55.4776 30.3658 59.4768C22.9623 62.6999 15.7447 68.2587 10.4409 75.1302C5.13697 82.0018 1.79158 90.1248 2.01012 98.4839C2.31907 110.301 10.8614 118.296 20.7732 124.048C29.6476 129.197 38.9495 130.369 49.1516 130.862C54.2327 126.051 59.459 121.44 65.705 117.937C71.9619 114.428 79.091 111.992 85.8338 109.933C105.291 103.99 125.623 102.953 145.741 104.112C145.755 104.113 145.77 104.114 145.784 104.116C178.371 107.433 202.488 113.483 224.747 123.68C245.723 133.29 265.003 146.562 288.129 164.615C258.75 116.24 226.225 88.6853 195.221 72.9041C163.235 56.6229 132.797 52.8368 108.954 51.7279C100.986 51.3574 93.8974 51.4141 87.7501 51.5355C86.2961 51.5642 84.8919 51.5967 83.5396 51.6279ZM87.7106 49.5359C93.8762 49.4141 101.014 49.3565 109.046 49.73C133.028 50.8453 163.785 54.6591 196.128 71.1219C228.479 87.589 262.346 116.675 292.613 168.223C292.857 168.637 292.77 169.167 292.408 169.483C292.045 169.799 291.509 169.812 291.131 169.514C266.122 149.776 245.935 135.587 223.914 125.498C201.91 115.418 178.024 109.409 145.604 106.108C125.628 104.958 105.562 105.998 86.418 111.845C79.6977 113.898 72.7421 116.284 66.6833 119.682C60.5415 123.126 55.3811 127.705 50.2188 132.606C50.0213 132.794 49.756 132.893 49.4839 132.88C39.0513 132.396 29.2043 131.252 19.7694 125.777C9.69734 119.933 0.348093 111.438 0.0107985 98.5362C-0.222717 89.6042 3.35033 81.0431 8.85767 73.908C14.3651 66.7728 21.8516 61.0021 29.5675 57.643C38.9955 53.5386 49.3944 51.2955 59.5815 50.5078C60.6817 50.4227 61.7637 50.3332 62.8148 50.2463C66.5261 49.9392 69.852 49.6641 72.2286 49.7293C75.3802 49.8157 79.1195 49.7294 83.4521 49.6293C84.813 49.5979 86.2324 49.5651 87.7106 49.5359Z" fill="black"/>
<path d="M34.0002 75.2195C2.00018 98.0195 31.3335 122.386 50.0002 131.72C41.6668 122.72 33 101.82 65 90.2195C140 65.2195 242.5 125.22 290 167.72C211 66.7195 74.0002 46.7195 34.0002 75.2195Z" fill="#2B2A33"/>
<path fill-rule="evenodd" clip-rule="evenodd" d="M79.7937 64.4459C60.1762 64.9982 44.3463 69.0758 34.5802 76.0341C26.7003 81.6486 22.7237 87.2684 21.3431 92.6046C19.9657 97.9283 21.129 103.137 23.8723 108.031C28.5804 116.429 37.8444 123.71 46.2174 128.546C43.1566 124.02 40.7488 118.062 41.38 111.844C42.2249 103.518 48.4565 95.153 64.659 89.2796L64.6712 89.2751L64.6836 89.271C102.525 76.6574 147.177 85.5121 188.199 102.735C224.587 118.012 258.259 139.932 282.033 159.562C243.473 114.497 193.143 87.049 147.1 73.8686C122.621 66.8615 99.3805 63.8945 79.7937 64.4459ZM147.65 71.9458C196.941 86.0558 251.135 116.409 290.787 167.104L289.333 168.465C265.658 147.282 228.252 121.72 187.425 104.579C146.577 87.4292 102.485 78.784 65.3284 91.1643C49.5403 96.8905 44.1079 104.773 43.3697 112.046C42.6188 119.445 46.6661 126.647 50.7337 131.04L49.5528 132.614C40.1537 127.915 27.9399 119.377 22.1277 109.009C19.2042 103.794 17.8676 98.0528 19.4068 92.1036C20.9429 86.1668 25.2996 80.1909 33.4197 74.4053C43.6536 67.1136 59.9487 63.0038 79.7374 62.4467C99.5569 61.8887 123.003 64.8905 147.65 71.9458Z" fill="black"/>
</svg>
