<svg width="410" height="521" viewBox="0 0 410 521" fill="none" xmlns="http://www.w3.org/2000/svg">
<path d="M331.214 57.2581C337.823 89.6976 342.018 122.432 345.952 155.265C348.297 169.352 351.761 182.95 354.809 197.018C358.255 212.921 360.961 228.844 363.667 244.899C368.87 275.771 375.303 306.424 380.986 337.214C381.514 341.939 382.283 348.162 385.883 350.863C387.945 352.409 390.427 352.43 392.526 353.803C394.067 354.81 395.153 356.513 395.865 358.39C396.484 360.026 396.818 361.794 396.919 363.35C397.507 372.472 395.648 381.879 395.648 391.048C395.498 392.569 395.575 393.305 394.71 394.013C398.168 395.979 399.9 397.87 401.13 401.684C402.372 405.539 403.113 409.475 403.671 413.482C405.652 427.71 406.85 441.995 407.882 456.318C408.744 468.288 409.727 480.607 409.352 492.619C409.187 497.888 406.466 501.561 402.182 504.417C395.53 508.205 387.517 511.545 379.5 514.005C374.644 515.496 369.786 516.663 365.228 517.413C354.892 519.112 343.821 520.492 333.355 519.446C326.632 518.773 320.07 516.374 316.584 510.298C313.167 504.343 311.786 497.316 309.215 490.985C305.599 482.086 302.461 473.001 299.123 463.995C296.129 455.918 291.799 448.386 288.487 440.436C286.258 435.087 283.852 429.879 281.953 424.391C281.349 422.648 280.499 420.992 279.992 419.218C279.479 417.42 278.745 415.301 279.092 413.5C274.465 409.83 271.376 405.049 268.884 398.381C265.276 388.726 261.794 379.607 255.816 371.155C246.541 358.043 239.737 343.307 230.55 330.135C222.596 318.732 213.36 308.29 205.139 297.1C195.92 287.882 201.404 291.355 188.84 288.098C187.961 287.87 187.077 287.686 186.189 287.534C184.549 289.878 183.13 291.801 182.451 294.577C181.409 298.841 180.56 303.175 179.22 307.356C175.82 317.965 172.719 328.639 170.689 339.609C168.367 352.162 166.812 364.83 164.645 377.399C162.875 387.665 160.833 398.137 156.215 407.5C155.532 408.883 154.794 410.243 153.991 411.574C152.788 414.945 152.285 417.519 151.849 421.105C150.699 430.557 148.607 439.999 147.003 449.384C144.598 463.454 142.746 477.734 138.672 491.439C135.991 500.454 133.859 509.669 124.151 512.258C117.656 513.214 111.22 514.139 104.753 514.675C99.0771 515.146 93.378 515.317 87.5958 514.944C76.8739 514.254 66.5641 512.202 56.6243 508.805C51.4835 507.048 46.4418 504.931 41.4932 502.457C32.7357 497.117 34.0023 489.265 33.4888 479.714C32.929 469.303 33.3933 458.893 33.6521 448.477C33.8175 441.821 34.1646 435.169 33.8336 428.511C33.407 419.929 32.4623 411.388 32.0186 402.81C31.9939 398.181 31.995 394.843 31.7547 391.5C31.5231 388.279 31.0675 385.054 30.1491 380.666C28.0075 370.434 24.4506 360.469 21.709 350.391C12.4249 316.26 12.8114 289.765 15.0308 254.809C15.4342 246.034 15.6831 234.189 15.6831 225.405C15.6831 214.426 14.2361 206.76 12.7683 195.899L12.7256 195.584C10.6187 179.992 6.48128 164.961 3.28731 149.59C1.17948 139.446 0.33563 129.109 0.546569 118.752C0.712479 110.606 2.97331 111.139 3.28634 103C21.6466 96.8799 44.6177 83.6507 58.337 70.0361C58.4181 69.9557 58.4988 69.8752 58.5793 69.7946C59.5545 67.1831 60.5375 61.3869 59.9341 58.8009C58.9429 54.5528 57.7504 50.4525 57.5344 46.1022C57.6588 42.947 58.109 39.8345 58.2825 36.6753C58.3856 34.8003 58.3915 32.9028 58.3366 31C58.241 27.688 57.9609 24.3595 57.687 21.1039L57.6654 20.8479C57.3538 17.1435 56.5716 13.4618 56.5219 9.73974C56.4869 7.11449 57.4367 7.43634 60.1157 7.16235C73.004 8.0512 80 8.75958 93.4764 8.75958C118.948 10.8749 144.553 12.2062 170.108 12.6075C238.029 13.674 251.988 10.9356 319 1C321.983 13.657 323.695 21.1327 325.283 28.5C326.952 36.2428 328.485 43.8659 331.214 57.2581Z" fill="#5F5B5B"/>
<path d="M220.341 74.9706C214.429 70.048 209.8 64.0186 204.95 58.0905L201 52C201.592 48.7782 201.769 47.1565 202.5 44L249 40C276.05 35.9149 284.995 35.6235 304 32.5L305.25 34.2406C315.026 59.1248 318.852 86.2349 322.239 112.651C295.704 110.529 270.141 104.293 246.569 91.6873C237.459 86.8156 228.305 81.6013 220.341 74.9706Z" fill="#DE655E"/>
<path d="M311.028 417.137C320.407 415.927 345.933 409.519 355.156 407.452C363.4 405.141 371.541 402.521 379.674 399.64C381.625 398.664 394.806 395.463 395 393.5L401 399.64L403.669 413.434C405.65 427.662 406.848 441.946 407.879 456.27C408.742 468.24 409.725 480.559 409.35 492.571C409.185 497.84 406.463 501.513 402.18 504.369C395.528 508.157 387.515 511.497 379.498 513.957C374.642 515.448 369.784 516.615 365.225 517.365C354.889 519.064 343.818 520.444 333.353 519.397C326.63 518.725 320.068 516.326 316.582 510.25C313.165 504.295 311.784 497.267 309.213 490.937C305.597 482.037 302.459 472.953 299.121 463.947C296.126 455.869 291.797 448.337 288.485 440.388C286.256 435.039 283.85 429.831 281.95 424.343C281.347 422.599 280.497 420.944 279.99 419.17C279.477 417.372 278.743 415.253 279.09 413.452C281.53 415.387 284.398 417.013 287.831 418.444C291.219 419.056 294.48 419.098 297.718 418.865C302.112 418.548 306.462 417.726 311.028 417.137Z" fill="#DE655E"/>
<path d="M154.391 411.647C153.076 415.232 152.549 417.869 152.094 421.605C150.945 431.057 148.852 440.499 147.248 449.884C144.843 463.954 142.991 478.234 138.917 491.939C136.237 500.954 134.104 510.169 124.396 512.758C117.901 513.714 111.465 514.639 104.999 515.175C99.3225 515.646 93.6233 515.817 87.8411 515.444C77.1192 514.754 66.8094 512.702 56.8696 509.305C51.7289 507.548 46.6871 505.431 41.7385 502.957C32.9811 497.617 34.2476 489.765 33.7341 480.214C33.1744 469.803 33.6387 459.393 33.8974 448.977C34.0628 442.321 34.4099 435.669 34.079 429.011C33.6524 420.429 32.4437 400.578 32 392C37.5929 397.084 42.6963 401.147 49.7067 404.09C51.1588 404.7 52.6237 405.267 54.0999 405.796C64.6516 409.576 75.7819 411.369 86.9518 412.294C98.4625 413.247 110.018 413.099 121.557 412.294C123.287 412.174 125.016 412.038 126.745 411.889C142.524 410.532 140.475 409.93 156 407.5C155.379 408.759 154.986 410.296 154.391 411.647Z" fill="#DE655E"/>
<path fill-rule="evenodd" clip-rule="evenodd" d="M318.927 0.505459C319.184 0.467352 319.427 0.632452 319.487 0.88535C322.47 13.5434 324.183 21.0227 325.772 28.3947C327.167 34.8683 328.468 41.2587 330.45 50.9988C330.839 52.9138 331.255 54.9583 331.703 57.1584C338.317 89.616 342.514 122.364 346.447 155.194C348.089 165.059 350.28 174.675 352.494 184.399C353.438 188.541 354.386 192.703 355.298 196.912C358.746 212.828 361.454 228.763 364.16 244.816C367.388 263.972 371.089 283.035 374.791 302.106C376.838 312.649 378.885 323.194 380.853 333.758C380.989 333.83 381.09 333.963 381.114 334.127C381.234 334.928 381.336 335.85 381.446 336.831L381.48 337.14C381.575 337.655 381.67 338.169 381.765 338.684C381.787 338.808 381.762 338.93 381.702 339.031C381.936 340.889 382.246 342.846 382.763 344.66C383.461 347.106 384.513 349.21 386.183 350.463C387.141 351.181 388.203 351.552 389.345 351.922C389.416 351.945 389.488 351.969 389.56 351.992C390.622 352.335 391.754 352.701 392.8 353.384C394.463 354.471 395.601 356.283 396.332 358.213C396.972 359.901 397.315 361.719 397.418 363.318C397.715 367.919 397.394 372.584 397.003 377.223C396.949 377.861 396.894 378.499 396.839 379.136C396.492 383.139 396.148 387.116 396.148 391.048C396.148 391.065 396.148 391.081 396.146 391.097C396.127 391.294 396.111 391.485 396.095 391.669C396.055 392.15 396.019 392.583 395.934 392.948C395.853 393.3 395.723 393.611 395.51 393.9C397.001 394.794 398.18 395.71 399.136 396.831C400.209 398.089 400.977 399.579 401.605 401.531C402.86 405.424 403.606 409.391 404.166 413.413C406.149 427.658 407.348 441.956 408.38 456.282C408.438 457.084 408.496 457.887 408.555 458.692C409.368 469.897 410.203 481.399 409.852 492.635C409.681 498.108 406.837 501.915 402.46 504.833C402.45 504.839 402.44 504.846 402.43 504.851C395.74 508.661 387.693 512.014 379.647 514.483C374.772 515.979 369.892 517.153 365.309 517.906C354.967 519.606 343.841 520.997 333.305 519.943C326.517 519.264 319.755 516.83 316.15 510.547C314.416 507.524 313.204 504.239 312.108 500.94C311.827 500.093 311.553 499.247 311.281 498.404C310.488 495.946 309.703 493.515 308.752 491.174C306.203 484.899 303.889 478.528 301.579 472.168C300.609 469.497 299.64 466.828 298.654 464.169C297.166 460.154 295.344 456.27 293.474 452.384C293.222 451.862 292.969 451.339 292.717 450.816C291.094 447.456 289.464 444.081 288.025 440.628C287.417 439.168 286.793 437.714 286.169 436.26C284.518 432.409 282.864 428.552 281.48 424.554C281.233 423.839 280.943 423.14 280.647 422.426C280.59 422.287 280.532 422.147 280.474 422.006C280.122 421.151 279.773 420.271 279.511 419.355C279.456 419.16 279.396 418.957 279.335 418.75C279.123 418.027 278.893 417.242 278.73 416.462C278.541 415.557 278.433 414.613 278.552 413.708C273.961 409.991 270.888 405.172 268.416 398.556C264.805 388.895 261.343 379.836 255.407 371.444C250.755 364.866 246.724 357.884 242.717 350.917L242.503 350.545C238.564 343.696 234.637 336.869 230.14 330.421C226.173 324.733 221.885 319.283 217.554 313.849C217.036 313.2 216.518 312.551 216 311.901C212.192 307.13 208.377 302.351 204.758 297.427C203.03 295.697 201.815 294.412 200.907 293.45C200.611 293.137 200.347 292.857 200.109 292.609C199.126 291.582 198.607 291.111 198.017 290.809C197.416 290.502 196.714 290.354 195.294 290.073L195.194 290.053C193.798 289.777 191.795 289.38 188.715 288.582C187.954 288.384 187.187 288.22 186.416 288.081C186.394 288.113 186.372 288.145 186.35 288.176C184.811 290.372 183.556 292.163 182.937 294.696C182.643 295.896 182.364 297.108 182.084 298.324C181.376 301.397 180.661 304.497 179.696 307.508C176.298 318.11 173.205 328.761 171.181 339.7C170.022 345.967 169.053 352.265 168.104 358.572C167.997 359.277 167.892 359.981 167.786 360.685C166.944 366.288 166.101 371.896 165.138 377.484C163.368 387.748 161.317 398.286 156.663 407.721C155.982 409.102 155.246 410.459 154.446 411.789C153.271 415.092 152.776 417.621 152.345 421.166C151.58 427.46 150.395 433.763 149.217 440.03C148.623 443.187 148.031 446.336 147.495 449.468C147.01 452.306 146.547 455.156 146.084 458.01C144.253 469.278 142.411 480.616 139.151 491.582C138.991 492.119 138.833 492.659 138.675 493.199C137.514 497.159 136.345 501.144 134.484 504.501C132.352 508.345 129.294 511.404 124.28 512.741C124.262 512.746 124.243 512.75 124.224 512.753C117.73 513.708 111.279 514.636 104.795 515.174C99.1012 515.646 93.3765 515.817 87.5636 515.443C76.7983 514.75 66.4448 512.69 56.4626 509.278C51.3001 507.513 46.2377 505.388 41.2696 502.904C41.257 502.898 41.2448 502.891 41.2329 502.884C36.7261 500.135 34.7796 496.715 33.9112 492.772C33.4805 490.817 33.3157 488.738 33.225 486.567C33.1869 485.655 33.162 484.736 33.1368 483.801C33.1012 482.486 33.0647 481.141 32.9895 479.741C32.5222 471.049 32.7669 462.356 33.0111 453.683C33.0601 451.942 33.1091 450.203 33.1523 448.464C33.1874 447.05 33.2306 445.639 33.2738 444.229C33.4343 438.984 33.5941 433.764 33.3342 428.536C33.1214 424.254 32.7792 419.98 32.4341 415.699L32.4163 415.478C32.0773 411.272 31.7377 407.059 31.5192 402.836C31.5188 402.828 31.5186 402.82 31.5186 402.812C31.5168 402.473 31.5151 402.14 31.5134 401.814C31.4928 397.69 31.4773 394.615 31.256 391.536C31.0263 388.342 30.5745 385.139 29.6597 380.768C28.2976 374.261 26.3683 367.885 24.4346 361.495C23.3319 357.851 22.2278 354.203 21.2265 350.522C11.9209 316.313 12.3113 289.752 14.5315 254.782C14.9345 246.016 15.1831 234.181 15.1831 225.405C15.1831 216.491 14.2268 209.781 13.0766 201.71C12.8156 199.879 12.5447 197.979 12.2728 195.966L12.2301 195.651C10.8029 185.089 8.44545 174.801 6.0768 164.464C4.95366 159.562 3.828 154.65 2.79777 149.692C0.681569 139.508 -0.164956 129.133 0.0466722 118.742C0.130953 114.604 0.751417 112.649 1.38627 110.717L1.41746 110.622C2.02496 108.774 2.63528 106.918 2.78671 102.981C2.79471 102.773 2.93074 102.591 3.12822 102.526C21.427 96.4262 44.3281 83.2337 57.9848 69.6813C58.0393 69.6272 58.0937 69.5731 58.148 69.5189C58.6066 68.2517 59.0718 66.2423 59.3535 64.2193C59.6449 62.1263 59.7263 60.1106 59.4472 58.9146C59.2652 58.1345 59.0754 57.3561 58.8855 56.5774C58.2017 53.7727 57.517 50.9648 57.1932 48.0679C57.0768 47.9763 57.0021 47.8342 57.0021 47.6746C57.0021 47.1492 57.0136 46.626 57.0339 46.1048C57.0171 45.7607 57.0062 45.4148 57.002 45.067C57.0006 44.9508 57.039 44.8433 57.1045 44.7575C57.1785 43.6125 57.2842 42.4743 57.3923 41.3427C57.4042 41.218 57.4162 41.0933 57.4281 40.9688C57.5666 39.5244 57.704 38.0907 57.7833 36.6479C57.8854 34.79 57.8914 32.907 57.8368 31.0145C57.7417 27.7186 57.4629 24.4038 57.1887 21.1459L57.1672 20.8899C57.0465 19.4553 56.8549 18.0267 56.6614 16.5836C56.6071 16.1787 56.5527 15.7727 56.4996 15.3651C56.2585 13.5129 56.0472 11.6381 56.022 9.74646C56.013 9.07201 56.0646 8.52618 56.2226 8.09582C56.391 7.63674 56.6762 7.32137 57.0788 7.12152C57.4492 6.93762 57.8964 6.8642 58.3663 6.81433C58.5937 6.79019 58.8422 6.77037 59.1051 6.74938L59.1509 6.74573C59.4331 6.72319 59.7361 6.69863 60.0649 6.665C60.0932 6.6621 60.1217 6.66163 60.1502 6.66359C62.3758 6.81708 64.425 6.96513 66.3616 7.10504C75.6472 7.77586 82.3435 8.25963 93.4764 8.25963C93.4902 8.25963 93.504 8.2602 93.5178 8.26134C118.979 10.3758 144.573 11.7066 170.116 12.1077C234.205 13.114 250.2 10.7331 308.177 2.10329C311.607 1.59275 315.184 1.06033 318.927 0.505459ZM58.0349 46.0996C58.2104 49.58 59.0173 52.8917 59.8489 56.305C60.0408 57.0926 60.234 57.8856 60.4211 58.6874C60.7454 60.0774 60.637 62.2528 60.3439 64.3572C60.169 65.6135 59.9235 66.8771 59.6474 67.9794C64.3561 63.0075 68.16 57.6623 71.7773 51.7341C74.0085 48.0774 76.0992 42.5699 77.7739 38.1582C77.9339 37.7369 78.0901 37.3255 78.2422 36.9267C71.8039 35.627 65.4627 34.0168 58.8544 31.7123C58.8886 33.3827 58.8726 35.0502 58.7818 36.7028C58.7013 38.167 58.562 39.6206 58.4238 41.0613C58.4118 41.1869 58.3997 41.3124 58.3878 41.4379C58.2387 42.9983 58.097 44.5452 58.0349 46.0996ZM58.8259 30.6427C65.708 33.0655 72.297 34.7259 79.0181 36.0623C84.6434 37.1809 90.3587 38.0721 96.4197 38.9944C104.096 40.1625 111.809 41.0608 119.544 41.7481C131.133 42.7777 142.769 43.3337 154.403 43.6139C154.39 43.4567 154.377 43.2994 154.364 43.1422C154.341 42.867 154.545 42.6253 154.82 42.6024C155.096 42.5795 155.337 42.784 155.36 43.0592C155.376 43.2519 155.392 43.4447 155.408 43.6375C156.234 43.6563 157.059 43.6737 157.885 43.6898C172.722 43.9796 187.597 43.8429 202.446 43.1933C202.55 42.9977 202.775 42.888 203.001 42.9403C203.132 42.9707 203.24 43.0503 203.308 43.1551C217.847 42.4996 232.36 41.3507 246.79 39.6275C271.396 36.689 284.921 34.6679 303.919 31.5455C308.726 30.7555 313.883 29.895 319.658 28.9314C321.282 28.6603 322.956 28.3812 324.684 28.0931C323.146 20.9808 321.468 13.6571 318.619 1.56206C315.046 2.092 311.623 2.60138 308.336 3.0907C250.322 11.7259 234.271 14.1151 170.101 13.1075C144.54 12.7062 118.931 11.3748 93.4557 9.25963C82.297 9.25903 75.5674 8.7728 66.283 8.102C64.3602 7.96308 62.3278 7.81623 60.1238 7.66415C59.7995 7.6968 59.5011 7.72094 59.2305 7.74255L59.1899 7.74579C58.9221 7.76718 58.6858 7.78604 58.4719 7.80874C58.0113 7.85762 57.7209 7.91919 57.5234 8.01723C57.358 8.09932 57.2448 8.21285 57.1613 8.44034C57.0673 8.69654 57.0134 9.09495 57.0219 9.73313C57.0463 11.5636 57.251 13.3907 57.4912 15.236C57.5432 15.6349 57.5969 16.0352 57.6507 16.4365C57.8448 17.8834 58.0407 19.3443 58.1637 20.8061L58.1852 21.0621L58.1857 21.0684C58.4499 24.2079 58.7211 27.4303 58.8259 30.6427ZM324.895 29.0717C323.148 29.3629 321.457 29.6451 319.816 29.9189C314.313 30.8371 309.371 31.6617 304.758 32.4209L305.594 34.0513C305.601 34.0661 305.608 34.0812 305.614 34.0966C315.322 58.8077 319.174 85.6956 322.537 111.868C322.613 111.879 322.688 111.908 322.755 111.956C322.992 112.125 323.234 112.294 323.48 112.465C323.699 112.483 323.919 112.501 324.138 112.518C324.413 112.54 324.619 112.781 324.597 113.057C324.592 113.114 324.578 113.168 324.556 113.218C325.79 114.1 327.034 115.095 327.922 116.381C329.344 118.44 330.162 121.024 330.904 123.365C331.028 123.756 331.149 124.14 331.271 124.514C334.055 133.046 336.358 142.002 337.77 150.873C340.087 165.435 339.362 180.678 338.663 195.37C338.596 196.786 338.529 198.196 338.465 199.6C338.138 206.774 336.683 219.138 335.493 226.214C335.49 226.235 335.485 226.255 335.479 226.275C335.472 226.299 335.463 226.322 335.452 226.345L335.189 226.903C336.454 227.372 337.654 227.988 338.629 228.796C342.3 231.838 344.654 234.398 346.696 238.846C349.608 245.186 351.381 252.454 352.704 259.233C353.523 263.43 354.444 267.61 355.374 271.794C355.45 272.139 355.527 272.485 355.604 272.831C356.457 276.668 357.312 280.511 358.094 284.368C358.679 287.254 359.243 290.143 359.806 293.031C361.359 300.996 362.91 308.954 364.913 316.797L365.107 317.555C367.215 325.815 369.798 335.922 374.436 343.969C378.948 351.797 385.356 357.597 395.115 357.879C394.435 356.346 393.489 355.03 392.253 354.221C391.323 353.614 390.311 353.286 389.223 352.934L389.036 352.873C387.897 352.504 386.688 352.091 385.583 351.263C383.653 349.815 382.521 347.457 381.802 344.935C381.082 342.411 380.754 339.642 380.491 337.287C378.338 325.623 376.076 313.972 373.814 302.319C370.109 283.237 366.404 264.147 363.174 244.982C360.468 228.926 357.763 213.014 354.321 197.124C353.414 192.938 352.469 188.789 351.527 184.653C349.773 176.952 348.029 169.297 346.561 161.537C346.347 161.502 346.172 161.329 346.145 161.102C345.916 159.18 345.687 157.258 345.457 155.336C344.983 152.491 344.555 149.625 344.185 146.731C344.163 146.555 344.235 146.388 344.363 146.282C340.731 116.486 336.722 86.7985 330.724 57.358C330.275 55.1541 329.858 53.1065 329.468 51.189C327.534 41.6872 326.251 35.3801 324.895 29.0717ZM395.514 358.888C385.044 358.753 378.247 352.584 373.569 344.468C368.857 336.292 366.246 326.06 364.146 317.834L363.944 317.045C361.934 309.171 360.374 301.171 358.819 293.196C358.257 290.314 357.696 287.435 357.114 284.567C356.334 280.721 355.482 276.89 354.629 273.053L354.397 272.011C353.468 267.827 352.544 263.636 351.723 259.425C350.404 252.666 348.649 245.493 345.788 239.263C343.826 234.993 341.587 232.546 337.991 229.566C337.008 228.751 335.731 228.13 334.341 227.665C332.713 227.12 330.961 226.8 329.416 226.628C325.621 226.207 322.281 225.144 318.766 224.024C318.324 223.883 317.879 223.742 317.43 223.601C315.816 223.211 314.288 222.851 312.813 222.504C306.731 221.074 301.56 219.857 295.021 217.601C287.833 215.122 282.916 212.991 276.081 209.516C262.921 202.824 251.287 194.322 240.851 183.886C222.328 165.363 209.048 141.819 201.809 116.695C195.893 96.1612 196.547 73.935 200.407 52.9098C200.945 49.9828 201.544 47.0786 202.197 44.2051C187.422 44.8447 172.624 44.9779 157.865 44.6896C157.073 44.6741 156.281 44.6575 155.489 44.6396C156.524 57.65 156.967 70.7522 156.996 83.7933C157.001 86.1133 157.025 88.4535 157.049 90.8065C157.167 102.089 157.287 113.667 155.3 124.74C151.916 143.592 133.877 160.224 114.184 158.406C115.765 182.591 120.501 207.456 127.566 230.15C127.642 230.368 127.717 230.586 127.793 230.804C130.166 237.666 132.459 244.294 138.143 248.716C142.399 252.025 147.169 254.5 151.991 257.001C152.019 257.016 152.048 257.03 152.076 257.045C152.076 256.192 152.075 255.334 152.075 254.483C152.075 254.207 152.299 253.983 152.575 253.983C152.851 253.983 153.075 254.207 153.075 254.483C153.075 255.514 153.076 256.535 153.076 257.564C154.47 258.289 155.865 259.021 157.244 259.78C161.207 261.96 165.2 264.077 169.196 266.197L170.134 266.694C174.442 268.979 178.752 271.272 183.021 273.649C192.409 278.875 198.326 286.954 204.462 295.332C204.821 295.822 205.181 296.313 205.542 296.804C209.155 301.722 212.964 306.495 216.781 311.277C217.3 311.927 217.818 312.576 218.336 313.226C222.667 318.661 226.973 324.133 230.96 329.849C235.483 336.333 239.428 343.193 243.36 350.03L243.584 350.418C247.594 357.39 251.602 364.333 256.224 370.866C262.245 379.379 265.746 388.556 269.352 398.206C271.823 404.817 274.867 409.511 279.403 413.108C281.788 415 284.598 416.598 287.976 418.009C291.292 418.603 294.492 418.644 297.684 418.414C300.562 418.207 303.404 417.784 306.323 417.349C307.845 417.122 309.387 416.893 310.966 416.689C318.762 415.683 326.409 413.939 334.092 412.186C335.623 411.837 337.156 411.487 338.691 411.143C344.196 409.909 349.631 408.53 355.023 407.019C363.255 404.711 371.386 402.095 379.509 399.216C380.925 398.715 382.396 398.234 383.877 397.749C387.266 396.64 390.712 395.513 393.692 394.077C393.907 393.962 394.083 393.854 394.228 393.752C394.229 393.748 394.231 393.745 394.233 393.742C394.299 393.625 394.406 393.545 394.525 393.509C394.773 393.271 394.888 393.034 394.96 392.722C395.028 392.432 395.055 392.108 395.091 391.669C395.107 391.478 395.125 391.265 395.148 391.023C395.15 387.052 395.497 383.036 395.843 379.043C395.898 378.408 395.953 377.773 396.006 377.139C396.397 372.502 396.712 367.902 396.42 363.382C396.329 361.971 396.039 360.38 395.514 358.888ZM393.816 395.125C393.849 395.117 393.88 395.105 393.912 395.089C393.992 395.049 394.07 395.009 394.145 394.969C394.206 394.939 394.267 394.909 394.328 394.88C394.407 394.841 394.486 394.802 394.565 394.762C394.639 394.725 394.7 394.672 394.745 394.61C396.303 395.52 397.462 396.409 398.375 397.48C399.34 398.612 400.053 399.974 400.654 401.838C401.883 405.654 402.619 409.558 403.175 413.551C405.154 427.762 406.351 442.033 407.383 456.354C407.44 457.152 407.498 457.952 407.557 458.753C408.37 469.969 409.202 481.421 408.852 492.603C408.694 497.661 406.101 501.2 401.919 503.991C395.475 507.659 387.74 510.909 379.962 513.339C379.153 499.569 377.295 484.516 374.618 471.019C372.296 459.316 370.024 451.591 367.255 442.174C366.231 438.689 365.138 434.972 363.949 430.736C362.14 424.293 359.929 418.547 357.62 412.545C357.024 410.997 356.421 409.432 355.818 407.834C363.895 405.555 371.874 402.983 379.843 400.159C381.207 399.676 382.647 399.204 384.111 398.725C387.415 397.644 390.844 396.522 393.816 395.125ZM354.851 408.105C349.588 409.573 344.283 410.915 338.91 412.119C337.383 412.461 335.856 412.809 334.328 413.158C326.645 414.911 318.942 416.668 311.094 417.681C309.558 417.879 308.036 418.105 306.523 418.331C303.768 418.741 301.042 419.146 298.317 419.368C304.385 450.881 317.985 492.356 333.657 518.973C343.978 519.965 354.9 518.604 365.146 516.919C369.563 516.193 374.266 515.072 378.978 513.642C378.179 499.848 376.321 484.743 373.637 471.214C371.325 459.558 369.069 451.886 366.304 442.485C365.278 438.995 364.181 435.266 362.986 431.006C361.192 424.613 359.002 418.923 356.696 412.93C356.087 411.349 355.471 409.747 354.851 408.105ZM332.418 518.836C316.812 492.039 303.335 450.79 297.312 419.442C294.19 419.642 291.029 419.577 287.745 418.984C287.709 418.977 287.674 418.967 287.641 418.953C284.505 417.646 281.824 416.173 279.502 414.446C279.497 415.019 279.578 415.628 279.709 416.258C279.863 416.995 280.077 417.727 280.288 418.445C280.351 418.658 280.413 418.87 280.473 419.08C280.718 419.939 281.048 420.774 281.399 421.626C281.455 421.762 281.511 421.899 281.568 422.036C281.864 422.751 282.167 423.482 282.425 424.227C283.796 428.188 285.429 431.995 287.076 435.835C287.702 437.296 288.331 438.762 288.948 440.244C290.375 443.669 291.992 447.016 293.615 450.377C293.868 450.901 294.122 451.426 294.375 451.951C296.246 455.838 298.086 459.759 299.592 463.822C300.583 466.495 301.555 469.172 302.526 471.847C304.833 478.199 307.137 484.541 309.678 490.797C310.644 493.176 311.446 495.658 312.242 498.125C312.512 498.961 312.782 499.796 313.057 500.625C314.149 503.911 315.335 507.117 317.018 510.049C320.219 515.628 326.124 518.04 332.418 518.836ZM152.076 258.172C151.887 258.073 151.698 257.975 151.509 257.877C146.706 255.386 141.86 252.873 137.529 249.505C131.606 244.898 129.225 238.01 126.881 231.228C126.794 230.975 126.706 230.722 126.619 230.47L126.614 230.455C119.508 207.632 114.75 182.621 113.175 158.297C113.109 158.289 113.044 158.281 112.978 158.272C112.704 158.236 112.511 157.985 112.547 157.712C112.583 157.438 112.834 157.245 113.108 157.28L113.111 157.281C112.829 152.672 112.662 148.089 112.615 143.551C112.24 106.773 114.276 79.0288 118.938 42.6978C111.358 42.015 103.797 41.1285 96.2692 39.983C90.4062 39.0908 84.847 38.2248 79.3752 37.1521C79.2559 38.6819 79.1387 40.2409 79.0199 41.8213C78.2141 52.5419 77.3347 64.2409 75.2349 74.4208C74.4574 78.1902 73.7037 81.9676 72.9496 85.7466C71.4841 93.0912 70.0173 100.442 68.3721 107.754C66.4908 116.115 64.1356 124.37 61.7856 132.607C60.7205 136.341 59.6564 140.071 58.638 143.805C55.2052 156.391 51.6014 169.052 47.6326 181.488C44.847 190.216 41.3888 198.635 37.2939 206.825C34.4323 212.548 31.3718 218.546 27.1737 223.531C26.4811 224.354 25.4234 225.566 24.2271 226.574C23.053 227.564 21.6446 228.447 20.2571 228.447C19.218 228.447 18.3064 227.964 17.5267 227.423C17.1481 227.161 16.7842 226.872 16.4442 226.603L16.4063 226.573C16.3303 226.513 16.2556 226.454 16.1821 226.396C16.1644 235.071 15.9191 246.375 15.5302 254.832L15.5298 254.841C13.3114 289.78 12.9292 316.21 22.1915 350.259C23.1765 353.88 24.2725 357.504 25.3718 361.138C27.3152 367.562 29.2689 374.02 30.6384 380.563C31.5417 384.879 32.0009 388.083 32.2387 391.264C37.759 396.272 42.7842 400.245 49.6549 403.129C50.8931 403.649 52.1409 404.138 53.3972 404.599L53.4089 404.412C53.4263 404.136 53.1216 404.581 53.3972 404.599C53.6728 404.616 53.593 405.477 54 404.951H54.3771C64.7675 408.625 75.7266 410.384 86.7477 411.296C98.2271 412.246 109.756 412.099 121.277 411.295C122.92 411.181 124.562 411.053 126.205 410.913L127.292 409.126C130.86 399.295 132.642 388.456 134.371 377.935C134.718 375.824 135.063 373.726 135.42 371.651C137.35 360.431 139.064 349.309 140.171 338C141.208 327.394 143.045 317.432 145.225 307.017C145.859 303.988 146.821 301.037 147.772 298.119C147.911 297.691 148.051 297.263 148.189 296.836C149.272 293.487 150.278 290.163 150.736 286.725C151.997 277.27 152.075 267.768 152.076 258.172ZM127.44 410.806C138.716 409.829 140.636 409.515 147.758 408.351C149.877 408.005 152.457 407.583 155.881 407.046C160.383 397.815 162.397 387.497 164.152 377.314C165.114 371.738 165.955 366.142 166.797 360.539C166.903 359.834 167.008 359.129 167.115 358.424C168.065 352.116 169.035 345.804 170.198 339.518C172.233 328.517 175.341 317.819 178.744 307.203C179.695 304.234 180.395 301.198 181.099 298.141C181.382 296.916 181.665 295.688 181.965 294.459C182.604 291.848 183.878 289.961 185.322 287.9C183.432 287.614 181.53 287.453 179.602 287.291C178.655 287.211 177.701 287.13 176.738 287.034C168.872 286.248 161.872 288.971 154.653 291.78C153.208 292.342 151.753 292.908 150.282 293.45C149.925 294.69 149.536 295.92 149.14 297.144C149.001 297.574 148.861 298.004 148.721 298.433C147.769 301.356 146.826 304.25 146.204 307.222C144.027 317.623 142.198 327.544 141.166 338.097C140.056 349.442 138.337 360.591 136.406 371.821C136.052 373.879 135.709 375.966 135.363 378.07C133.632 388.608 131.83 399.575 128.215 409.515C128.209 409.53 128.203 409.545 128.196 409.56C128.189 409.575 128.181 409.59 128.172 409.604L127.44 410.806ZM150.613 292.26C151.088 290.487 151.483 288.691 151.728 286.857C152.975 277.501 153.072 268.111 153.076 258.692C154.313 259.337 155.544 259.986 156.763 260.656C160.732 262.839 164.731 264.96 168.726 267.079L169.665 267.577C173.974 269.863 178.275 272.151 182.534 274.522C190.007 278.683 195.236 284.691 200.244 291.315C199.581 290.654 199.068 290.223 198.472 289.918C197.72 289.534 196.862 289.364 195.488 289.092L195.387 289.072C193.998 288.797 192.018 288.405 188.966 287.614C188.157 287.404 187.346 287.232 186.534 287.087C186.527 287.081 186.52 287.076 186.513 287.071C186.378 286.977 186.213 286.958 186.068 287.006C183.942 286.653 181.784 286.471 179.639 286.29C178.701 286.211 177.766 286.132 176.838 286.039C168.71 285.226 161.446 288.057 154.223 290.872C153.02 291.34 151.818 291.809 150.613 292.26ZM155.33 408.145C152.261 408.628 149.894 409.015 147.923 409.337C140.584 410.537 138.734 410.839 126.543 411.888C124.965 412.023 123.387 412.148 121.808 412.26C121.628 435.019 119.139 456.542 114.95 478.916C112.403 492.519 111.057 496.691 107.896 506.485C107.185 508.687 106.383 511.173 105.455 514.114C111.644 513.572 117.813 512.685 124.05 511.768C128.728 510.512 131.582 507.673 133.609 504.016C135.413 500.764 136.548 496.895 137.714 492.921C137.872 492.381 138.031 491.839 138.192 491.297C141.432 480.399 143.261 469.142 145.091 457.881C145.556 455.019 146.021 452.156 146.51 449.3C147.051 446.132 147.647 442.966 148.242 439.8C149.416 433.554 150.591 427.309 151.353 421.045C151.742 417.846 152.186 415.431 153.13 412.547C153.033 412.39 153.027 412.186 153.131 412.019C153.268 411.8 153.404 411.579 153.538 411.358C153.603 411.176 153.67 410.991 153.74 410.804C153.793 410.659 153.907 410.554 154.041 410.506C154.491 409.728 154.92 408.941 155.33 408.145ZM104.377 514.205C105.361 511.082 106.204 508.469 106.947 506.169C110.102 496.392 111.432 492.27 113.967 478.732C118.143 456.429 120.623 434.989 120.808 412.33C109.429 413.104 98.0279 413.233 86.6652 412.293C75.6919 411.384 64.7336 409.637 54.3124 405.989C52.8825 429.013 51.8542 452.018 52.9191 475.062C53.4999 487.633 54.8859 496.06 57.0653 508.427C66.8765 511.753 77.05 513.764 87.6279 514.445C93.266 514.808 98.8295 514.653 104.377 514.205ZM55.9844 508.054C53.8584 495.973 52.4954 487.559 51.9201 475.109C50.8483 451.912 51.8926 428.767 53.3322 405.639C51.9675 405.144 50.6123 404.616 49.2679 404.051C42.5654 401.237 37.593 397.412 32.3314 392.694C32.4814 395.413 32.4955 398.227 32.5134 401.798C32.515 402.124 32.5167 402.456 32.5185 402.795C32.7362 407 33.0745 411.198 33.4135 415.403L33.4309 415.619C33.7758 419.898 34.1193 424.186 34.333 428.486C34.5951 433.758 34.4336 439.031 34.2727 444.281C34.2297 445.686 34.1868 447.088 34.152 448.489C34.1086 450.235 34.0595 451.979 34.0104 453.723C33.7664 462.395 33.5231 471.04 33.988 479.687C34.0633 481.088 34.101 482.47 34.1373 483.805C34.1627 484.738 34.1875 485.649 34.2241 486.525C34.3141 488.679 34.4762 490.688 34.8878 492.557C35.7027 496.257 37.4979 499.429 41.7358 502.019C46.4012 504.351 51.1491 506.363 55.9844 508.054ZM16.1828 225.143C16.4658 225.345 16.7493 225.569 17.0273 225.789L17.0562 225.812C17.403 226.087 17.7448 226.358 18.0966 226.602C18.8255 227.107 19.5282 227.447 20.2571 227.447C21.2636 227.447 22.4328 226.779 23.5825 225.81C24.71 224.859 25.7224 223.702 26.4088 222.887C30.5193 218.006 33.5318 212.113 36.3995 206.378C40.4723 198.232 43.9107 189.861 46.68 181.184C50.6426 168.768 54.2422 156.122 57.6732 143.542C58.6983 139.783 59.7662 136.04 60.8333 132.3C63.1794 124.077 65.5216 115.868 67.3965 107.534C69.0392 100.234 70.5017 92.9043 71.9656 85.5675C72.7202 81.7856 73.4752 78.0018 74.2555 74.2187C76.3411 64.1077 77.2153 52.4829 78.0218 41.7572C78.0669 41.1571 78.1118 40.5599 78.1567 39.9659C76.5828 44.0902 74.6689 48.9149 72.6309 52.2549C68.6489 58.7811 64.4231 64.6362 59.0089 70.072C59.0052 70.0816 59.0015 70.0912 58.9978 70.1007C58.9866 70.1294 58.9754 70.1578 58.9642 70.1858C58.8976 70.3524 58.7514 70.4634 58.5868 70.4926C44.875 84.0527 22.0924 97.1925 3.77129 103.365C3.59235 107.208 2.9691 109.104 2.36271 110.949L2.3363 111.029C1.721 112.902 1.1281 114.754 1.04646 118.763C0.836215 129.086 1.67739 139.385 3.77686 149.489C4.79811 154.403 5.91851 159.293 7.03904 164.184C9.41313 174.546 11.7878 184.91 13.2211 195.517L13.2638 195.832C13.5338 197.831 13.8035 199.722 14.0638 201.549C15.2042 209.548 16.1642 216.282 16.1828 225.143ZM119.935 42.7864C115.274 79.0995 113.24 106.804 113.615 143.541C113.662 148.119 113.832 152.744 114.12 157.396C133.261 159.258 150.996 143.056 154.315 124.563C156.285 113.592 156.166 102.128 156.049 90.8473C156.025 88.4866 156.001 86.1339 155.996 83.7955C155.967 70.7408 155.523 57.6302 154.484 44.6162C142.96 44.3402 131.426 43.7945 119.935 42.7864ZM203.233 44.1594C202.576 47.0356 201.972 49.9422 201.431 52.8716L205.236 57.8127C205.237 57.8147 205.239 57.8166 205.24 57.8185C205.832 58.5422 206.42 59.2664 207.007 59.9891C211.241 65.2029 215.41 70.337 220.56 74.6252C228.482 81.221 237.597 86.4153 246.704 91.2853C269.446 103.447 295.894 109.973 321.584 112.3C318.212 86.0314 314.38 59.156 304.693 34.4855L303.721 32.5913C284.898 35.6824 271.375 37.6986 246.909 40.6204C232.413 42.3516 217.835 43.5038 203.233 44.1594ZM323.13 113.439C296.832 111.235 269.605 104.666 246.232 92.1671C237.119 87.2935 227.926 82.0593 219.92 75.3937C214.69 71.0385 210.455 65.823 206.228 60.616C205.64 59.8917 205.052 59.1676 204.462 58.446L204.452 58.4344L201.191 54.1983C197.527 74.8002 197.014 96.4405 202.77 116.418C209.966 141.393 223.164 164.785 241.558 183.178C251.921 193.542 263.47 201.982 276.534 208.624C283.332 212.081 288.207 214.193 295.347 216.656C301.835 218.894 306.95 220.097 313.025 221.527C314.509 221.876 316.05 222.238 317.681 222.632C317.692 222.635 317.703 222.638 317.714 222.642C318.171 222.785 318.622 222.929 319.069 223.071C322.594 224.193 325.836 225.225 329.526 225.635C330.988 225.797 332.646 226.089 334.235 226.58L334.518 225.981C335.701 218.923 337.142 206.657 337.466 199.554C337.53 198.152 337.597 196.746 337.664 195.335C338.363 180.624 339.082 165.485 336.782 151.03C335.38 142.221 333.092 133.316 330.321 124.825C330.193 124.434 330.068 124.039 329.942 123.642C329.196 121.292 328.428 118.874 327.099 116.949C326.123 115.535 324.645 114.491 323.13 113.439Z" fill="black"/>
</svg>
