<svg width="413" height="521" viewBox="0 0 413 521" fill="none" xmlns="http://www.w3.org/2000/svg">
<path d="M348.457 155.336L348.456 155.324C344.522 122.492 340.329 89.7755 333.724 57.3579C333.275 55.1539 332.858 53.1063 332.468 51.1888C330.487 41.453 329.188 35.0711 327.794 28.6054C326.226 21.3299 324.537 13.9476 321.619 1.562C318.046 2.09192 314.624 2.60125 311.337 3.09054C253.323 11.7258 237.271 14.1151 173.1 13.1074C147.54 12.7061 121.931 11.3748 96.4558 9.25958C85.2972 9.25898 78.5675 8.77275 69.2831 8.10195C67.3603 7.96302 65.3279 7.81618 63.124 7.6641C62.7996 7.69674 62.5012 7.72089 62.2307 7.7425L62.19 7.74574C61.9222 7.76713 61.6859 7.78598 61.472 7.80869C61.0115 7.85756 60.721 7.91914 60.5235 8.01718C60.3582 8.09927 60.245 8.2128 60.1615 8.44029C60.0675 8.69649 60.0135 9.0949 60.022 9.73306C60.0465 11.5636 60.2512 13.3906 60.4914 15.2359C60.5434 15.6348 60.597 16.0351 60.6509 16.4365C60.8449 17.8833 61.0409 19.3442 61.1638 20.806L61.1854 21.0619L61.1854 21.0624L61.1857 21.0657L61.1858 21.0661L61.1863 21.0723C61.4597 24.3223 61.7406 27.661 61.8366 30.9856C61.8918 32.8987 61.886 34.8106 61.7819 36.7027C61.7819 36.7027 61.7819 36.7027 61.7819 36.7028L61.2827 36.6753C61.2028 38.129 61.0644 39.5728 60.9261 41.0154C60.7638 42.7079 60.6017 44.3988 60.5346 46.1022L348.457 155.336ZM348.457 155.336L348.459 155.347C350.107 165.247 352.309 174.914 354.527 184.656C355.469 188.791 356.414 192.939 357.321 197.124C360.764 213.014 363.468 228.926 366.174 244.982L366.186 245.052L366.217 245.116C376.68 266.865 390.549 300.433 398.153 330.447C401.956 345.459 404.183 359.547 403.65 370.811C403.116 382.096 399.824 390.384 392.769 394.056C356.385 412.996 304.5 417.992 265.587 411.082C250.29 408.365 241.796 394.479 237.427 377.963C233.066 361.475 232.876 342.563 234.048 330.182L234.065 329.999L233.96 329.849C229.973 324.133 225.667 318.661 221.336 313.226C220.818 312.577 220.3 311.928 219.783 311.279C215.965 306.496 212.155 301.722 208.542 296.804L208.52 296.773L208.493 296.746C206.761 295.015 205.553 293.736 204.641 292.771C204.342 292.454 204.075 292.171 203.831 291.917C202.857 290.9 202.233 290.307 201.472 289.918C200.72 289.534 199.861 289.364 198.488 289.092L198.389 289.072C196.999 288.797 195.019 288.405 191.966 287.614C191.071 287.382 190.173 287.195 189.274 287.041L188.961 286.988L188.779 287.247C188.689 287.376 188.6 287.504 188.511 287.631C186.99 289.798 185.632 291.734 184.965 294.458C184.666 295.685 184.383 296.912 184.101 298.135C183.396 301.194 182.696 304.233 181.744 307.203C178.342 317.819 175.233 328.517 173.198 339.518C172.035 345.804 171.064 352.116 170.115 358.424C170.009 359.127 169.903 359.83 169.797 360.534C168.955 366.138 168.114 371.736 167.152 377.314C165.382 387.583 163.349 397.988 158.767 407.279C158.122 408.585 157.428 409.869 156.677 411.126C102.052 421.872 38.602 405.221 13.6812 395.534L13.6725 395.531L13.6638 395.528C13.4617 395.458 13.1696 395.276 12.7985 394.908C12.4321 394.544 12.0111 394.02 11.5474 393.302C10.6201 391.867 9.54437 389.692 8.40446 386.566C6.12518 380.315 3.60765 370.312 1.49552 354.932C-0.607443 339.619 1.77561 319.781 5.62923 301.167C9.48049 282.565 14.7888 265.241 18.5011 254.979L18.527 254.908L18.5304 254.832C18.9342 246.049 19.1833 234.196 19.1833 225.405C19.1833 216.415 18.2156 209.627 17.064 201.548C16.8037 199.722 16.534 197.83 16.264 195.832L16.2639 195.832L16.2213 195.517C16.2213 195.517 16.2212 195.517 16.2212 195.517C14.7879 184.91 12.4132 174.545 10.0391 164.183C8.91862 159.293 7.79825 154.403 6.77702 149.488C4.67756 139.385 3.83639 129.085 4.04664 118.762C4.12827 114.754 4.72117 112.902 5.33647 111.029L5.36285 110.949C5.96925 109.104 6.59252 107.208 6.77146 103.365C25.1381 97.1771 47.9886 83.9871 61.6892 70.3912C61.771 70.3101 61.8523 70.229 61.9332 70.1479L62.0099 70.0712L62.0479 69.9695C62.5527 68.6178 63.0489 66.477 63.3441 64.3571C63.6371 62.2527 63.7455 60.0773 63.4212 58.6873C63.2341 57.8855 63.0409 57.0924 62.849 56.3048C62.0174 52.8915 61.2106 49.5798 61.0351 46.0996L348.457 155.336Z" fill="#2E4D89" stroke="black"/>
<path d="M348.457 155.336L348.456 155.324C344.522 122.492 340.329 89.7755 333.724 57.3579C333.275 55.1539 332.858 53.1063 332.468 51.1888C330.487 41.453 329.188 35.0711 327.794 28.6054C326.226 21.3299 324.537 13.9476 321.619 1.562C318.046 2.09192 314.624 2.60125 311.337 3.09054C253.323 11.7258 237.271 14.1151 173.1 13.1074C147.54 12.7061 121.931 11.3748 96.4558 9.25958C85.2972 9.25898 78.5675 8.77275 69.2831 8.10195C67.3603 7.96302 65.3279 7.81618 63.124 7.6641C62.7996 7.69674 62.5012 7.72089 62.2307 7.7425L62.19 7.74574C61.9222 7.76713 61.6859 7.78598 61.472 7.80869C61.0115 7.85756 60.721 7.91914 60.5235 8.01718C60.3582 8.09927 60.245 8.2128 60.1615 8.44029C60.0675 8.69649 60.0135 9.0949 60.022 9.73306C60.0465 11.5636 60.2512 13.3906 60.4914 15.2359C60.5434 15.6348 60.597 16.0351 60.6509 16.4365C60.8449 17.8833 61.0409 19.3442 61.1638 20.806L61.1854 21.0619L61.1854 21.0624L61.1857 21.0657L61.1858 21.0661L61.1863 21.0723C61.4597 24.3223 61.7406 27.661 61.8366 30.9856C61.8918 32.8987 61.886 34.8106 61.7819 36.7027C61.7819 36.7027 61.7819 36.7027 61.7819 36.7028L61.2827 36.6753C61.2028 38.129 61.0644 39.5728 60.9261 41.0154C60.7638 42.7079 60.6017 44.3988 60.5346 46.1022L348.457 155.336ZM348.457 155.336L348.459 155.347C350.107 165.247 352.309 174.914 354.527 184.656C355.469 188.791 356.414 192.939 357.321 197.124C360.764 213.014 363.468 228.926 366.174 244.982L366.186 245.052L366.217 245.116C376.68 266.865 390.549 300.433 398.153 330.447C401.956 345.459 404.183 359.547 403.65 370.811C403.116 382.096 399.824 390.384 392.769 394.056C356.385 412.996 304.5 417.992 265.587 411.082C250.29 408.365 241.796 394.479 237.427 377.963C233.066 361.475 232.876 342.563 234.048 330.182L234.065 329.999L233.96 329.849C229.973 324.133 225.667 318.661 221.336 313.226C220.818 312.577 220.3 311.928 219.783 311.279C215.965 306.496 212.155 301.722 208.542 296.804L208.52 296.773L208.493 296.746C206.761 295.015 205.553 293.736 204.641 292.771C204.342 292.454 204.075 292.171 203.831 291.917C202.857 290.9 202.233 290.307 201.472 289.918C200.72 289.534 199.861 289.364 198.488 289.092L198.389 289.072C196.999 288.797 195.019 288.405 191.966 287.614C191.071 287.382 190.173 287.195 189.274 287.041L188.961 286.988L188.779 287.247C188.689 287.376 188.6 287.504 188.511 287.631C186.99 289.798 185.632 291.734 184.965 294.458C184.666 295.685 184.383 296.912 184.101 298.135C183.396 301.194 182.696 304.233 181.744 307.203C178.342 317.819 175.233 328.517 173.198 339.518C172.035 345.804 171.064 352.116 170.115 358.424C170.009 359.127 169.903 359.83 169.797 360.534C168.955 366.138 168.114 371.736 167.152 377.314C165.382 387.583 163.349 397.988 158.767 407.279C158.122 408.585 157.428 409.869 156.677 411.126C102.052 421.872 38.602 405.221 13.6812 395.534L13.6725 395.531L13.6638 395.528C13.4617 395.458 13.1696 395.276 12.7985 394.908C12.4321 394.544 12.0111 394.02 11.5474 393.302C10.6201 391.867 9.54437 389.692 8.40446 386.566C6.12518 380.315 3.60765 370.312 1.49552 354.932C-0.607443 339.619 1.77561 319.781 5.62923 301.167C9.48049 282.565 14.7888 265.241 18.5011 254.979L18.527 254.908L18.5304 254.832C18.9342 246.049 19.1833 234.196 19.1833 225.405C19.1833 216.415 18.2156 209.627 17.064 201.548C16.8037 199.722 16.534 197.83 16.264 195.832L16.2639 195.832L16.2213 195.517C16.2213 195.517 16.2212 195.517 16.2212 195.517C14.7879 184.91 12.4132 174.545 10.0391 164.183C8.91862 159.293 7.79825 154.403 6.77702 149.488C4.67756 139.385 3.83639 129.085 4.04664 118.762C4.12827 114.754 4.72117 112.902 5.33647 111.029L5.36285 110.949C5.96925 109.104 6.59252 107.208 6.77146 103.365C25.1381 97.1771 47.9886 83.9871 61.6892 70.3912C61.771 70.3101 61.8523 70.229 61.9332 70.1479L62.0099 70.0712L62.0479 69.9695C62.5527 68.6178 63.0489 66.477 63.3441 64.3571C63.6371 62.2527 63.7455 60.0773 63.4212 58.6873C63.2341 57.8855 63.0409 57.0924 62.849 56.3048C62.0174 52.8915 61.2106 49.5798 61.0351 46.0996L348.457 155.336Z" stroke="black"/>
</svg>
